<svg class="logo-dt" xmlns="http://www.w3.org/2000/svg" viewBox="0 0 1253.197 580.535">
<path d="M823.066,305.303c-3.069,6.145-6.17,10.615-10.005,14.459c-0.819,0.674-1.569,1.385-2.296,2.07
c-2.449,2.314-4.581,4.328-8.522,4.57l-0.033-91.13c8.385-0.333,12.002-0.551,17.937-4.109
c7.532-4.472,12.592-12.949,12.592-21.093l-1.198-0.183c-0.012,0.038-1.224,3.863-3.127,6.102
c-3.867,3.344-7.173,3.748-13.733,3.873c-8.11-0.641-16.489-3.131-25.358-5.769c-10.249-3.046-20.845-6.198-30.936-6.198
c-10.674,0-19.479,3.584-26.957,10.992c-7.688,8.913-10.03,17.473-6.965,25.443l1.183-0.271
c-0.518-6.212,0.527-11.027,3.166-14.683c4.158-4.906,9.491-7.292,16.302-7.292c5.918,0,12.142,1.729,18.161,3.4
c3.039,0.845,5.911,1.642,8.591,2.179c3.879,1.441,8.017,2.329,12.017,3.186c4.452,0.954,9.052,1.939,13.305,3.694l-0.101,93.224
c-2.644,2.094-5.681,3.072-9.529,3.072c-3.54,0-7.332-0.852-10.997-1.676c-1.558-0.35-3.165-0.711-4.736-1.002
c-0.668-0.398-1.385-0.791-2.114-1.188c-2.962-1.615-6.019-3.281-7.065-6.021l26.802-18.023l-0.285-0.496
c-0.11-0.193-0.384-0.518-0.963-0.518c-0.565,0-1.254,0.309-2.05,0.664c-0.714,0.32-1.523,0.682-2.021,0.682
c-0.181,0-0.311,0-0.347-0.406v-57.384c1.469-1.167,6.28-5.117,6.501-7.009c0.05-0.425-0.097-0.713-0.229-0.879l-0.354-0.445
l-0.471,0.321c-1.373,0.939-7.851,5.76-14.143,10.528c-12.341,9.353-12.305,9.468-12.135,10.017l0.146,0.438l0.453-0.001l0.2-0.03
c0.667-0.203,1.209-0.388,1.658-0.542c0.662-0.226,1.142-0.389,1.396-0.389c0.127,0,0.243,0.068,0.646,0.957v55.202
c-0.509,0.508-1,1.041-1.482,1.566c-1.76,1.912-3.422,3.717-5.486,3.717c-0.561,0-1.132-0.125-1.741-0.381
c-14.136-16.199-10.505-41.807-8.28-52.089c2.107-10.532,7.642-19.939,12.993-29.036c1.189-2.023,2.366-4.022,3.488-6.006
l0.896-1.583l-1.672,0.719c-18.549,7.984-33.379,27.527-36.061,47.533c-3.21,26.715,5.938,49.076,25.192,61.393
c8.584,3.602,17.535,5.504,25.889,5.504c7.783,0,14.913-1.619,21.194-4.811c13.975-7.115,22.801-20.363,23.034-34.576l0.01-0.623
h-2.188L823.066,305.303z"/>
<path d="M385.791,331.311c-1.498-0.67-2.312-2.477-2.737-3.934v-56.838c1.105-0.946,5.991-5.174,7.825-7.463
c0.163-0.204,0.291-0.386,0.399-0.558l0.044,0.053l-0.125,0.306l1.135,0.463l2.086-5.106l-4.847,1.912l0.45,1.14l0.149-0.059
c-0.699,0.284-1.662,0.9-2.496,1.486c-1.411,1.454-2.879,2.161-4.487,2.161c-3.479,0-7.121-3.368-10.334-6.339
c-2.289-2.116-4.45-4.115-6.39-4.761l-0.286-0.095l-0.25,0.169c-2.512,1.691-4.574,3.855-6.757,6.146
c-2.077,2.178-4.221,4.428-6.931,6.462c-2.31-1.053-4.016-3.295-5.817-5.664c-2.439-3.207-4.961-6.522-9.273-7.219l-0.3-0.049
l-1.158,1.105c-4.609,4.407-8.604,8.226-14.121,11.754l-10.345-9.818c-2.591-2.386-5.266-3.306-7.86-2.708l-0.223,0.102
c-2.936,2.141-6.06,6.176-8.57,9.419c-1.204,1.556-2.248,2.894-3.07,3.78l0.134-0.206l-1.028-0.669l-3.1,4.763l5.283-1.606
l-0.357-1.173l-0.177,0.054l-0.039-0.058c4.44-2.903,7.436-2.3,9.474,2.135c0.225,5.839,0.243,53.849,0.029,57.89l-3.67,2.359
l12.697,13.963l0.433-0.268c5.947-3.674,9.695-7.945,12.859-12.014l0.329-0.422l-3.635-3.707l0.102-54.484
c0.458-0.834,3.167-5.538,6.458-6.148c0.312-0.058,0.632-0.087,0.951-0.087c3.245,0,6.282,3.014,7.234,5.807
c0.927,2.711,0.637,38.118,0.445,51.801l-5.252,7.234l12.031,12.553l13.605-12.908l-5.169-5.229v-52.994
c0.534-0.793,3.181-4.574,5.783-5.493c0.519-0.182,1.025-0.275,1.504-0.275c2.751,0,4.651,3.098,6.327,5.83
c0.339,0.554,0.67,1.093,0.999,1.594c-0.003,1.444-0.018,3.818-0.036,6.882c-0.072,12.368-0.208,35.385-0.021,54.497l0.002,0.195
l4.19,5.809l0.103,0.111c1.617,1.367,3.463,2.062,5.486,2.062c8.638,0,18.301-12.895,18.521-15.605l0.088-1.076l-0.971,0.479
C390.638,329.979,386.707,331.066,385.791,331.311z"/>
<path d="M620.224,328.664l-0.616-0.021l-0.168,0.117c-1.422,0.996-2.9,1.523-4.276,1.523c-2.289,0-4.201-1.416-5.396-3.992
l-0.134-59.612c6.796-5.866,6.7-6.123,6.528-6.585c-0.094-0.252-0.33-0.415-0.604-0.415l-0.226,0.029l-0.116,0.049
c-2.38,1.021-4.639,2.674-5.284,3.165c-3.556-0.163-6.495-2.341-9.602-4.644c-1.822-1.349-3.706-2.746-5.796-3.791l-0.343-0.171
l-17.321,13.338l-8.159-10.192c-2.335-2.607-3.774-3.771-6.128-3.771c-0.591,0-1.25,0.077-2.014,0.236l-0.172,0.036l-0.126,0.122
c-2.019,1.929-3.833,4.341-5.588,6.673c-2.133,2.835-4.147,5.512-6.139,6.757l0.452,1.119c0.012-0.003,1.283-0.264,2.964-0.264
c2.889,0,6.613,0.744,8.028,4.271l0.188,54.715l-5.085,5.18l0.351,0.428c4.183,5.076,8.58,10.055,12.391,12.07l0.361,0.191
l0.315-0.26c3.944-3.25,10.612-9.598,12.816-13.764l0.528-0.998l-1.126,0.102c-2.225,0.213-4.611-2.541-5.386-4.027l0.057-51.287
c1.259-3.595,5.18-6.265,8.428-7.562c0.54-0.191,1.089-0.288,1.63-0.288c2.897,0,5.454,2.698,7.717,5.148v58.153l1.203,4.646
l0.05,0.131c1.081,2.041,5.056,8.744,10.857,9.352l0.274,0.029l0.203-0.186c15.221-13.922,14.874-14.859,14.707-15.311
L620.224,328.664z"/>
<path d="M860.175,328.035h-0.268c-0.648,0-1.464,0.471-2.496,1.068c-1.237,0.715-2.777,1.604-4.034,1.604
c-0.572,0-1.412-0.156-2.026-1.393c-0.582-2.182-0.745-24.852-0.435-60.642c0.003-0.268,0.005-0.476,0.005-0.623l5.972-7.14
l-1.61,0.251c-0.541,0.085-1.085,0.128-1.614,0.128c-4.687,0-8.3-3.32-11.794-6.532c-1.191-1.096-2.426-2.229-3.664-3.187
l-0.276-0.213l-0.325,0.129c-3.666,1.452-6.235,4.13-8.72,6.721c-1.239,1.293-2.522,2.629-3.929,3.801l-1.475,1.229l1.914-0.146
c2.705-0.205,5.962,1.583,8.517,4.577l0.03,65.438l0.03,0.189c1.53,4.688,6.652,8.898,10.937,11.279l0.389,0.215l0.325-0.301
c4.47-4.145,14.874-13.967,14.938-15.699c0.007-0.215-0.065-0.412-0.201-0.561L860.175,328.035z"/>
<path d="M921.864,250.584c-1.165,0-2.211-0.112-2.589-0.157c-9.061-6.572-18.065-13.785-26.775-20.761
c-6.88-5.51-13.992-11.206-21.137-16.594l-0.064-0.26h-0.272l-1.22-0.962l0.372,1.526l-0.1,0.263l0.146,0.111
c0.054,1.567,0.096,9.97,0.113,15.626l0.001,0.25l0.175,0.178c3.981,4.057,9.268,7.994,14.38,11.802
c6.254,4.658,12.178,9.069,15.493,13.428c-3.91,1.674-23.021,9.832-33.094,13.61l-1.077,0.404l0.936,0.668
c0.196,0.142,0.396,0.278,0.594,0.414c1.409,0.969,2.522,1.734,2.457,3.581c0.029,16.999,0.066,49.245,0.002,50.771
c-0.595,2.371-2.806,2.982-2.897,3.006l-1.464,0.371l1.309,0.754c3.622,2.086,7.13,4.867,10.522,7.559
c3.864,3.066,7.861,6.236,12.055,8.398l0.305,0.156l0.293-0.176c3.054-1.834,6.069-3.936,8.986-5.969
c7.242-5.047,14.73-10.266,23.379-11.766l1.72-0.297l-1.525-0.842c-0.032-0.016-3.089-1.738-3.096-4.453
c-0.007-3.07,0.057-56.198,0.052-56.816c-0.613-4.578,3.033-10.543,5.047-13.057l1.085-1.356l-1.696,0.375
C923.628,250.512,922.815,250.584,921.864,250.584z M887.668,301.381c0.043-15.385,0.091-32.73,0.036-36.182l0.735-0.365
c3.458-1.725,11.56-5.765,14.431-5.765c0.208,0,0.344,0.023,0.43,0.049v72.158c-0.185,0.072-0.413,0.109-0.683,0.109
c-3.563,0-11.516-5.885-14.989-9.84C887.622,318.295,887.645,310.344,887.668,301.381z"/>
<path d="M286.77,331.115c-3.131,0-5.279-2.33-6.552-4.346v-57.524l5.733-7.053l0.018,0.022l-0.125,0.231l1.079,0.582l2.659-4.934
l-5.071,2l0.45,1.14l0.174-0.068l0.04,0.05c-0.832,0.738-4.535,2.311-5.734,2.319c-2.453-1.425-4.841-3.065-7.15-4.652
c-4.54-3.118-9.234-6.342-14.493-7.937l-0.352-0.106l-0.26,0.26c-11.196,11.197-20.906,18.389-28.859,21.375l-2.104,0.79
l2.214,0.388c0.034,0.006,3.309,0.6,3.963,2.525c0.048,2.755,0.023,46.308,0.021,50.044c-0.16,0.166-0.322,0.334-0.484,0.504
c-1.144,1.203-2.328,2.447-3.868,2.447h-1.529l11.752,11.229c2.139,1.953,3.78,3.203,5.835,3.811l0.176,0.053l0.176-0.055
c3.653-1.113,6.784-3.971,9.812-6.732c2.706-2.467,5.27-4.807,8.008-5.773c3.258,5.588,7.86,10.125,13.001,12.809l0.329,0.17
l0.305-0.213c6.533-4.543,13.17-9.396,16.247-14.361l1.295-2.088l-4.891,2.846C287.969,331.031,287.358,331.115,286.77,331.115z
 M262.354,326.709c-2.009,2.215-4.165,4.221-6.356,4.221c-0.944,0-1.828-0.371-2.634-1.066l-4.958-5.977l-0.056-60.013
c5.307,1.992,10.714,4.14,13.948,9.258L262.354,326.709z"/>
<path d="M678.352,323.414c-0.782,0.297-1.593,0.604-2.294,0.604c-0.52,0-0.906-0.168-1.229-0.541
c0.039-2.125-0.082-4.541-0.21-7.094c-0.395-7.893-0.843-16.84,2.947-22.867l0.7-1.113l-1.303,0.18
c-0.473,0.064-0.948,0.098-1.413,0.098c-0.001,0,0,0-0.001,0c-4.969,0-8.791-3.758-12.486-7.394
c-0.497-0.488-0.993-0.976-1.488-1.452c2.08-4.315,4.416-8.539,6.679-12.627c3.104-5.604,6.311-11.4,8.885-17.494l0.696-1.652
l-1.562,0.879c-3.62,2.037-7.791,3.114-12.061,3.114c-4.271,0-8.441-1.077-12.062-3.114l-0.498-0.28l-0.315,0.478
c-4.99,7.582-13.447,12.583-25.138,14.863l-0.401,0.079l-0.082,0.402c-0.253,1.259,0.64,1.958,1.291,2.47
c0.122,0.096,0.245,0.192,0.36,0.292c0.467,16.982,0.239,26.893-0.698,30.295l-0.195,0.713l0.735,0.061
c5.046,0.42,9.562,3.152,13.929,5.795l0.76,0.459c-2.618,5.957-6.232,11.605-9.729,17.074c-3.183,4.975-6.189,9.672-8.301,14.342
l-0.821,1.814l10.11-6.191c1.589-0.615,3.2-0.941,4.66-0.941c1.995,0,4.638,0.6,5.883,3.396c0.91,2.781,0.618,4.316,0.215,6.445
c-0.078,0.414-0.159,0.844-0.235,1.303l-0.259,1.553l1.239-0.969c13.393-10.449,25.05-17.482,36.683-22.137l0.956-0.383
l-0.793-0.658C680.798,322.627,679.605,322.938,678.352,323.414z M660.854,276.079c-3.162,6.512-6.148,12.667-10.452,16.982
c-0.227,0.008-0.455,0.016-0.685,0.016c-3.832,0-6.015-1.351-6.475-3.914c-0.016-1.769-0.066-3.564-0.117-5.37
c-0.185-6.579-0.373-13.373,1.1-19.318c4.157,1.68,9.155,2.564,14.51,2.564c0,0,0,0,0.002,0c2.311,0,4.654-0.161,6.985-0.479
C663.946,269.71,662.376,272.943,660.854,276.079z M645.857,309.777c2.312-3.623,4.7-7.367,6.854-11.078
c2.573-0.43,5.021,1.629,5.857,3.611c0.577,9.463,0.619,19.125,0.124,28.742c-4.373-2.949-9.689-4.623-14.758-4.623
c-1.882,0-3.725,0.229-5.479,0.68l-3.785,1.887C637.783,322.422,641.883,316.002,645.857,309.777z"/>
<path d="M159.895,256.104c-0.061-2.262,0.008-4.586,0.074-6.833c0.241-8.109,0.49-16.493-5.035-24.668
c-3.554-5.988-10.621-13.949-30.886-13.949c-4.662,0-9.276,0.357-13.74,0.705c-3.909,0.303-7.602,0.589-10.867,0.589
c-1.74,0-3.222-0.081-4.599-0.251c-10.122-0.174-17.559-2.872-22.735-8.247l-1.903-1.977l5.372,15.838l0.057,0.123
c7.307,11.988,21.643,12.103,34.292,12.204c3.623,0.029,7.057,0.057,10.299,0.33l0.013,94.896H89.633l-0.122,0.012
c-12.145,2.48-22.002,17.248-22.002,25.572v1.912l1.111-1.557c0.041-0.057,4.112-5.711,7.658-6.557l46.032,0.395l0.187-0.23
c8.448-10.469,19.758-16.004,30.695-21.355c3.07-1.502,5.971-2.922,8.833-4.455l0.854-0.457l-3.041-2.242L159.895,256.104z
 M139.609,323.807c-2.06,0.877-4.329,1-6.297,1c-0.956,0-1.926-0.033-2.898-0.068c-0.995-0.035-1.992-0.068-2.983-0.068
c-0.712,0-1.358,0.02-1.96,0.055v-93.943c5.465,0.522,12.085,2.438,14.139,8.418V323.807z"/>
<path d="M109.709,235.127l-0.735,0.053c-3.333,0.238-6.549,1.422-9.268,3.401c-7.707,4.889-8.487,13.087-9.176,20.32
c-0.197,2.072-0.385,4.038-0.712,5.906c-0.596,0.095-1.199,0.174-1.805,0.252c-3.465,0.452-7.049,0.919-9.487,4.378
c-3.877,4.605-4.209,13.323-2.958,17.588l0.387,1.316l0.722-1.165c0.019-0.031,1.946-3.116,3.825-4.296
c0.773-0.486,2.474-0.977,4.528-0.977c1.318,0,3.699,0.219,5.167,1.646c-0.08,3.977-0.041,8.034-0.003,11.961
c0.067,6.936,0.136,14.107-0.462,20.836l-0.072,0.811l0.798-0.154c7.45-1.439,16.036-7.764,17.517-15.928
c0.626-9.513,0.561-19.4,0.497-28.963c-0.08-12.061-0.163-24.533,1.154-36.254L109.709,235.127z"/>
<path d="M221.239,265.558c-2.485-3.587-5.579-8.052-9.831-10.085l-0.373-0.178l-13.404,12.25c-1.743-3.602-3.777-6.889-5.953-9.589
l-0.282-0.281c-2.548-2.532-4.086-4.061-7.824-4.911l-0.196-0.044l-0.185,0.081c-0.577,0.251-2.171,1.768-5.943,5.43
c-2.333,2.265-4.978,4.833-6.694,6.316l-1.248,1.077h1.648c2.695,0,6.476,0.374,8.373,3.57l0.037,57.002l-4.109,3.598l0.544,0.459
c7.331,6.201,13.441,10.725,19.227,14.238l0.349,0.211l23.376-17.002l-2.562,0.428c-1.458,0.242-2.459,0.746-3.519,1.277
c-0.894,0.449-1.819,0.914-3.179,1.303c-4.687,1.6-7.512,1.486-9.26-0.275c-1.381-1.393-2.064-3.916-2.034-7.496l-0.103-0.002
c0.318-4.443,0.118-43.394,0.049-51.015c1.712,1.339,3.3,2.867,4.843,4.353c2.552,2.457,4.962,4.777,7.871,6.302l0.423,0.223
l0.318-0.356c1.356-1.516,2.936-2.927,4.463-4.292c2.958-2.645,6.018-5.38,7.469-8.927l0.137-0.334l-0.226-0.281
C222.762,267.755,222.022,266.688,221.239,265.558z"/>
<path d="M489.43,331.121c-1.499-0.67-2.314-2.479-2.741-3.938v-56.835c1.106-0.946,5.994-5.175,7.826-7.467
c0.543-0.678,0.815-1.158,0.602-1.604c-0.123-0.254-0.376-0.406-0.679-0.406c-0.625,0-1.995,0.855-3.126,1.651
c-1.412,1.453-2.879,2.161-4.486,2.161c-3.479,0-7.122-3.369-10.335-6.34c-2.289-2.116-4.449-4.114-6.389-4.76l-0.286-0.096
l-0.25,0.168c-2.511,1.69-4.572,3.854-6.754,6.144c-2.077,2.18-4.222,4.431-6.936,6.466c-2.308-1.054-4.013-3.296-5.814-5.664
c-2.439-3.208-4.961-6.524-9.275-7.22l-0.301-0.048l-1.138,1.087c-4.615,4.415-8.616,8.242-14.14,11.773l-10.345-9.819
c-2.593-2.385-5.27-3.305-7.862-2.708l-0.224,0.103c-2.937,2.143-6.061,6.178-8.57,9.421c-1.284,1.658-2.392,3.084-3.235,3.959
l0.126-0.195l-1.027-0.669l-3.1,4.763l5.283-1.606l-0.356-1.173l-0.177,0.054l-0.078-0.117c4.56-3.06,7.617-2.502,9.687,2.004
c0.225,5.836,0.243,53.843,0.029,57.886l-3.671,2.361l12.696,13.961l0.434-0.268c5.947-3.67,9.695-7.941,12.858-12.01l0.329-0.424
l-3.634-3.705l0.101-54.484c0.456-0.835,3.159-5.54,6.459-6.149c0.312-0.058,0.633-0.087,0.953-0.087
c3.246,0,6.283,3.015,7.235,5.807c0.924,2.713,0.634,38.118,0.441,51.797l-5.252,7.24l12.034,12.549l13.606-12.906l-5.169-5.227
v-52.994c0.533-0.794,3.179-4.577,5.78-5.494c0.521-0.183,1.028-0.275,1.508-0.275c2.748,0,4.646,3.093,6.32,5.823
c0.34,0.556,0.672,1.097,1.003,1.6c-0.004,1.433-0.018,3.779-0.035,6.806c-0.074,12.378-0.209,35.421-0.022,54.571l0.002,0.193
l4.19,5.812l0.102,0.109c1.618,1.371,3.465,2.066,5.488,2.066c8.636,0,18.298-12.893,18.52-15.602l0.087-1.076l-0.969,0.477
C494.275,329.789,490.345,330.875,489.43,331.121z"/>
<path d="M1052.519,328.174l-0.616-0.021l-0.167,0.119c-1.425,0.996-2.905,1.525-4.282,1.525c-2.285,0-4.195-1.416-5.39-3.992
l-0.134-59.613c6.794-5.865,6.698-6.122,6.525-6.585c-0.093-0.251-0.329-0.414-0.602-0.414l-0.229,0.029l-0.115,0.049
c-2.379,1.02-4.634,2.673-5.281,3.164c-3.555-0.164-6.492-2.341-9.597-4.643c-1.825-1.352-3.71-2.75-5.805-3.795l-0.343-0.172
l-17.317,13.342l-8.16-10.197c-2.338-2.604-3.777-3.766-6.124-3.766c-0.593,0-1.253,0.078-2.018,0.238l-0.172,0.036l-0.126,0.121
c-2.022,1.931-3.838,4.345-5.596,6.679c-2.129,2.832-4.141,5.505-6.13,6.749l0.45,1.119c0.013-0.002,1.283-0.264,2.964-0.264
c2.889,0,6.612,0.744,8.027,4.271l0.19,54.716l-5.084,5.176l0.349,0.426c4.17,5.072,8.555,10.047,12.387,12.074l0.362,0.191
l0.315-0.26c3.942-3.246,10.609-9.59,12.817-13.764l0.529-0.998l-1.127,0.104c-2.217,0.205-4.61-2.539-5.388-4.025l0.06-51.291
c1.257-3.588,5.179-6.261,8.428-7.562c0.539-0.19,1.086-0.287,1.627-0.287c2.892,0,5.453,2.699,7.722,5.151v58.151l1.201,4.648
l0.05,0.131c1.08,2.039,5.053,8.74,10.855,9.352l0.276,0.027l0.203-0.184c15.219-13.926,14.873-14.863,14.707-15.314
L1052.519,328.174z"/>
<path d="M1112.429,250.838c-1.169,0-2.221-0.113-2.597-0.159c-9.063-6.574-18.074-13.79-26.786-20.768
c-6.876-5.506-13.984-11.199-21.125-16.584l-0.063-0.26h-0.274l-1.217-0.96l0.371,1.525l-0.099,0.264l0.145,0.108
c0.052,1.569,0.096,9.97,0.114,15.626l0.001,0.25l0.174,0.178c3.979,4.054,9.263,7.99,14.373,11.796
c6.257,4.661,12.182,9.074,15.497,13.436c-3.91,1.674-23.017,9.829-33.093,13.609l-1.074,0.404l0.935,0.669
c0.198,0.143,0.399,0.282,0.6,0.418c1.405,0.967,2.514,1.73,2.451,3.574c0.028,17,0.065,49.243,0.003,50.768
c-0.596,2.377-2.806,2.986-2.896,3.01l-1.463,0.373l1.309,0.752c3.621,2.086,7.13,4.869,10.521,7.559
c3.864,3.066,7.859,6.236,12.054,8.396l0.304,0.156l0.291-0.176c3.057-1.832,6.074-3.936,8.993-5.971
c7.24-5.045,14.726-10.264,23.374-11.76l1.718-0.297l-1.525-0.844c-0.03-0.018-3.088-1.738-3.097-4.451
c-0.004-3.107,0.061-56.735,0.054-56.817c-0.613-4.582,3.032-10.546,5.047-13.06l1.087-1.356l-1.696,0.374
C1114.187,250.765,1113.376,250.838,1112.429,250.838z M1078.225,301.672c0.041-15.401,0.09-32.766,0.038-36.219l0.729-0.362
c3.459-1.726,11.559-5.767,14.435-5.767c0.216,0,0.349,0.024,0.431,0.049v72.156c-0.185,0.072-0.414,0.109-0.683,0.109
c-3.56,0-11.514-5.883-14.991-9.836C1078.178,318.557,1078.199,310.621,1078.225,301.672z"/>
<path d="M542.655,275.789c-2.863-5.884-5.824-11.969-8.678-21.951l-0.188-0.654l-31.878,12.856l0.152,0.531
c0.409,1.43,0.973,2.891,2.059,2.891c0.383,0,0.694-0.187,0.948-0.405l0.088,57.735l-2.38,4.361l0.503,0.303
c2.708,1.629,5.374,3.324,7.953,4.963c4.864,3.092,9.458,6.014,14.304,8.529l0.357,0.186l0.312-0.254
c0.602-0.488,14.751-12,16.677-14.049l0.279-0.297l-0.32-0.738h-0.403c-0.2,0-0.2,0-1.766,1.023l-3.75,2.453
c-1.273,0.477-2.467,0.609-3.554,0.389c-0.71-0.402-1.463-0.787-2.236-1.184c-3.333-1.705-7.109-3.637-9.364-8.131
c-0.346-0.66-0.494-3.805-0.443-9.348l0.006-0.721c2.71-4.539,9.491-9.283,16.667-14.303c3.748-2.623,7.625-5.336,10.905-8.041
l0.317-0.262l-0.122-0.393C547.179,285.084,544.981,280.569,542.655,275.789z M534.777,297.406l-13.439,10.508
c-0.361-15.686-0.692-37.861-0.32-43.033C523.153,268.54,529.326,283.37,534.777,297.406z"/>
<path d="M973.134,275.789c-2.861-5.884-5.822-11.969-8.678-21.95l-0.187-0.654l-31.878,12.856l0.152,0.531
c0.408,1.43,0.974,2.891,2.061,2.891c0.381,0,0.691-0.186,0.943-0.404l0.089,57.734l-2.375,4.361l0.503,0.303
c2.704,1.627,5.367,3.32,7.941,4.957c4.868,3.094,9.465,6.018,14.313,8.535l0.361,0.188l0.313-0.262
c10.547-8.789,14.59-12.16,16.1-13.57c0.016-0.012,0.03-0.025,0.046-0.037c0.187-0.156,0.338-0.283,0.518-0.416l-0.038-0.066
c0.39-0.418,0.354-0.521,0.3-0.666l-0.146-0.404h-0.43c-0.216,0-0.351,0.1-0.493,0.207c-0.121,0.094-0.288,0.23-0.494,0.402
c-1.238,1.031-4.141,3.443-7.146,3.443c-0.36,0-0.716-0.035-1.059-0.105c-0.71-0.402-1.463-0.787-2.237-1.184
c-3.331-1.705-7.107-3.637-9.362-8.131c-0.346-0.66-0.495-3.805-0.441-9.35l0.004-0.719c2.71-4.539,9.491-9.283,16.667-14.303
c3.749-2.623,7.624-5.336,10.905-8.041l0.317-0.262l-0.121-0.393C977.657,285.084,975.461,280.569,973.134,275.789z
 M965.257,297.406l-13.44,10.508c-0.359-15.686-0.691-37.86-0.317-43.033C953.634,268.542,959.807,283.371,965.257,297.406z"/>
<path d="M1144.304,314.279c2.711-4.539,9.494-9.285,16.671-14.307c3.748-2.621,7.623-5.332,10.903-8.037l0.317-0.262l-0.122-0.393
c-1.923-6.196-4.119-10.71-6.445-15.489c-2.863-5.886-5.824-11.971-8.679-21.954l-0.186-0.654l-0.748,0.3l-0.086-0.3
l-31.879,12.856l0.15,0.531c0.409,1.43,0.975,2.891,2.061,2.891c0.151,0,0.288-0.035,0.415-0.083
c0.131,0.051,0.27,0.083,0.417,0.083c0.04,0,0.076-0.01,0.114-0.014l0.089,57.344l-2.377,4.361l0.503,0.303
c2.706,1.627,5.37,3.322,7.945,4.959c4.867,3.094,9.463,6.016,14.309,8.533l0.361,0.188l0.314-0.262
c0.002-0.002,0.005-0.004,0.008-0.006c0.049,0.025,0.099,0.055,0.147,0.08l0.361,0.188l0.313-0.262
c10.562-8.799,14.604-12.168,16.107-13.574c0.016-0.012,0.031-0.023,0.046-0.037c0.186-0.154,0.333-0.279,0.512-0.412l-0.038-0.064
c0.392-0.42,0.354-0.523,0.303-0.668l-0.148-0.404h-0.431c-0.148,0-0.256,0.053-0.359,0.119l-0.043-0.119h-0.431
c-0.215,0-0.349,0.1-0.491,0.207c-0.12,0.092-0.287,0.23-0.492,0.4c-1.18,0.982-3.871,3.195-6.724,3.406
c-0.22-0.018-0.44-0.021-0.651-0.066c-0.71-0.402-1.464-0.787-2.237-1.184c-3.332-1.705-7.107-3.637-9.362-8.131
c-0.347-0.66-0.495-3.807-0.443-9.355L1144.304,314.279z M1156.916,297.406l-12.62,9.869c-0.327-14.465-0.624-34.046-0.379-40.955
C1146.523,271.512,1152.008,284.767,1156.916,297.406z"/>
</svg>
