<svg xmlns="http://www.w3.org/2000/svg" width="495" height="495" viewBox="0 0 495 495">
  <g fill="none" fill-rule="evenodd">
    <circle cx="247.5" cy="247.5" r="247.5" fill="#D8E4EE"/>
    <rect width="11" height="214" x="242" y="141" fill="#FFFFFF" transform="rotate(-45 247.5 248)"/>
    <rect width="11" height="214" x="242" y="141" fill="#FFFFFF" transform="rotate(-135 247.5 248)"/>
    <circle cx="248" cy="248" r="60" fill="#FFFFFF"/>
    <g transform="translate(204 204)">
      <path fill="#000000" d="M44.124183,86.2810458 L42.794792,86.2810458 L2.24836601,45.7431236 L2.24836601,43.7494553 L23.5186223,22.4836601 L44.124183,22.4836601 L44.124183,86.2810458 Z M44.124183,86.2810458 L44.124183,22.4836601 L64.7297437,22.4836601 L86,43.7494553 L86,45.7431236 L45.453574,86.2810458 L44.124183,86.2810458 Z"/>
      <polygon fill="#FFFFFF" points="44.265 26.418 60.987 43.562 27.542 43.562"/>
      <polygon fill="#FFFFFF" points="18.971 34.569 29.791 45.529 8.15 45.529" transform="rotate(135 18.97 40.049)"/>
      <polygon fill="#FFFFFF" points="68.575 34.569 79.255 45.529 57.895 45.529" transform="rotate(-135 68.575 40.049)"/>
      <polygon fill="#FFFFFF" points="58.739 25.294 69.418 36.255 48.059 36.255" transform="rotate(45 58.739 30.775)"/>
      <polygon fill="#FFFFFF" points="28.807 25.294 39.627 36.255 17.987 36.255" transform="rotate(-45 28.807 30.775)"/>
      <polygon fill="#FFFFFF" points="43.984 45.81 61.268 80.379 26.699 80.379" transform="matrix(1 0 0 -1 0 126.19)"/>
      <polygon fill="#FFFFFF" points="24.08 45.81 8.15 45.81 39.346 76.444"/>
      <polygon fill="#FFFFFF" points="64.832 45.81 48.902 45.81 80.098 76.444" transform="matrix(-1 0 0 1 129 0)"/>
      <path fill="#D7E3EE" d="M11.2418301 9.32655531L11.2418301 8.66037279C16.0248219 8.66037279 19.9022029 4.78299182 19.9022029 0L20.5683854 0C20.5683854 4.78299182 24.4457663 8.66037279 29.2287582 8.66037279L29.2287582 9.32655531C24.4457663 9.32655531 20.5683854 13.2039363 20.5683854 17.9869281L19.9022029 17.9869281C19.9022029 13.2039363 16.0248219 9.32655531 11.2418301 9.32655531zM0 23.8888889L0 23.3267974C4.03564935 23.3267974 7.30718954 20.0552572 7.30718954 16.0196078L7.86928105 16.0196078C7.86928105 20.0552572 11.1408212 23.3267974 15.1764706 23.3267974L15.1764706 23.8888889C11.1408212 23.8888889 7.86928105 27.1604291 7.86928105 31.1960784L7.30718954 31.1960784C7.30718954 27.1604291 4.03564935 23.8888889 0 23.8888889zM33.4444444 14.0835149L33.4444444 13.7400145C35.9106746 13.7400145 37.9099492 11.74074 37.9099492 9.2745098L38.2534495 9.2745098C38.2534495 11.74074 40.2527241 13.7400145 42.7189542 13.7400145L42.7189542 14.0835149C40.2527241 14.0835149 38.2534495 16.0827895 38.2534495 18.5490196L37.9099492 18.5490196C37.9099492 16.0827895 35.9106746 14.0835149 33.4444444 14.0835149z"/>
    </g>
    <g transform="translate(78 298)">
      <circle cx="60" cy="60" r="60" fill="#FFFFFF"/>
      <g transform="translate(17 12)">
        <g transform="translate(28 68)">
          <path fill="#EEBBA6" d="M15.3608247,40 C20.4769824,40 23.910162,40.1315841 23.910162,24.4410309 C23.910162,8.75047768 19.7626967,14.8079877 14.646539,14.8079877 C9.53038133,14.8079877 6.09720177,8.75047768 6.09720177,24.4410309 C6.09720177,40.1315841 10.244667,40 15.3608247,40 Z"/>
          <ellipse cx="15" cy="15.556" fill="#000000" fill-opacity=".07" rx="15" ry="15.556"/>
        </g>
        <ellipse cx="43.637" cy="39.742" fill="#703F14" rx="39.233" ry="39.723"/>
        <ellipse cx="79.442" cy="56.606" fill="#EEBBA6" rx="8.392" ry="8.496"/>
        <ellipse cx="8.392" cy="56.606" fill="#EEBBA6" rx="8.392" ry="8.496"/>
        <path fill="#EEBBA7" d="M11.7484536,34.5148978 C11.7484536,34.5148978 14.6358502,31.6827312 42.5182131,31.6827312 C70.4005759,31.6827312 75.5257732,34.5148978 75.5257732,34.5148978 L77.3992581,64.3228557 C78.5273915,82.2719484 64.8601896,96.8225631 46.8799808,96.8225631 L40.9536962,96.8225631 C22.9702313,96.8225631 9.17663077,82.2535183 10.1438376,64.3000572 L11.7484536,34.5148978 Z"/>
        <g transform="rotate(8 -357.579 189.518)">
          <path fill="#FFFFFF" d="M7.36491791,10.8304781 C10.9215727,10.8304781 13.804811,9.42365466 13.804811,6.36673723 C13.804811,3.30981979 10.9215727,0.831698584 7.36491791,0.831698584 C3.80826316,0.831698584 0.925024819,3.30981979 0.925024819,6.36673723 C0.925024819,9.42365466 3.80826316,10.8304781 7.36491791,10.8304781 Z" transform="rotate(-5 7.365 5.831)"/>
          <ellipse cx="7.699" cy="6.182" fill="#97C7FF" rx="4.098" ry="4.204"/>
          <ellipse cx="7.699" cy="6.182" fill="#4A4A4A" rx="2.648" ry="2.716"/>
          <ellipse cx="8.8" cy="5.183" fill="#FFFFFF" rx="1" ry="1"/>
        </g>
        <path fill="#D69964" fill-rule="nonzero" d="M31.8214081,48.108148 C27.8666321,47.5358054 24.5175501,48.214365 21.8235894,50.1637403 C21.4045567,50.4669563 21.3075015,51.0568887 21.6068106,51.4813912 C21.9061197,51.9058936 22.4884508,52.0042157 22.9074836,51.7009997 C25.1863283,50.0520062 28.0532531,49.4711367 31.5576853,49.9783047 C32.0674607,50.0520804 32.5397516,49.6932385 32.6125766,49.176809 C32.6854017,48.6603795 32.3311835,48.1819236 31.8214081,48.108148 Z"/>
        <g transform="rotate(-8 408.177 -324.353)">
          <path fill="#FFFFFF" d="M7.56819065,10.8304781 C11.1717888,10.8304781 14.0930823,9.42365466 14.0930823,6.36673723 C14.0930823,3.30981979 11.1717888,0.831698584 7.56819065,0.831698584 C3.96459248,0.831698584 1.04329897,3.30981979 1.04329897,6.36673723 C1.04329897,9.42365466 3.96459248,10.8304781 7.56819065,10.8304781 Z" transform="rotate(5 7.568 5.831)"/>
          <ellipse cx="7.246" cy="6.182" fill="#97C7FF" rx="4.098" ry="4.204"/>
          <ellipse cx="7.246" cy="6.182" fill="#4A4A4A" rx="2.648" ry="2.716"/>
          <ellipse cx="8.067" cy="5.183" fill="#FFFFFF" rx="1" ry="1"/>
        </g>
        <path fill="#D69964" fill-rule="nonzero" d="M64.2110043,48.0276759 C60.2562283,47.4553332 56.9071463,48.1338929 54.2131856,50.0832681 C53.7941528,50.3864842 53.6970976,50.9764166 53.9964068,51.400919 C54.2957159,51.8254215 54.878047,51.9237436 55.2970798,51.6205275 C57.5759245,49.971534 60.4428493,49.3906646 63.9472815,49.8978326 C64.4570568,49.9716083 64.9293478,49.6127664 65.0021728,49.0963369 C65.0749979,48.5799073 64.7207797,48.1014515 64.2110043,48.0276759 Z" transform="matrix(-1 0 0 1 118.834 0)"/>
        <path fill="#D69965" fill-rule="nonzero" d="M39.9498689,70.9964358 C42.2157974,72.1984701 44.6811866,72.1984701 47.2994562,71.0086721 C47.521313,70.9078556 47.6155726,70.6543943 47.5099909,70.4425505 C47.4044093,70.2307066 47.138968,70.1407011 46.9171112,70.2415176 C44.5497162,71.3173129 42.3868632,71.3173129 40.3819717,70.253754 C40.1671923,70.1398173 39.8963497,70.2137084 39.7770278,70.4187944 C39.6577059,70.6238803 39.7350895,70.8824992 39.9498689,70.9964358 Z"/>
        <path stroke="#B87E4E" stroke-width="2" d="M34.1264605,78.6966968 C40.4701565,82.4729189 46.8105917,82.4729189 53.1477663,78.6966968" stroke-linecap="round"/>
        <polygon fill="#704015" points="43.633 40.725 37.4 28.137 49.867 28.137"/>
        <polygon fill="#704015" points="52.067 39.985 46.2 28.137 57.933 28.137"/>
        <polygon fill="#704015" points="59.4 39.244 53.533 27.397 65.267 27.397"/>
        <polygon fill="#704015" points="65.267 37.763 60.133 27.397 70.4 27.397"/>
        <polygon fill="#704015" points="22 37.763 16.867 27.397 27.133 27.397"/>
        <polygon fill="#704015" points="17.967 36.282 13.933 28.137 22 28.137"/>
        <polygon fill="#704015" points="69.3 36.282 65.267 28.137 73.333 28.137"/>
        <polygon fill="#704015" points="27.867 39.244 22 27.397 33.733 27.397"/>
        <polygon fill="#704015" points="35.2 39.985 29.333 28.137 41.067 28.137"/>
      </g>
    </g>
    <g transform="translate(298 78)">
      <circle cx="60" cy="60" r="60" fill="#FFFFFF"/>
      <g transform="translate(16 11)">
        <g transform="translate(29 69)">
          <path fill="#9D624B" d="M15.8728522,40 C21.1595485,40 24.7071674,40.1315841 24.7071674,24.4410309 C24.7071674,8.75047768 20.4214533,14.8079877 15.134757,14.8079877 C9.84806071,14.8079877 6.30044183,8.75047768 6.30044183,24.4410309 C6.30044183,40.1315841 10.5861559,40 15.8728522,40 Z"/>
          <ellipse cx="15.5" cy="15.556" fill="#000000" fill-opacity=".07" rx="15.5" ry="15.556"/>
        </g>
        <ellipse cx="43.637" cy="39.952" fill="#000000" rx="39.233" ry="39.932"/>
        <ellipse cx="79.442" cy="58.393" fill="#9D624B" rx="8.392" ry="8.541"/>
        <ellipse cx="8.392" cy="58.393" fill="#9D624B" rx="8.392" ry="8.541"/>
        <path fill="#9D624B" d="M11.7484536,36.1855445 C11.7484536,36.1855445 14.6358502,33.3384498 42.5182131,33.3384498 C70.4005759,33.3384498 75.5257732,36.1855445 75.5257732,36.1855445 L77.3992581,66.1506174 C78.5273915,84.1943182 64.7849106,98.8216278 46.6983758,98.8216278 L41.1353012,98.8216278 C23.0515386,98.8216278 9.17663077,84.1757909 10.1438376,66.1276988 L11.7484536,36.1855445 Z"/>
        <g transform="rotate(8 -370.203 190.432)">
          <path fill="#FFFFFF" d="M7.36491791,10.8875645 C10.9215727,10.8875645 13.804811,9.47332589 13.804811,6.40029572 C13.804811,3.32726555 10.9215727,0.836082392 7.36491791,0.836082392 C3.80826316,0.836082392 0.925024819,3.32726555 0.925024819,6.40029572 C0.925024819,9.47332589 3.80826316,10.8875645 7.36491791,10.8875645 Z" transform="rotate(-5 7.365 5.862)"/>
          <ellipse cx="7.699" cy="6.215" fill="#97C7FF" rx="4.098" ry="4.226"/>
          <ellipse cx="7.699" cy="6.215" fill="#4A4A4A" rx="2.648" ry="2.731"/>
          <ellipse cx="8.8" cy="5.211" fill="#FFFFFF" rx="1" ry="1"/>
        </g>
        <path fill="#000000" fill-rule="nonzero" d="M31.8214081,49.8504435 C27.8666321,49.2750841 24.5175501,49.9572203 21.8235894,51.9168706 C21.4045567,52.2216849 21.3075015,52.8147268 21.6068106,53.2414667 C21.9061197,53.6682067 22.4884508,53.767047 22.9074836,53.4622327 C25.1863283,51.8045476 28.0532531,51.2206164 31.5576853,51.7304577 C32.0674607,51.8046222 32.5397516,51.4438889 32.6125766,50.9247373 C32.6854017,50.4055857 32.3311835,49.924608 31.8214081,49.8504435 Z"/>
        <g transform="rotate(-8 420.8 -323.44)">
          <path fill="#FFFFFF" d="M7.56819065,10.8875645 C11.1717888,10.8875645 14.0930823,9.47332589 14.0930823,6.40029572 C14.0930823,3.32726555 11.1717888,0.836082392 7.56819065,0.836082392 C3.96459248,0.836082392 1.04329897,3.32726555 1.04329897,6.40029572 C1.04329897,9.47332589 3.96459248,10.8875645 7.56819065,10.8875645 Z" transform="rotate(5 7.568 5.862)"/>
          <ellipse cx="7.246" cy="6.215" fill="#97C7FF" rx="4.098" ry="4.226"/>
          <ellipse cx="7.246" cy="6.215" fill="#4A4A4A" rx="2.648" ry="2.731"/>
          <ellipse cx="8.067" cy="5.211" fill="#FFFFFF" rx="1" ry="1"/>
        </g>
        <path fill="#000000" fill-rule="nonzero" d="M64.2110043,49.7695472 C60.2562283,49.1941878 56.9071463,49.8763241 54.2131856,51.8359743 C53.7941528,52.1407886 53.6970976,52.7338305 53.9964068,53.1605704 C54.2957159,53.5873104 54.878047,53.6861507 55.2970798,53.3813364 C57.5759245,51.7236513 60.4428493,51.1397201 63.9472815,51.6495614 C64.4570568,51.7237259 64.9293478,51.3629926 65.0021728,50.843841 C65.0749979,50.3246894 64.7207797,49.8437117 64.2110043,49.7695472 Z" transform="matrix(-1 0 0 1 118.834 0)"/>
        <path fill="#000000" fill-rule="nonzero" d="M39.9498689,72.8593734 C42.2157974,74.0677435 44.6811866,74.0677435 47.2994562,72.8716742 C47.521313,72.7703263 47.6155726,72.515529 47.5099909,72.3025686 C47.4044093,72.0896081 47.138968,71.9991282 46.9171112,72.1004761 C44.5497162,73.1819418 42.3868632,73.1819418 40.3819717,72.1127769 C40.1671923,71.9982398 39.8963497,72.0725203 39.7770278,72.2786872 C39.6577059,72.4848542 39.7350895,72.7448362 39.9498689,72.8593734 Z"/>
        <path stroke="#E396A0" stroke-width="3" d="M34.1264605,83.5776654 C40.4701565,87.3737916 46.8105917,87.3737916 53.1477663,83.5776654" stroke-linecap="round"/>
      </g>
    </g>
    <g transform="translate(78 78)">
      <circle cx="60" cy="60" r="60" fill="#FFFFFF"/>
      <g transform="translate(17 4)">
        <path fill="#FED0BE" d="M42.3608929,115.956676 C47.5307713,115.956676 51,117.446214 51,102.957236 C51,88.468258 46.8089855,94.0618868 41.6391071,94.0618868 C36.4692287,94.0618868 33,89.8362883 33,102.957236 C33,116.078184 37.1910145,115.956676 42.3608929,115.956676 Z"/>
        <circle cx="42" cy="95" r="15" fill="#000000" fill-opacity=".07"/>
        <path fill="#FEB100" d="M76.4536082,0.534040518 C77.368621,0.562493387 94.5051546,-1.06808104 94.5051546,21.8956612 C94.5051546,44.8594035 93.443299,74.7656726 103,110.546387 C103,110.546387 79.6391753,88.650726 59.9948454,49.1317277 L59.9948454,20.8225425 C59.9948454,20.8225425 59.1134443,-0.00516224877 76.4536082,0.534040518 Z"/>
        <ellipse cx="64.773" cy="19.759" fill="#D0011B" rx="11.149" ry="11.215"/>
        <ellipse cx="41.412" cy="50.734" fill="#FEC400" rx="41.412" ry="41.655"/>
        <ellipse cx="75.392" cy="69.425" fill="#FBCAB7" rx="7.964" ry="8.011"/>
        <ellipse cx="7.964" cy="69.425" fill="#FBCAB7" rx="7.964" ry="8.011"/>
        <path fill="#FED0BE" d="M11.1494845,48.5976872 C11.1494845,48.5976872 13.8896736,45.9274846 40.3505155,45.9274846 C66.8113573,45.9274846 71.6752577,48.5976872 71.6752577,48.5976872 L73.4532271,76.7010079 C74.5238452,93.6236402 61.645107,107.342144 44.6867945,107.342144 L38.6688756,107.342144 C21.7109955,107.342144 8.70878043,93.606264 9.62667637,76.6795132 L11.1494845,48.5976872 Z"/>
        <path fill="#FFFFFF" d="M27.8678121,75.8337536 C31.2431387,75.8337536 33.9793814,74.5073826 33.9793814,71.6252821 C33.9793814,68.7431816 31.2431387,66.4067775 27.8678121,66.4067775 C24.4924856,66.4067775 21.7562428,68.7431816 21.7562428,71.6252821 C21.7562428,74.5073826 24.4924856,75.8337536 27.8678121,75.8337536 Z" transform="rotate(-5 27.868 71.12)"/>
        <ellipse cx="28.185" cy="71.451" fill="#97C7FF" rx="3.889" ry="3.963"/>
        <ellipse cx="28.185" cy="71.451" fill="#4A4A4A" rx="2.513" ry="2.561"/>
        <ellipse cx="29.23" cy="70.509" fill="#FFFFFF" rx="1" ry="1"/>
        <path fill="#D69964" fill-rule="nonzero" d="M30.1990636,61.4135758 C26.4459132,60.873964 23.2675767,61.5137186 20.7109617,63.3516143 C20.3132924,63.6374902 20.2211854,64.193686 20.5052349,64.5939123 C20.7892844,64.9941386 21.3419266,65.0868379 21.7395959,64.8009619 C23.9022588,63.24627 26.6230197,62.6986189 29.9487861,63.1767833 C30.4325717,63.2463399 30.8807839,62.9080193 30.9498961,62.421123 C31.0190084,61.9342267 30.6828492,61.4831324 30.1990636,61.4135758 Z"/>
        <path fill="#FFFFFF" d="M54.5066674,75.8337536 C57.9265441,75.8337536 60.6989018,74.5073826 60.6989018,71.6252821 C60.6989018,68.7431816 57.9265441,66.4067775 54.5066674,66.4067775 C51.0867908,66.4067775 48.314433,68.7431816 48.314433,71.6252821 C48.314433,74.5073826 51.0867908,75.8337536 54.5066674,75.8337536 Z" transform="rotate(5 54.507 71.12)"/>
        <ellipse cx="54.201" cy="71.451" fill="#97C7FF" rx="3.889" ry="3.963"/>
        <ellipse cx="54.201" cy="71.451" fill="#4A4A4A" rx="2.513" ry="2.561"/>
        <ellipse cx="54.98" cy="70.509" fill="#FFFFFF" rx="1" ry="1"/>
        <path fill="#D69964" fill-rule="nonzero" d="M60.9373475,61.3377057 C57.184197,60.7980938 54.0058606,61.4378484 51.4492455,63.2757442 C51.0515763,63.5616201 50.9594692,64.1178158 51.2435187,64.5180421 C51.5275682,64.9182684 52.0802105,65.0109677 52.4778798,64.7250918 C54.6405426,63.1703998 57.3613036,62.6227488 60.68707,63.1009132 C61.1708555,63.1704698 61.6190678,62.8321491 61.68818,62.3452528 C61.7572922,61.8583565 61.421133,61.4072623 60.9373475,61.3377057 Z" transform="matrix(-1 0 0 1 112.776 0)"/>
        <path fill="#D69965" fill-rule="nonzero" d="M37.9131127,82.9929438 C40.0635178,84.1262371 42.4032146,84.1262371 44.8879974,83.0044804 C45.0985433,82.9094293 45.1879973,82.6704628 45.0877985,82.4707337 C44.9875997,82.2710046 44.7356914,82.1861463 44.5251455,82.2811974 C42.2784469,83.2954708 40.2258622,83.2954708 38.3231857,82.292734 C38.1193563,82.1853131 37.862322,82.2549786 37.7490835,82.4483362 C37.635845,82.6416938 37.7092833,82.8855229 37.9131127,82.9929438 Z"/>
        <path stroke="#FA6174" stroke-width="4" d="M32.3865979,90.2528476 C38.4068745,93.8131177 44.4240567,93.8131177 50.4381443,90.2528476" stroke-linecap="round"/>
        <path fill="#FEC400" d="M34.8939955 44.325363C34.1860917 48.2416601 32.2393563 51.0898762 29.0537893 52.8700113 24.2754388 55.5402139 39.672346 52.3359708 41.7960574 44.325363L34.8939955 44.325363zM45.088208 44.325363C44.6090525 46.976169 43.2913746 48.904028 41.1351745 50.1089398 37.9008744 51.9163075 48.3225082 49.7474663 49.7599749 44.325363L45.088208 44.325363z"/>
      </g>
    </g>
    <g transform="translate(298 298)">
      <circle cx="60" cy="60" r="60" fill="#FFFFFF"/>
      <g transform="translate(17 10)">
        <path fill="#FED0BE" d="M44.3608929,109.956366 C49.5307713,109.956366 53,111.576377 53,95.0743347 C53,78.5722928 48.8089855,85.3998147 43.6391071,85.3998147 C38.4692287,85.3998147 35,80.0601531 35,95.0743347 C35,110.088516 39.1910145,109.956366 44.3608929,109.956366 Z"/>
        <circle cx="43" cy="85" r="15" fill="#000000" fill-opacity=".07"/>
        <ellipse cx="43.267" cy="44.087" fill="#000000" rx="41.067" ry="44.083"/>
        <rect width="82.133" height="51.716" x="2.2" y="43.59" fill="#000000"/>
        <ellipse cx="79.442" cy="58.696" fill="#FBCAB7" rx="8.392" ry="8.478"/>
        <ellipse cx="8.392" cy="58.696" fill="#FBCAB7" rx="8.392" ry="8.478"/>
        <path fill="#FED0BE" d="M11.7484536,36.6543091 C11.7484536,36.6543091 14.6358502,33.8284614 42.5182131,33.8284614 C70.4005759,33.8284614 75.5257732,36.6543091 75.5257732,36.6543091 L77.3992581,66.3957621 C78.5273915,84.3048084 64.8924123,98.8229589 46.9448232,98.8229589 L40.8888538,98.8229589 C22.9412004,98.8229589 9.17663077,84.2864194 10.1438376,66.3730145 L11.7484536,36.6543091 Z"/>
        <path fill="#FFFFFF" d="M29.3649179,65.4779558 C32.9215727,65.4779558 35.804811,64.0742712 35.804811,61.0241741 C35.804811,57.974077 32.9215727,55.5014848 29.3649179,55.5014848 C25.8082632,55.5014848 22.9250248,57.974077 22.9250248,61.0241741 C22.9250248,64.0742712 25.8082632,65.4779558 29.3649179,65.4779558 Z" transform="rotate(-5 29.365 60.49)"/>
        <ellipse cx="29.699" cy="60.84" fill="#97C7FF" rx="4.098" ry="4.194"/>
        <ellipse cx="29.699" cy="60.84" fill="#4A4A4A" rx="2.648" ry="2.71"/>
        <ellipse cx="30.8" cy="59.843" fill="#FFFFFF" rx="1" ry="1"/>
        <path fill="#D69964" fill-rule="nonzero" d="M31.8214081,50.2172312 C27.8666321,49.6461656 24.5175501,50.3232112 21.8235894,52.2682372 C21.4045567,52.5707768 21.3075015,53.159393 21.6068106,53.5829483 C21.9061197,54.0065037 22.4884508,54.1046064 22.9074836,53.8020668 C25.1863283,52.1567524 28.0532531,51.577179 31.5576853,52.0832154 C32.0674607,52.1568265 32.5397516,51.7987852 32.6125766,51.2835079 C32.6854017,50.7682306 32.3311835,50.2908423 31.8214081,50.2172312 Z"/>
        <path fill="#FFFFFF" d="M57.4348573,65.4779558 C61.0384555,65.4779558 63.959749,64.0742712 63.959749,61.0241741 C63.959749,57.974077 61.0384555,55.5014848 57.4348573,55.5014848 C53.8312591,55.5014848 50.9099656,57.974077 50.9099656,61.0241741 C50.9099656,64.0742712 53.8312591,65.4779558 57.4348573,65.4779558 Z" transform="rotate(5 57.435 60.49)"/>
        <ellipse cx="57.112" cy="60.84" fill="#97C7FF" rx="4.098" ry="4.194"/>
        <ellipse cx="57.112" cy="60.84" fill="#4A4A4A" rx="2.648" ry="2.71"/>
        <ellipse cx="57.933" cy="59.843" fill="#FFFFFF" rx="1" ry="1"/>
        <path fill="#D69964" fill-rule="nonzero" d="M64.2110043,50.1369386 C60.2562283,49.565873 56.9071463,50.2429186 54.2131856,52.1879447 C53.7941528,52.4904842 53.6970976,53.0791004 53.9964068,53.5026557 C54.2957159,53.9262111 54.878047,54.0243138 55.2970798,53.7217742 C57.5759245,52.0764598 60.4428493,51.4968864 63.9472815,52.0029228 C64.4570568,52.0765339 64.9293478,51.7184926 65.0021728,51.2032153 C65.0749979,50.687938 64.7207797,50.2105497 64.2110043,50.1369386 Z" transform="matrix(-1 0 0 1 118.834 0)"/>
        <path fill="#D69965" fill-rule="nonzero" d="M39.9498689,73.0544527 C42.2157974,74.2538051 44.6811866,74.2538051 47.2994562,73.0666617 C47.521313,72.9660701 47.6155726,72.7131743 47.5099909,72.5018031 C47.4044093,72.2904319 47.138968,72.2006272 46.9171112,72.3012188 C44.5497162,73.3746138 42.3868632,73.3746138 40.3819717,72.3134278 C40.1671923,72.1997454 39.8963497,72.2734717 39.7770278,72.4781 C39.6577059,72.6827284 39.7350895,72.9407702 39.9498689,73.0544527 Z"/>
        <path stroke="#FA6174" stroke-width="4" d="M34.1264605,80.7375335 C40.4701565,84.5053305 46.8105917,84.5053305 53.1477663,80.7375335" stroke-linecap="round"/>
        <g fill="#000000" transform="matrix(-1 0 0 1 48.4 31.769)">
          <path d="M7.43522635.364296031C6.68929278 4.50887269 4.63797549 7.52311026 1.28127446 9.40700874-3.75377709 12.2328565 12.4702779 8.84183919 14.7080786.364296031L7.43522635.364296031zM18.1770891.364296031C17.6721925 3.16961657 16.2837268 5.20984969 14.011692 6.48499539 10.6036398 8.39771394 21.5851413 6.10245168 23.0998312.364296031L18.1770891.364296031z"/>
        </g>
      </g>
    </g>
  </g>
</svg>
