<svg xmlns="http://www.w3.org/2000/svg" width="403" height="403" viewBox="0 0 403 403" xmlns:xlink="http://www.w3.org/1999/xlink">
  <defs>
    <path id="a" d="M72.2165947,123 L144.783405,123 L144.783405,123 C146.44026,123 147.783405,124.343146 147.783405,126 C147.783405,126.069662 147.780979,126.139302 147.776131,126.208795 L142.194735,206.208795 L142.194735,206.208795 C142.085061,207.780799 140.777835,209 139.20201,209 L77.7979901,209 L77.7979901,209 C76.2221649,209 74.9149394,207.780799 74.8052648,206.208795 L69.2238694,126.208795 L69.2238694,126.208795 C69.1085552,124.555958 70.3549634,123.122589 72.0077999,123.007275 C72.0772926,123.002426 72.1469331,123 72.2165947,123 Z"/>
    <filter id="b" width="102.5%" height="102.3%" x="-1.3%" y="-1.2%" filterUnits="objectBoundingBox">
      <feOffset dy="2" in="SourceAlpha" result="shadowOffsetInner1"/>
      <feComposite in="shadowOffsetInner1" in2="SourceAlpha" operator="arithmetic" k2="-1" k3="1" result="shadowInnerInner1"/>
      <feColorMatrix values="0 0 0 0 0 0 0 0 0 0 0 0 0 0 0 0 0 0 0.1 0" in="shadowInnerInner1"/>
    </filter>
    <path id="c" d="M36.9739106,151.690572 C51.0131897,162.203424 68.4475395,168.430213 87.3362338,168.430213 C133.785468,168.430213 171.440012,130.775669 171.440012,84.3264348 C171.440012,37.8772005 133.785468,0.22265625 87.3362338,0.22265625 C40.8869995,0.22265625 3.23245528,37.8772005 3.23245528,84.3264348 C3.23245528,101.497021 8.37799036,117.465804 17.2112071,130.774929 L0.960155108,167.588537 L36.9739106,151.690572 L36.9739106,151.690572 Z"/>
    <rect id="d" width="102" height="21" y="16"/>
    <rect id="e" width="102" height="21" y="16"/>
  </defs>
  <g fill="none" fill-rule="evenodd">
    <circle cx="201.5" cy="201.5" r="201.5" fill="#C3ADAD"/>
    <g transform="translate(35 160)">
      <path fill="#66B7E7" d="M108.779581,235 C79.5931935,225 59.0845718,214.406733 47.2537155,203.2202 C52.8842887,158.175614 62.7760085,97.3921747 59.9607219,100.207461 C58.0838641,102.084319 51.8768577,102.876858 50,101 C46.6698514,101 40.2537155,93 35,88 C31.7363729,84.8939819 31.1231423,83.3157416 33,77.6851683 C38.6101404,55.2446068 67.2913152,45.8468692 110.166667,49.4919554 C153.042018,45.8468692 178.38986,56.5594385 184,79 C185.876858,84.6305732 186.753715,88.1231423 183,90 C177.369427,92.8152866 170.003185,102.207461 170.003185,102.207461 C168.126327,104.084319 162.249469,102.084319 160.372611,100.207461 C157.557325,97.3921747 174.449045,197.175614 180.079618,242.2202 C142,246 108.935562,235.000242 108.779581,235 Z"/>
      <circle cx="108.5" cy="107.5" r="5.5" fill="#3083B4"/>
      <circle cx="108.5" cy="138.5" r="5.5" fill="#3083B4"/>
      <circle cx="108.5" cy="169.5" r="5.5" fill="#3083B4"/>
      <use fill="#FEFEFE" xlink:href="#a"/>
      <use fill="black" filter="url(#b)" xlink:href="#a"/>
      <path fill="#EEEEEE" d="M109,165 C113.970563,165 118,162.355178 118,157.384615 C118,152.414053 113.970563,147 109,147 C104.029437,147 100,152.414053 100,157.384615 C100,162.355178 104.029437,165 109,165 Z" transform="rotate(-180 109 156)"/>
      <g fill="#FED0BE" transform="rotate(-16 339.346 46.635)">
        <path d="M34.792643,0.360052063 C12.8179538,13.1634956 1.24814264,28.3333333 0.0832095097,45.8695652 C-1.08172363,63.4057971 9.98514116,83.2801932 33.2838039,105.492754 C35.6136701,107.830918 39.1084695,109 43.7682021,109 L56,91.4637681 C49.0104012,90.294686 43.1857355,87.3719807 38.526003,82.6956522 C31.5364042,75.6811594 21.0520059,58.1449275 21.0520059,45.8695652 C21.0520059,37.6859903 29.3163529,28.4303184 45.8450468,18.1025494 L34.792643,0.360052063 Z"/>
        <path fill-rule="nonzero" d="M47.3551991,95.8899526 C46.7328123,95.2532286 46.3594178,94.37952 46.3837645,93.42263 C46.4321227,91.52203 48.0312954,90.0129901 49.9556167,90.0520949 C56.5026451,90.1851396 61.4327439,91.3164321 64.788152,93.632789 C66.3624598,94.7195894 66.7407544,96.8650045 65.6330965,98.4247078 C64.5254387,99.9844111 62.351276,100.367775 60.7769682,99.2809742 C59.0180396,98.0667236 56.0000244,97.2695556 51.7508256,97.0128811 C56.2713297,98.4654657 60.0842653,100.700026 63.1492433,103.724478 C64.5109129,105.068143 64.5109129,107.246655 63.1492433,108.59032 C61.7875736,109.933985 59.5798709,109.933985 58.2182013,108.59032 C55.2439977,105.655442 51.2187803,103.669445 46.0528169,102.649914 C44.1645209,102.277248 42.9399078,100.464617 43.317567,98.6012884 C43.6908752,96.7594276 45.4900131,95.5574707 47.3551991,95.8899526 Z M50.9803289,114.63888 C46.9368294,114.115062 42.5160696,111.656896 37.561655,107.374951 C36.1054393,106.116389 35.9267673,103.924898 37.1625798,102.480119 C38.3983922,101.03534 40.5807123,100.884381 42.0369279,102.142943 C46.0456097,105.607522 49.3450358,107.442169 51.778812,107.757454 C53.6759621,108.003222 55.0351596,109.742915 54.8146646,111.643168 C54.5941696,113.543421 52.877479,114.884647 50.9803289,114.63888 Z"/>
      </g>
      <g fill="#FED0BE" transform="scale(-1 1) rotate(-20 171.03 684.306)">
        <path d="M41.2941854,0.989028276 C14.9851346,15.3731544 1.24814264,31.3333333 0.0832095097,48.8695652 C-1.08172363,66.4057971 9.98514116,86.2801932 33.2838039,108.492754 C35.6136701,110.830918 39.1084695,112 43.7682021,112 L56,94.4637681 C49.0104012,93.294686 43.1857355,90.3719807 38.526003,85.6956522 C31.5364042,78.6811594 21.0520059,61.1449275 21.0520059,48.8695652 C21.0520059,40.6859903 30.768531,31.3483939 50.2015813,20.8567759 L41.2941854,0.989028276 Z"/>
        <path fill-rule="nonzero" d="M43.4502979,105.049339 C42.3585417,104.288314 41.7628962,102.93927 42.0419296,101.56255 C42.4152378,99.7206893 44.2143757,98.5187324 46.0795618,98.8512143 C45.4571749,98.2144903 45.0837804,97.3407817 45.1081272,96.3838917 C45.1564853,94.4832917 46.755658,92.9742518 48.6799793,93.0133566 C55.2270077,93.1464012 60.1571065,94.2776938 63.5125146,96.5940507 C65.0868224,97.6808511 65.465117,99.8262662 64.3574592,101.385969 C63.2498014,102.945673 61.0756386,103.329036 59.5013308,102.242236 C57.7424022,101.027985 54.724387,100.230817 50.4751883,99.9741428 C54.9956923,101.426727 58.808628,103.661288 61.8736059,106.68574 C63.2352756,108.029405 63.2352756,110.207916 61.8736059,111.551581 C60.5119363,112.895247 58.3042336,112.895247 56.9425639,111.551581 C54.1964491,108.841777 50.5543417,106.940896 45.9456111,105.86278 C48.9953889,106.984353 51.3983974,108.391382 53.1566729,110.126409 C54.5183425,111.470074 54.5183425,113.648586 53.1566729,114.992251 C51.7950032,116.335916 49.5873005,116.335916 48.2256309,114.992251 C46.4788007,113.268518 43.0017491,111.798057 37.8036331,110.77218 C35.9153371,110.399514 34.690724,108.586883 35.0683832,106.723555 C35.4460424,104.860226 37.2829621,103.651806 39.1712581,104.024471 C40.6971748,104.325619 42.1234805,104.666387 43.4502979,105.049339 Z"/>
      </g>
      <path fill="#FED0BE" d="M109.505155,69 C116.667775,69 121.474227,61.1776385 121.474227,32.9953917 C121.474227,4.81314487 115.667775,19.9907834 108.505155,19.9907834 C101.342534,19.9907834 96.5360825,6.81314487 96.5360825,32.9953917 C96.5360825,59.1776385 102.342534,69 109.505155,69 Z"/>
      <circle cx="109" cy="21" r="21" fill="#000000" fill-opacity=".07"/>
    </g>
    <g transform="translate(84 45)">
      <path fill="#FEB100" d="M109.85567,0.764976959 C111.170446,0.805733771 135.793814,-1.52995392 135.793814,31.3640553 C135.793814,64.2580645 134.268041,107.096774 148,158.35023 C148,158.35023 114.43299,126.986175 86.2061856,70.3778802 L86.2061856,29.8268853 C86.2061856,29.8268853 84.9397064,-0.00739457256 109.85567,0.764976959 Z"/>
      <ellipse cx="93.072" cy="28.304" fill="#D0011B" rx="16.021" ry="16.065"/>
      <ellipse cx="59.505" cy="72.673" fill="#FEC400" rx="59.505" ry="59.668"/>
      <ellipse cx="108.33" cy="99.447" fill="#FBCAB7" rx="11.443" ry="11.475"/>
      <ellipse cx="11.443" cy="99.447" fill="#FBCAB7" rx="11.443" ry="11.475"/>
      <path fill="#FED0BE" d="M16.0206186,75.6129032 C16.0206186,75.6129032 19.9579776,71.7880184 57.9793814,71.7880184 C96.0007853,71.7880184 102.989691,75.6129032 102.989691,75.6129032 L105.53565,112.869946 C107.07887,135.453103 89.9781107,153.760369 67.3465858,153.760369 L52.4266101,153.760369 C29.7921523,153.760369 12.516477,135.43826 13.8400421,112.841356 L16.0206186,75.6129032 Z"/>
      <g transform="translate(29 97)">
        <path fill="#FFFFFF" d="M11.0430699,21.6267281 C15.8930536,21.6267281 19.8247423,19.7267913 19.8247423,15.5983771 C19.8247423,11.4699628 15.8930536,8.1232218 11.0430699,8.1232218 C6.19308613,8.1232218 2.26139748,11.4699628 2.26139748,15.5983771 C2.26139748,19.7267913 6.19308613,21.6267281 11.0430699,21.6267281 Z" transform="rotate(4 11.043 14.875)"/>
        <circle cx="13" cy="17" r="5" fill="#97C7FF"/>
        <circle cx="13.888" cy="17.68" r="3" fill="#4A4A4A"/>
        <circle cx="15" cy="17" r="1" fill="#FFFFFF"/>
        <path fill="#D69964" fill-rule="nonzero" d="M14.3928293,0.970797811 C8.9999529,0.197840255 4.43302289,1.11424552 0.759440117,3.74690698 C0.188031815,4.15640493 0.0556838281,4.95311776 0.463832615,5.52641489 C0.871981403,6.09971202 1.66606932,6.23249749 2.23747762,5.82299954 C5.34499319,3.59600835 9.25443611,2.81153518 14.0332072,3.49647342 C14.7283554,3.59610857 15.3723885,3.11148708 15.4716954,2.41404102 C15.5710023,1.71659496 15.0879775,1.07043296 14.3928293,0.970797811 Z"/>
      </g>
      <g transform="translate(62 96)">
        <path fill="#FFFFFF" d="M16.32026,22.6267281 C21.2342575,22.6267281 25.2178395,20.7267913 25.2178395,16.5983771 C25.2178395,12.4699628 21.2342575,9.1232218 16.32026,9.1232218 C11.4062625,9.1232218 7.42268041,12.4699628 7.42268041,16.5983771 C7.42268041,20.7267913 11.4062625,22.6267281 16.32026,22.6267281 Z" transform="rotate(-4 16.32 15.875)"/>
        <circle cx="14" cy="18" r="5" fill="#97C7FF"/>
        <circle cx="13.27" cy="18.68" r="3" fill="#4A4A4A"/>
        <circle cx="14" cy="18" r="1" fill="#FFFFFF"/>
        <ellipse cx="14.5" cy="11.5" fill="#FED0BE" transform="rotate(-11 14.5 11.5)" rx="13.5" ry="2.5"/>
        <path fill="#D69964" fill-rule="nonzero" d="M21.5604604,4.86211895 C16.167584,4.08916139 11.600654,5.00556666 7.92707126,7.63822812 C7.35566296,8.04772607 7.22331498,8.8444389 7.63146376,9.41773603 C8.03961255,9.99103316 8.83370047,10.1238186 9.40510877,9.71432068 C12.5126243,7.48732949 16.4220673,6.70285632 21.2008384,7.38779456 C21.8959866,7.48742971 22.5400197,7.00280822 22.6393266,6.30536216 C22.7386335,5.6079161 22.2556086,4.9617541 21.5604604,4.86211895 Z" transform="scale(1 -1) rotate(43 33.491 0)"/>
      </g>
      <path fill="#D69965" fill-rule="nonzero" d="M54.477094,128.881784 C57.5669964,130.50515 60.9288909,130.50515 64.4992584,128.89831 C64.8017904,128.762156 64.9303262,128.419852 64.7863513,128.133754 C64.6423763,127.847655 64.2804109,127.726102 63.977879,127.862256 C60.749613,129.315134 57.800268,129.315134 55.0663251,127.878781 C54.7734441,127.724908 54.4041132,127.824699 54.2414015,128.101671 C54.0786899,128.378642 54.184213,128.727911 54.477094,128.881784 Z"/>
      <circle cx="59.5" cy="140.5" r="4.5" fill="#F96174"/>
      <path fill="#FEC400" d="M50.138945 70.4930876C49.1217629 76.1029186 46.324512 80.1827957 41.7471924 82.7327189 34.8812131 86.5576037 57.0049244 81.9677419 60.0564708 70.4930876L50.138945 70.4930876zM64.7869397 70.4930876C64.0984443 74.2901881 62.205082 77.0517157 59.1068527 78.7776705 54.4595088 81.3666027 69.4342836 78.2598841 71.4997698 70.4930876L64.7869397 70.4930876z"/>
    </g>
    <g transform="translate(200 116)">
      <path fill="#000000" fill-opacity=".1" d="M42.5436973,157.260359 C56.5829764,167.773211 74.0173262,174 92.9060205,174 C139.355255,174 177.009799,136.345456 177.009799,89.8962215 C177.009799,43.4469872 139.355255,5.79244291 92.9060205,5.79244291 C46.4567862,5.79244291 8.80224194,43.4469872 8.80224194,89.8962215 C8.80224194,107.066808 13.947777,123.035591 22.7809938,136.344716 L6.52994177,173.158323 L42.5436973,157.260359 L42.5436973,157.260359 Z"/>
      <use fill="#FFFFFF" xlink:href="#c"/>
      <path stroke="#ADADAD" stroke-width="2" d="M2.91715913,165.631533 L37.1051336,150.539544 L37.5733045,150.890118 C51.8322364,161.56745 69.139056,167.430213 87.3362338,167.430213 C133.233183,167.430213 170.440012,130.223384 170.440012,84.3264348 C170.440012,38.4294853 133.233183,1.22265625 87.3362338,1.22265625 C41.4392843,1.22265625 4.23245528,38.4294853 4.23245528,84.3264348 C4.23245528,100.886236 9.08435866,116.721733 18.0443979,130.221943 L18.3470906,130.678014 L2.91715913,165.631533 Z"/>
      <g transform="translate(37 42)">
        <text fill="#000000" font-family="OpenSans-Bold, Open Sans" font-size="10" font-weight="bold">
          <tspan x="0" y="11">MOBILNUMMER:</tspan>
        </text>
        <use fill="#FFFFFF" xlink:href="#d"/>
        <rect width="100" height="19" x="1" y="17" stroke="#DFDFDF" stroke-width="2"/>
      </g>
      <g transform="translate(37 89)">
        <text fill="#000000" font-family="OpenSans-Bold, Open Sans" font-size="10" font-weight="bold">
          <tspan x="0" y="11">FØDSELSDATO:</tspan>
        </text>
        <use fill="#FFFFFF" xlink:href="#e"/>
        <rect width="100" height="19" x="1" y="17" stroke="#DFDFDF" stroke-width="2"/>
      </g>
    </g>
  </g>
</svg>
