<svg xmlns="http://www.w3.org/2000/svg" width="403" height="403" viewBox="0 0 403 403" xmlns:xlink="http://www.w3.org/1999/xlink">
  <defs>
    <path id="a" d="M72.2165947,123 L144.783405,123 L144.783405,123 C146.44026,123 147.783405,124.343146 147.783405,126 C147.783405,126.069662 147.780979,126.139302 147.776131,126.208795 L142.194735,206.208795 L142.194735,206.208795 C142.085061,207.780799 140.777835,209 139.20201,209 L77.7979901,209 L77.7979901,209 C76.2221649,209 74.9149394,207.780799 74.8052648,206.208795 L69.2238694,126.208795 L69.2238694,126.208795 C69.1085552,124.555958 70.3549634,123.122589 72.0077999,123.007275 C72.0772926,123.002426 72.1469331,123 72.2165947,123 Z"/>
    <filter id="b" width="102.5%" height="102.3%" x="-1.3%" y="-1.2%" filterUnits="objectBoundingBox">
      <feOffset dy="2" in="SourceAlpha" result="shadowOffsetInner1"/>
      <feComposite in="shadowOffsetInner1" in2="SourceAlpha" operator="arithmetic" k2="-1" k3="1" result="shadowInnerInner1"/>
      <feColorMatrix values="0 0 0 0 0 0 0 0 0 0 0 0 0 0 0 0 0 0 0.1 0" in="shadowInnerInner1"/>
    </filter>
    <rect id="c" width="102" height="21" y="13"/>
    <rect id="d" width="102" height="21" y="16"/>
  </defs>
  <g fill="none" fill-rule="evenodd">
    <circle cx="201.5" cy="201.5" r="201.5" fill="#C3ADAD"/>
    <g transform="translate(35 160)">
      <path fill="#66B7E7" d="M108.779581,235 C79.5931935,225 59.0845718,214.406733 47.2537155,203.2202 C52.8842887,158.175614 62.7760085,97.3921747 59.9607219,100.207461 C58.0838641,102.084319 51.8768577,102.876858 50,101 C46.6698514,101 40.2537155,93 35,88 C31.7363729,84.8939819 31.1231423,83.3157416 33,77.6851683 C38.6101404,55.2446068 67.2913152,45.8468692 110.166667,49.4919554 C153.042018,45.8468692 178.38986,56.5594385 184,79 C185.876858,84.6305732 186.753715,88.1231423 183,90 C177.369427,92.8152866 170.003185,102.207461 170.003185,102.207461 C168.126327,104.084319 162.249469,102.084319 160.372611,100.207461 C157.557325,97.3921747 174.449045,197.175614 180.079618,242.2202 C142,246 108.935562,235.000242 108.779581,235 Z"/>
      <circle cx="108.5" cy="107.5" r="5.5" fill="#3083B4"/>
      <circle cx="108.5" cy="138.5" r="5.5" fill="#3083B4"/>
      <circle cx="108.5" cy="169.5" r="5.5" fill="#3083B4"/>
      <use fill="#FEFEFE" xlink:href="#a"/>
      <use fill="black" filter="url(#b)" xlink:href="#a"/>
      <path fill="#EEEEEE" d="M109,165 C113.970563,165 118,162.355178 118,157.384615 C118,152.414053 113.970563,147 109,147 C104.029437,147 100,152.414053 100,157.384615 C100,162.355178 104.029437,165 109,165 Z" transform="rotate(-180 109 156)"/>
      <g fill="#FED0BE" transform="rotate(-16 339.346 46.635)">
        <path d="M34.792643,0.360052063 C12.8179538,13.1634956 1.24814264,28.3333333 0.0832095097,45.8695652 C-1.08172363,63.4057971 9.98514116,83.2801932 33.2838039,105.492754 C35.6136701,107.830918 39.1084695,109 43.7682021,109 L56,91.4637681 C49.0104012,90.294686 43.1857355,87.3719807 38.526003,82.6956522 C31.5364042,75.6811594 21.0520059,58.1449275 21.0520059,45.8695652 C21.0520059,37.6859903 29.3163529,28.4303184 45.8450468,18.1025494 L34.792643,0.360052063 Z"/>
        <path fill-rule="nonzero" d="M47.3551991,95.8899526 C46.7328123,95.2532286 46.3594178,94.37952 46.3837645,93.42263 C46.4321227,91.52203 48.0312954,90.0129901 49.9556167,90.0520949 C56.5026451,90.1851396 61.4327439,91.3164321 64.788152,93.632789 C66.3624598,94.7195894 66.7407544,96.8650045 65.6330965,98.4247078 C64.5254387,99.9844111 62.351276,100.367775 60.7769682,99.2809742 C59.0180396,98.0667236 56.0000244,97.2695556 51.7508256,97.0128811 C56.2713297,98.4654657 60.0842653,100.700026 63.1492433,103.724478 C64.5109129,105.068143 64.5109129,107.246655 63.1492433,108.59032 C61.7875736,109.933985 59.5798709,109.933985 58.2182013,108.59032 C55.2439977,105.655442 51.2187803,103.669445 46.0528169,102.649914 C44.1645209,102.277248 42.9399078,100.464617 43.317567,98.6012884 C43.6908752,96.7594276 45.4900131,95.5574707 47.3551991,95.8899526 Z M50.9803289,114.63888 C46.9368294,114.115062 42.5160696,111.656896 37.561655,107.374951 C36.1054393,106.116389 35.9267673,103.924898 37.1625798,102.480119 C38.3983922,101.03534 40.5807123,100.884381 42.0369279,102.142943 C46.0456097,105.607522 49.3450358,107.442169 51.778812,107.757454 C53.6759621,108.003222 55.0351596,109.742915 54.8146646,111.643168 C54.5941696,113.543421 52.877479,114.884647 50.9803289,114.63888 Z"/>
      </g>
      <g fill="#FED0BE" transform="scale(-1 1) rotate(-20 171.03 684.306)">
        <path d="M41.2941854,0.989028276 C14.9851346,15.3731544 1.24814264,31.3333333 0.0832095097,48.8695652 C-1.08172363,66.4057971 9.98514116,86.2801932 33.2838039,108.492754 C35.6136701,110.830918 39.1084695,112 43.7682021,112 L56,94.4637681 C49.0104012,93.294686 43.1857355,90.3719807 38.526003,85.6956522 C31.5364042,78.6811594 21.0520059,61.1449275 21.0520059,48.8695652 C21.0520059,40.6859903 30.768531,31.3483939 50.2015813,20.8567759 L41.2941854,0.989028276 Z"/>
        <path fill-rule="nonzero" d="M43.4502979,105.049339 C42.3585417,104.288314 41.7628962,102.93927 42.0419296,101.56255 C42.4152378,99.7206893 44.2143757,98.5187324 46.0795618,98.8512143 C45.4571749,98.2144903 45.0837804,97.3407817 45.1081272,96.3838917 C45.1564853,94.4832917 46.755658,92.9742518 48.6799793,93.0133566 C55.2270077,93.1464012 60.1571065,94.2776938 63.5125146,96.5940507 C65.0868224,97.6808511 65.465117,99.8262662 64.3574592,101.385969 C63.2498014,102.945673 61.0756386,103.329036 59.5013308,102.242236 C57.7424022,101.027985 54.724387,100.230817 50.4751883,99.9741428 C54.9956923,101.426727 58.808628,103.661288 61.8736059,106.68574 C63.2352756,108.029405 63.2352756,110.207916 61.8736059,111.551581 C60.5119363,112.895247 58.3042336,112.895247 56.9425639,111.551581 C54.1964491,108.841777 50.5543417,106.940896 45.9456111,105.86278 C48.9953889,106.984353 51.3983974,108.391382 53.1566729,110.126409 C54.5183425,111.470074 54.5183425,113.648586 53.1566729,114.992251 C51.7950032,116.335916 49.5873005,116.335916 48.2256309,114.992251 C46.4788007,113.268518 43.0017491,111.798057 37.8036331,110.77218 C35.9153371,110.399514 34.690724,108.586883 35.0683832,106.723555 C35.4460424,104.860226 37.2829621,103.651806 39.1712581,104.024471 C40.6971748,104.325619 42.1234805,104.666387 43.4502979,105.049339 Z"/>
      </g>
      <path fill="#FED0BE" d="M109.505155,69 C116.667775,69 121.474227,61.1776385 121.474227,32.9953917 C121.474227,4.81314487 115.667775,19.9907834 108.505155,19.9907834 C101.342534,19.9907834 96.5360825,6.81314487 96.5360825,32.9953917 C96.5360825,59.1776385 102.342534,69 109.505155,69 Z"/>
      <circle cx="109" cy="21" r="21" fill="#000000" fill-opacity=".07"/>
    </g>
    <g transform="translate(84 45)">
      <path fill="#FEB100" d="M109.85567,0.764976959 C111.170446,0.805733771 135.793814,-1.52995392 135.793814,31.3640553 C135.793814,64.2580645 134.268041,107.096774 148,158.35023 C148,158.35023 114.43299,126.986175 86.2061856,70.3778802 L86.2061856,29.8268853 C86.2061856,29.8268853 84.9397064,-0.00739457256 109.85567,0.764976959 Z"/>
      <ellipse cx="93.072" cy="28.304" fill="#D0011B" rx="16.021" ry="16.065"/>
      <ellipse cx="59.505" cy="72.673" fill="#FEC400" rx="59.505" ry="59.668"/>
      <ellipse cx="108.33" cy="99.447" fill="#FBCAB7" rx="11.443" ry="11.475"/>
      <ellipse cx="11.443" cy="99.447" fill="#FBCAB7" rx="11.443" ry="11.475"/>
      <path fill="#FED0BE" d="M16.0206186,75.6129032 C16.0206186,75.6129032 19.9579776,71.7880184 57.9793814,71.7880184 C96.0007853,71.7880184 102.989691,75.6129032 102.989691,75.6129032 L105.53565,112.869946 C107.07887,135.453103 89.9781107,153.760369 67.3465858,153.760369 L52.4266101,153.760369 C29.7921523,153.760369 12.516477,135.43826 13.8400421,112.841356 L16.0206186,75.6129032 Z"/>
      <g transform="translate(29 97)">
        <path fill="#FFFFFF" d="M11.0430699,21.6267281 C15.8930536,21.6267281 19.8247423,19.7267913 19.8247423,15.5983771 C19.8247423,11.4699628 15.8930536,8.1232218 11.0430699,8.1232218 C6.19308613,8.1232218 2.26139748,11.4699628 2.26139748,15.5983771 C2.26139748,19.7267913 6.19308613,21.6267281 11.0430699,21.6267281 Z" transform="rotate(4 11.043 14.875)"/>
        <circle cx="13" cy="17" r="5" fill="#97C7FF"/>
        <circle cx="13.888" cy="17.68" r="3" fill="#4A4A4A"/>
        <circle cx="15" cy="17" r="1" fill="#FFFFFF"/>
        <path fill="#D69964" fill-rule="nonzero" d="M14.3928293,0.970797811 C8.9999529,0.197840255 4.43302289,1.11424552 0.759440117,3.74690698 C0.188031815,4.15640493 0.0556838281,4.95311776 0.463832615,5.52641489 C0.871981403,6.09971202 1.66606932,6.23249749 2.23747762,5.82299954 C5.34499319,3.59600835 9.25443611,2.81153518 14.0332072,3.49647342 C14.7283554,3.59610857 15.3723885,3.11148708 15.4716954,2.41404102 C15.5710023,1.71659496 15.0879775,1.07043296 14.3928293,0.970797811 Z"/>
      </g>
      <g transform="translate(62 96)">
        <path fill="#FFFFFF" d="M16.32026,22.6267281 C21.2342575,22.6267281 25.2178395,20.7267913 25.2178395,16.5983771 C25.2178395,12.4699628 21.2342575,9.1232218 16.32026,9.1232218 C11.4062625,9.1232218 7.42268041,12.4699628 7.42268041,16.5983771 C7.42268041,20.7267913 11.4062625,22.6267281 16.32026,22.6267281 Z" transform="rotate(-4 16.32 15.875)"/>
        <circle cx="14" cy="18" r="5" fill="#97C7FF"/>
        <circle cx="13.27" cy="18.68" r="3" fill="#4A4A4A"/>
        <circle cx="14" cy="18" r="1" fill="#FFFFFF"/>
        <ellipse cx="14.5" cy="11.5" fill="#FED0BE" transform="rotate(-11 14.5 11.5)" rx="13.5" ry="2.5"/>
        <path fill="#D69964" fill-rule="nonzero" d="M21.5604604,4.86211895 C16.167584,4.08916139 11.600654,5.00556666 7.92707126,7.63822812 C7.35566296,8.04772607 7.22331498,8.8444389 7.63146376,9.41773603 C8.03961255,9.99103316 8.83370047,10.1238186 9.40510877,9.71432068 C12.5126243,7.48732949 16.4220673,6.70285632 21.2008384,7.38779456 C21.8959866,7.48742971 22.5400197,7.00280822 22.6393266,6.30536216 C22.7386335,5.6079161 22.2556086,4.9617541 21.5604604,4.86211895 Z" transform="scale(1 -1) rotate(43 33.491 0)"/>
      </g>
      <path fill="#D69965" fill-rule="nonzero" d="M54.477094,128.881784 C57.5669964,130.50515 60.9288909,130.50515 64.4992584,128.89831 C64.8017904,128.762156 64.9303262,128.419852 64.7863513,128.133754 C64.6423763,127.847655 64.2804109,127.726102 63.977879,127.862256 C60.749613,129.315134 57.800268,129.315134 55.0663251,127.878781 C54.7734441,127.724908 54.4041132,127.824699 54.2414015,128.101671 C54.0786899,128.378642 54.184213,128.727911 54.477094,128.881784 Z"/>
      <circle cx="59.5" cy="140.5" r="4.5" fill="#F96174"/>
      <path fill="#FEC400" d="M50.138945 70.4930876C49.1217629 76.1029186 46.324512 80.1827957 41.7471924 82.7327189 34.8812131 86.5576037 57.0049244 81.9677419 60.0564708 70.4930876L50.138945 70.4930876zM64.7869397 70.4930876C64.0984443 74.2901881 62.205082 77.0517157 59.1068527 78.7776705 54.4595088 81.3666027 69.4342836 78.2598841 71.4997698 70.4930876L64.7869397 70.4930876z"/>
    </g>
    <g transform="translate(200 116)">
      <path fill="#000000" fill-opacity=".08" d="M42.5436973,157.260359 C56.5829764,167.773211 74.0173262,174 92.9060205,174 C139.355255,174 177.009799,136.345456 177.009799,89.8962215 C177.009799,43.4469872 139.355255,5.79244291 92.9060205,5.79244291 C46.4567862,5.79244291 8.80224194,43.4469872 8.80224194,89.8962215 C8.80224194,107.066808 13.947777,123.035591 22.7809938,136.344716 L6.52994177,173.158323 L42.5436973,157.260359 L42.5436973,157.260359 Z"/>
      <path fill="#FFFFFF" d="M36.9739106,151.690572 C51.0131897,162.203424 68.4475395,168.430213 87.3362338,168.430213 C133.785468,168.430213 171.440012,130.775669 171.440012,84.3264348 C171.440012,37.8772005 133.785468,0.22265625 87.3362338,0.22265625 C40.8869995,0.22265625 3.23245528,37.8772005 3.23245528,84.3264348 C3.23245528,101.497021 8.37799036,117.465804 17.2112071,130.774929 L0.960155108,167.588537 L36.9739106,151.690572 L36.9739106,151.690572 Z"/>
      <g transform="translate(37 45)">
        <path fill="#000000" d="M3.92089844,8 L2.20214844,2.39941406 L2.15820312,2.39941406 C2.22005239,3.53874268 2.25097656,4.29882622 2.25097656,4.6796875 L2.25097656,8 L0.8984375,8 L0.8984375,0.861328125 L2.95898437,0.861328125 L4.6484375,6.3203125 L4.67773438,6.3203125 L6.46972656,0.861328125 L8.53027344,0.861328125 L8.53027344,8 L7.11914062,8 L7.11914062,4.62109375 C7.11914062,4.46158774 7.12158201,4.27767031 7.12646484,4.06933594 C7.13134768,3.86100156 7.15332012,3.30762168 7.19238281,2.40917969 L7.1484375,2.40917969 L5.30761719,8 L3.92089844,8 Z M16.8066406,4.42089844 C16.8066406,5.60254497 16.5136748,6.51073901 15.9277344,7.14550781 C15.3417939,7.78027661 14.5019586,8.09765625 13.4082031,8.09765625 C12.3144477,8.09765625 11.4746123,7.78027661 10.8886719,7.14550781 C10.3027314,6.51073901 10.0097656,5.59928979 10.0097656,4.41113281 C10.0097656,3.22297583 10.3035452,2.31559558 10.8911133,1.68896484 C11.4786813,1.06233411 12.3209581,0.749023438 13.4179688,0.749023438 C14.5149794,0.749023438 15.354001,1.06477549 15.9350586,1.69628906 C16.5161162,2.32780264 16.8066406,3.23599668 16.8066406,4.42089844 Z M11.5966797,4.42089844 C11.5966797,5.21842847 11.7480454,5.8190084 12.0507812,6.22265625 C12.3535171,6.6263041 12.8059866,6.828125 13.4082031,6.828125 C14.6158915,6.828125 15.2197266,6.02572417 15.2197266,4.42089844 C15.2197266,2.81281748 14.6191466,2.00878906 13.4179688,2.00878906 C12.8157522,2.00878906 12.3616552,2.21142375 12.0556641,2.61669922 C11.7496729,3.02197468 11.5966797,3.62336841 11.5966797,4.42089844 Z M18.2861328,0.861328125 L20.5078125,0.861328125 C21.5201874,0.861328125 22.2550433,1.00536965 22.7124023,1.29345703 C23.1697614,1.58154441 23.3984375,2.0397104 23.3984375,2.66796875 C23.3984375,3.09440317 23.2983408,3.44433457 23.0981445,3.71777344 C22.8979482,3.9912123 22.6318376,4.15559868 22.2998047,4.2109375 L22.2998047,4.25976562 C22.7522809,4.36067759 23.0786123,4.54947778 23.2788086,4.82617188 C23.4790049,5.10286597 23.5791016,5.47070083 23.5791016,5.9296875 C23.5791016,6.58073242 23.3439151,7.08853984 22.8735352,7.453125 C22.4031552,7.81771016 21.764327,8 20.9570312,8 L18.2861328,8 L18.2861328,0.861328125 Z M19.7998047,3.68847656 L20.6787109,3.68847656 C21.0888692,3.68847656 21.385904,3.62500063 21.5698242,3.49804688 C21.7537444,3.37109312 21.8457031,3.16113428 21.8457031,2.86816406 C21.8457031,2.5947252 21.7456065,2.39860085 21.5454102,2.27978516 C21.3452138,2.16096946 21.028648,2.1015625 20.5957031,2.1015625 L19.7998047,2.1015625 L19.7998047,3.68847656 Z M19.7998047,4.88964844 L19.7998047,6.75 L20.7861328,6.75 C21.2028016,6.75 21.5104157,6.67024819 21.7089844,6.51074219 C21.9075531,6.35123618 22.0068359,6.107098 22.0068359,5.77832031 C22.0068359,5.18586943 21.5836631,4.88964844 20.7373047,4.88964844 L19.7998047,4.88964844 Z M25.0048828,8 L25.0048828,0.861328125 L26.5185547,0.861328125 L26.5185547,8 L25.0048828,8 Z M28.3154297,8 L28.3154297,0.861328125 L29.8291016,0.861328125 L29.8291016,6.75 L32.7246094,6.75 L32.7246094,8 L28.3154297,8 Z M40.2978516,8 L38.3740234,8 L35.2685547,2.59960938 L35.2246094,2.59960938 C35.2864586,3.55339019 35.3173828,4.23372192 35.3173828,4.640625 L35.3173828,8 L33.9648438,8 L33.9648438,0.861328125 L35.8740234,0.861328125 L38.9746094,6.20800781 L39.0087891,6.20800781 C38.9599607,5.2802688 38.9355469,4.62435088 38.9355469,4.24023438 L38.9355469,0.861328125 L40.2978516,0.861328125 L40.2978516,8 Z M47.9052734,0.861328125 L47.9052734,5.48046875 C47.9052734,6.00781514 47.7872733,6.4700501 47.5512695,6.8671875 C47.3152657,7.2643249 46.9742861,7.56868384 46.5283203,7.78027344 C46.0823545,7.99186304 45.5550161,8.09765625 44.9462891,8.09765625 C44.0283157,8.09765625 43.3154322,7.8624698 42.8076172,7.39208984 C42.2998021,6.92170989 42.0458984,6.27799888 42.0458984,5.4609375 L42.0458984,0.861328125 L43.5546875,0.861328125 L43.5546875,5.23144531 C43.5546875,5.78157827 43.6653635,6.18522007 43.8867188,6.44238281 C44.108074,6.69954556 44.4742813,6.828125 44.9853516,6.828125 C45.4801457,6.828125 45.8390288,6.69873176 46.0620117,6.43994141 C46.2849946,6.18115105 46.3964844,5.77506787 46.3964844,5.22167969 L46.3964844,0.861328125 L47.9052734,0.861328125 Z M52.6757812,8 L50.9570312,2.39941406 L50.9130859,2.39941406 C50.9749352,3.53874268 51.0058594,4.29882622 51.0058594,4.6796875 L51.0058594,8 L49.6533203,8 L49.6533203,0.861328125 L51.7138672,0.861328125 L53.4033203,6.3203125 L53.4326172,6.3203125 L55.2246094,0.861328125 L57.2851562,0.861328125 L57.2851562,8 L55.8740234,8 L55.8740234,4.62109375 C55.8740234,4.46158774 55.8764648,4.27767031 55.8813477,4.06933594 C55.8862305,3.86100156 55.9082029,3.30762168 55.9472656,2.40917969 L55.9033203,2.40917969 L54.0625,8 L52.6757812,8 Z M62.1044922,8 L60.3857422,2.39941406 L60.3417969,2.39941406 C60.4036461,3.53874268 60.4345703,4.29882622 60.4345703,4.6796875 L60.4345703,8 L59.0820312,8 L59.0820312,0.861328125 L61.1425781,0.861328125 L62.8320312,6.3203125 L62.8613281,6.3203125 L64.6533203,0.861328125 L66.7138672,0.861328125 L66.7138672,8 L65.3027344,8 L65.3027344,4.62109375 C65.3027344,4.46158774 65.3051758,4.27767031 65.3100586,4.06933594 C65.3149414,3.86100156 65.3369139,3.30762168 65.3759766,2.40917969 L65.3320312,2.40917969 L63.4912109,8 L62.1044922,8 Z M72.6220703,8 L68.5107422,8 L68.5107422,0.861328125 L72.6220703,0.861328125 L72.6220703,2.1015625 L70.0244141,2.1015625 L70.0244141,3.66894531 L72.4414062,3.66894531 L72.4414062,4.90917969 L70.0244141,4.90917969 L70.0244141,6.75 L72.6220703,6.75 L72.6220703,8 Z M75.625,4.03027344 L76.1132812,4.03027344 C76.5917993,4.03027344 76.9449858,3.95052163 77.1728516,3.79101562 C77.4007173,3.63150962 77.5146484,3.38086108 77.5146484,3.0390625 C77.5146484,2.70051914 77.3982759,2.45963613 77.1655273,2.31640625 C76.9327788,2.17317637 76.5722681,2.1015625 76.0839844,2.1015625 L75.625,2.1015625 L75.625,4.03027344 Z M75.625,5.26074219 L75.625,8 L74.1113281,8 L74.1113281,0.861328125 L76.1914062,0.861328125 C77.1614632,0.861328125 77.8792294,1.03792141 78.3447266,1.39111328 C78.8102237,1.74430515 79.0429688,2.28059536 79.0429688,3 C79.0429688,3.41992397 78.92741,3.7934554 78.6962891,4.12060547 C78.4651681,4.44775554 78.1380229,4.70410063 77.7148438,4.88964844 C78.7890679,6.49447417 79.4889307,7.53124766 79.8144531,8 L78.1347656,8 L76.4306641,5.26074219 L75.625,5.26074219 Z M80.3857422,7.30175781 C80.3857422,7.02831895 80.4589836,6.82161528 80.6054688,6.68164062 C80.7519539,6.54166597 80.9651679,6.47167969 81.2451172,6.47167969 C81.5153008,6.47167969 81.7244459,6.54329355 81.8725586,6.68652344 C82.0206713,6.82975332 82.0947266,7.03482939 82.0947266,7.30175781 C82.0947266,7.55892056 82.0198575,7.76155525 81.8701172,7.90966797 C81.7203769,8.05778069 81.5120456,8.13183594 81.2451172,8.13183594 C80.9716783,8.13183594 80.7600919,8.05940828 80.6103516,7.91455078 C80.4606112,7.76969329 80.3857422,7.56543101 80.3857422,7.30175781 Z M80.3857422,3.26855469 C80.3857422,2.99511582 80.4589836,2.78841216 80.6054688,2.6484375 C80.7519539,2.50846284 80.9651679,2.43847656 81.2451172,2.43847656 C81.5153008,2.43847656 81.7244459,2.51009043 81.8725586,2.65332031 C82.0206713,2.7965502 82.0947266,3.00162627 82.0947266,3.26855469 C82.0947266,3.53222788 82.0190437,3.73649016 81.8676758,3.88134766 C81.7163078,4.02620515 81.5087904,4.09863281 81.2451172,4.09863281 C80.9716783,4.09863281 80.7600919,4.02701895 80.6103516,3.88378906 C80.4606112,3.74055918 80.3857422,3.53548311 80.3857422,3.26855469 Z"/>
        <use fill="#FFFFFF" xlink:href="#c"/>
        <rect width="100" height="19" x="1" y="14" stroke="#DFDFDF" stroke-width="2"/>
      </g>
      <g transform="translate(37 89)">
        <path fill="#000000" d="M2.38769531,11 L0.8984375,11 L0.8984375,3.86132812 L4.99023438,3.86132812 L4.99023438,5.1015625 L2.38769531,5.1015625 L2.38769531,6.94238281 L4.80957031,6.94238281 L4.80957031,8.17773438 L2.38769531,8.17773438 L2.38769531,11 Z M12.8662109,7.42089844 C12.8662109,8.60254497 12.5732451,9.51073901 11.9873047,10.1455078 C11.4013643,10.7802766 10.5615289,11.0976562 9.46777344,11.0976562 C8.82649419,11.0976562 8.27962466,10.991863 7.82714844,10.7802734 L7.38769531,11.4394531 L6.59667969,10.9121094 L7.03613281,10.2480469 C6.39159834,9.6165333 6.06933594,8.67090474 6.06933594,7.41113281 C6.06933594,6.22297583 6.36311555,5.31559558 6.95068359,4.68896484 C7.53825164,4.06233411 8.38052837,3.74902344 9.47753906,3.74902344 C10.1220735,3.74902344 10.6819638,3.86295459 11.1572266,4.09082031 L11.5673828,3.48046875 L12.3486328,3.98828125 L11.9189453,4.62792969 C12.5504589,5.25944326 12.8662109,6.19042354 12.8662109,7.42089844 Z M7.65625,7.42089844 C7.65625,8.04264634 7.74739492,8.54231582 7.9296875,8.91992188 L10.4003906,5.22851562 C10.1269518,5.08203052 9.81933765,5.00878906 9.47753906,5.00878906 C8.87532251,5.00878906 8.42122549,5.21142375 8.11523438,5.61669922 C7.80924326,6.02197468 7.65625,6.62336841 7.65625,7.42089844 Z M11.2792969,7.42089844 C11.2792969,6.83495801 11.1962899,6.3515644 11.0302734,5.97070312 L8.58886719,9.63769531 C8.83626426,9.76464907 9.12923008,9.828125 9.46777344,9.828125 C10.6754618,9.828125 11.2792969,9.02572417 11.2792969,7.42089844 Z M20.2685547,7.36230469 C20.2685547,8.53744077 19.9340854,9.43749688 19.2651367,10.0625 C18.5961881,10.6875031 17.6302146,11 16.3671875,11 L14.3457031,11 L14.3457031,3.86132812 L16.5869141,3.86132812 C17.7522845,3.86132812 18.6572233,4.16894224 19.3017578,4.78417969 C19.9462923,5.39941714 20.2685547,6.25878354 20.2685547,7.36230469 Z M18.6962891,7.40136719 C18.6962891,5.8681564 18.0192125,5.1015625 16.6650391,5.1015625 L15.859375,5.1015625 L15.859375,9.75 L16.5087891,9.75 C17.9671297,9.75 18.6962891,8.96713022 18.6962891,7.40136719 Z M25.9619141,9.01757812 C25.9619141,9.6621126 25.7299828,10.16992 25.2661133,10.5410156 C24.8022438,10.9121112 24.1569052,11.0976562 23.3300781,11.0976562 C22.5683556,11.0976562 21.8945342,10.9544285 21.3085938,10.6679688 L21.3085938,9.26171875 C21.790367,9.47656357 22.1980778,9.62792925 22.5317383,9.71582031 C22.8653988,9.80371138 23.1705715,9.84765625 23.4472656,9.84765625 C23.7792985,9.84765625 24.034016,9.78418032 24.2114258,9.65722656 C24.3888355,9.5302728 24.4775391,9.34147261 24.4775391,9.09082031 C24.4775391,8.95084565 24.438477,8.82633518 24.3603516,8.71728516 C24.2822262,8.60823513 24.1674812,8.50325571 24.0161133,8.40234375 C23.8647453,8.30143179 23.5563174,8.14030059 23.0908203,7.91894531 C22.6546202,7.71386616 22.327475,7.51692803 22.109375,7.328125 C21.891275,7.13932197 21.717123,6.91959761 21.5869141,6.66894531 C21.4567051,6.41829302 21.3916016,6.1253272 21.3916016,5.79003906 C21.3916016,5.15852549 21.6056294,4.66211118 22.0336914,4.30078125 C22.4617534,3.93945132 23.0533816,3.75878906 23.8085938,3.75878906 C24.1796894,3.75878906 24.5336897,3.80273394 24.8706055,3.890625 C25.2075212,3.97851606 25.559894,4.10221274 25.9277344,4.26171875 L25.4394531,5.43847656 C25.0585918,5.28222578 24.7436536,5.17317739 24.4946289,5.11132812 C24.2456042,5.04947886 24.0006522,5.01855469 23.7597656,5.01855469 C23.4733059,5.01855469 23.2535815,5.08528579 23.1005859,5.21875 C22.9475904,5.35221421 22.8710938,5.52636611 22.8710938,5.74121094 C22.8710938,5.87467515 22.9020179,5.99104768 22.9638672,6.09033203 C23.0257165,6.18961638 23.1241855,6.28564407 23.2592773,6.37841797 C23.3943692,6.47119187 23.7141902,6.63801963 24.21875,6.87890625 C24.886071,7.19791826 25.3434232,7.51773928 25.5908203,7.83837891 C25.8382174,8.15901853 25.9619141,8.55208101 25.9619141,9.01757812 Z M31.3671875,11 L27.2558594,11 L27.2558594,3.86132812 L31.3671875,3.86132812 L31.3671875,5.1015625 L28.7695312,5.1015625 L28.7695312,6.66894531 L31.1865234,6.66894531 L31.1865234,7.90917969 L28.7695312,7.90917969 L28.7695312,9.75 L31.3671875,9.75 L31.3671875,11 Z M32.8564453,11 L32.8564453,3.86132812 L34.3701172,3.86132812 L34.3701172,9.75 L37.265625,9.75 L37.265625,11 L32.8564453,11 Z M42.7197266,9.01757812 C42.7197266,9.6621126 42.4877953,10.16992 42.0239258,10.5410156 C41.5600563,10.9121112 40.9147177,11.0976562 40.0878906,11.0976562 C39.3261681,11.0976562 38.6523467,10.9544285 38.0664062,10.6679688 L38.0664062,9.26171875 C38.5481795,9.47656357 38.9558903,9.62792925 39.2895508,9.71582031 C39.6232113,9.80371138 39.928384,9.84765625 40.2050781,9.84765625 C40.537111,9.84765625 40.7918285,9.78418032 40.9692383,9.65722656 C41.146648,9.5302728 41.2353516,9.34147261 41.2353516,9.09082031 C41.2353516,8.95084565 41.1962895,8.82633518 41.1181641,8.71728516 C41.0400387,8.60823513 40.9252937,8.50325571 40.7739258,8.40234375 C40.6225578,8.30143179 40.3141299,8.14030059 39.8486328,7.91894531 C39.4124327,7.71386616 39.0852875,7.51692803 38.8671875,7.328125 C38.6490875,7.13932197 38.4749355,6.91959761 38.3447266,6.66894531 C38.2145176,6.41829302 38.1494141,6.1253272 38.1494141,5.79003906 C38.1494141,5.15852549 38.3634419,4.66211118 38.7915039,4.30078125 C39.2195659,3.93945132 39.8111941,3.75878906 40.5664062,3.75878906 C40.9375019,3.75878906 41.2915022,3.80273394 41.628418,3.890625 C41.9653337,3.97851606 42.3177065,4.10221274 42.6855469,4.26171875 L42.1972656,5.43847656 C41.8164043,5.28222578 41.5014661,5.17317739 41.2524414,5.11132812 C41.0034167,5.04947886 40.7584647,5.01855469 40.5175781,5.01855469 C40.2311184,5.01855469 40.011394,5.08528579 39.8583984,5.21875 C39.7054029,5.35221421 39.6289062,5.52636611 39.6289062,5.74121094 C39.6289062,5.87467515 39.6598304,5.99104768 39.7216797,6.09033203 C39.783529,6.18961638 39.881998,6.28564407 40.0170898,6.37841797 C40.1521817,6.47119187 40.4720027,6.63801963 40.9765625,6.87890625 C41.6438835,7.19791826 42.1012357,7.51773928 42.3486328,7.83837891 C42.5960299,8.15901853 42.7197266,8.55208101 42.7197266,9.01757812 Z M49.9365234,7.36230469 C49.9365234,8.53744077 49.6020541,9.43749688 48.9331055,10.0625 C48.2641568,10.6875031 47.2981834,11 46.0351562,11 L44.0136719,11 L44.0136719,3.86132812 L46.2548828,3.86132812 C47.4202532,3.86132812 48.3251921,4.16894224 48.9697266,4.78417969 C49.614261,5.39941714 49.9365234,6.25878354 49.9365234,7.36230469 Z M48.3642578,7.40136719 C48.3642578,5.8681564 47.6871812,5.1015625 46.3330078,5.1015625 L45.5273438,5.1015625 L45.5273438,9.75 L46.1767578,9.75 C47.6350984,9.75 48.3642578,8.96713022 48.3642578,7.40136719 Z M55.7861328,11 L55.2685547,9.30078125 L52.6660156,9.30078125 L52.1484375,11 L50.5175781,11 L53.0371094,3.83203125 L54.8876953,3.83203125 L57.4169922,11 L55.7861328,11 Z M54.9072266,8.03125 C54.4287085,6.49152876 54.1593427,5.62076924 54.0991211,5.41894531 C54.0388994,5.21712139 53.9957684,5.05761777 53.9697266,4.94042969 C53.8623042,5.35709844 53.55469,6.38736157 53.046875,8.03125 L54.9072266,8.03125 Z M61.0693359,11 L59.5556641,11 L59.5556641,5.12109375 L57.6171875,5.12109375 L57.6171875,3.86132812 L63.0078125,3.86132812 L63.0078125,5.12109375 L61.0693359,5.12109375 L61.0693359,11 Z M70.5859375,7.42089844 C70.5859375,8.60254497 70.2929717,9.51073901 69.7070312,10.1455078 C69.1210908,10.7802766 68.2812555,11.0976562 67.1875,11.0976562 C66.0937445,11.0976562 65.2539092,10.7802766 64.6679688,10.1455078 C64.0820283,9.51073901 63.7890625,8.59928979 63.7890625,7.41113281 C63.7890625,6.22297583 64.0828421,5.31559558 64.6704102,4.68896484 C65.2579782,4.06233411 66.1002549,3.74902344 67.1972656,3.74902344 C68.2942763,3.74902344 69.1332979,4.06477549 69.7143555,4.69628906 C70.2954131,5.32780264 70.5859375,6.23599668 70.5859375,7.42089844 Z M65.3759766,7.42089844 C65.3759766,8.21842847 65.5273422,8.8190084 65.8300781,9.22265625 C66.132814,9.6263041 66.5852834,9.828125 67.1875,9.828125 C68.3951883,9.828125 68.9990234,9.02572417 68.9990234,7.42089844 C68.9990234,5.81281748 68.3984435,5.00878906 67.1972656,5.00878906 C66.5950491,5.00878906 66.1409521,5.21142375 65.8349609,5.61669922 C65.5289698,6.02197468 65.3759766,6.62336841 65.3759766,7.42089844 Z M71.7382812,10.3017578 C71.7382812,10.0283189 71.8115227,9.82161528 71.9580078,9.68164062 C72.1044929,9.54166597 72.3177069,9.47167969 72.5976562,9.47167969 C72.8678399,9.47167969 73.0769849,9.54329355 73.2250977,9.68652344 C73.3732104,9.82975332 73.4472656,10.0348294 73.4472656,10.3017578 C73.4472656,10.5589206 73.3723966,10.7615552 73.2226562,10.909668 C73.0729159,11.0577807 72.8645847,11.1318359 72.5976562,11.1318359 C72.3242174,11.1318359 72.112631,11.0594083 71.9628906,10.9145508 C71.8131503,10.7696933 71.7382812,10.565431 71.7382812,10.3017578 Z M71.7382812,6.26855469 C71.7382812,5.99511582 71.8115227,5.78841216 71.9580078,5.6484375 C72.1044929,5.50846284 72.3177069,5.43847656 72.5976562,5.43847656 C72.8678399,5.43847656 73.0769849,5.51009043 73.2250977,5.65332031 C73.3732104,5.7965502 73.4472656,6.00162627 73.4472656,6.26855469 C73.4472656,6.53222788 73.3715828,6.73649016 73.2202148,6.88134766 C73.0688469,7.02620515 72.8613294,7.09863281 72.5976562,7.09863281 C72.3242174,7.09863281 72.112631,7.02701895 71.9628906,6.88378906 C71.8131503,6.74055918 71.7382812,6.53548311 71.7382812,6.26855469 Z"/>
        <use fill="#FFFFFF" xlink:href="#d"/>
        <rect width="100" height="19" x="1" y="17" stroke="#DFDFDF" stroke-width="2"/>
      </g>
    </g>
  </g>
</svg>
