<svg xmlns="http://www.w3.org/2000/svg" width="466" height="466" viewBox="0 0 466 466" xmlns:xlink="http://www.w3.org/1999/xlink">
  <defs>
    <ellipse id="a" cx="13.716" cy="13.5" rx="13.716" ry="13.5"/>
    <ellipse id="b" cx="13.834" cy="13.5" rx="13.834" ry="13.5"/>
    <ellipse id="c" cx="13.716" cy="13.5" rx="13.716" ry="13.5"/>
  </defs>
  <g fill="none" fill-rule="evenodd">
    <circle cx="233" cy="233" r="233" fill="#F5EDE6"/>
    <g transform="translate(49 115)">
      <path fill="#6C7987" d="M37,10.0056404 C37,4.47967778 41.4723234,0 46.9967864,0 L323.003214,0 C328.524286,0 333,4.48383722 333,10.0056404 L333,198 L37,198 L37,10.0056404 Z"/>
      <rect width="272" height="176" x="49" y="12" fill="#FFFFFF"/>
      <rect width="9" height="29" x="307" y="26" fill="#C7C7C7" rx="4.5"/>
      <rect width="2" height="176" x="49" y="12" fill="#000000" opacity=".1"/>
      <rect width="270" height="2" x="51" y="12" fill="#000000" opacity=".1"/>
      <path fill="#578FC8" d="M66,27 L70.982238,27 C72.9230411,27 74.3639681,27.3026646 75.3050622,27.9080027 C76.2461563,28.5133409 76.7166963,29.455534 76.7166963,30.7346101 C76.7166963,31.5759276 76.5115473,32.2941147 76.1012433,32.8891929 C75.6909393,33.4842711 75.1503882,33.8673042 74.4795737,34.0383037 L74.4795737,34.1409029 C75.3653093,34.3871421 76.0068068,34.7975347 76.4040853,35.372093 C76.8013637,35.9466513 77,36.6921979 77,37.6087551 C77,38.969911 76.5131783,40.0420617 75.5395204,40.8252394 C74.5658625,41.608417 73.2389072,42 71.5586146,42 L66,42 L66,27 Z M70,33 L71.2020202,33 C71.7744136,33 72.2171702,32.8664135 72.530303,32.5992366 C72.8434359,32.3320597 73,31.9351171 73,31.4083969 C73,30.469461 72.3737436,30 71.1212121,30 L70,30 L70,33 Z M70,36 L70,39 L71.287037,39 C72.4290181,39 73,38.4918618 73,37.47557 C73,36.9999976 72.8472237,36.6351804 72.5416667,36.3811075 C72.2361096,36.1270346 71.7932128,36 71.212963,36 L70,36 Z M93,34.4950166 C93,36.9468561 92.4060069,38.8106249 91.2180028,40.0863787 C90.0299987,41.3621326 88.2906819,42 86,42 C83.7421359,42 82.0110234,41.3588104 80.8066104,40.076412 C79.6021974,38.7940135 79,36.9269226 79,34.4750831 C79,32.0498218 79.5989157,30.1976808 80.7967651,28.9186047 C81.9946145,27.6395285 83.7355723,27 86.0196906,27 C88.3103724,27 90.0464076,27.6345451 91.2278481,28.9036545 C92.4092886,30.1727638 93,32.0365326 93,34.4950166 Z M83,34.0187793 C83,36.6729397 83.99999,38 86,38 C87.0169542,38 87.771184,37.6776245 88.2627119,37.0328638 C88.7542397,36.3881032 89,35.3834184 89,34.0187793 C89,32.6478805 88.7508499,31.635371 88.2525424,30.9812207 C87.7542348,30.3270703 87.0101744,30 86.020339,30 C84.0067696,30 83,31.3395797 83,34.0187793 Z M109,34.4950166 C109,36.9468561 108.406007,38.8106249 107.218003,40.0863787 C106.029999,41.3621326 104.290682,42 102,42 C99.7421359,42 98.0110234,41.3588104 96.8066104,40.076412 C95.6021974,38.7940135 95,36.9269226 95,34.4750831 C95,32.0498218 95.5989157,30.1976808 96.7967651,28.9186047 C97.9946145,27.6395285 99.7355723,27 102.019691,27 C104.310372,27 106.046408,27.6345451 107.227848,28.9036545 C108.409289,30.1727638 109,32.0365326 109,34.4950166 Z M99,34.0187793 C99,36.6729397 99.99999,38 102,38 C103.016954,38 103.771184,37.6776245 104.262712,37.0328638 C104.75424,36.3881032 105,35.3834184 105,34.0187793 C105,32.6478805 104.75085,31.635371 104.252542,30.9812207 C103.754235,30.3270703 103.010174,30 102.020339,30 C100.00677,30 99,31.3395797 99,34.0187793 Z M122.923628,42 L118.665871,42 L115.906921,36.2647059 L114.789976,36.9829001 L114.789976,42 L111,42 L111,27 L114.789976,27 L114.789976,33.5150479 C114.980908,33.1114891 115.365948,32.4719606 115.945107,31.5964432 L118.875895,27 L123,27 L118.599045,33.7202462 L122.923628,42 Z M142,34.1819425 C142,36.685375 141.35053,38.6142203 140.051571,39.9685363 C138.752612,41.3228522 136.926684,42 134.573731,42 L130,42 L130,27 L134.892828,27 C137.161978,27 138.913773,27.6155889 140.148268,28.8467852 C141.382762,30.0779815 142,31.8563495 142,34.1819425 Z M138,33.8583639 C138,32.549444 137.756883,31.5791647 137.270642,30.9474969 C136.784401,30.3158292 136.045877,30 135.055046,30 L134,30 L134,38 L134.807339,38 C135.908262,38 136.715594,37.6597511 137.229358,36.979243 C137.743122,36.2987349 138,35.2584523 138,33.8583639 Z M145,42 L145,27 L149,27 L149,42 L145,42 Z M166,42 L160.79023,42 L155.41954,31.4322845 L155.329023,31.4322845 C155.456418,33.0943996 155.520115,34.3631967 155.520115,35.2387141 L155.520115,42 L152,42 L152,27 L157.189655,27 L162.54023,37.4240766 L162.600575,37.4240766 C162.506705,35.9124411 162.45977,34.698363 162.45977,33.7818057 L162.45977,27 L166,27 L166,42 Z M181.932751,42 L181.254876,39.2002725 L176.782784,39.2002725 L176.086079,42 L172,42 L176.490921,27 L181.452589,27 L186,42 L181.932751,42 Z M181,36 L180.392283,33.7106518 C180.250803,33.2019052 180.078779,32.5437242 179.876206,31.736089 C179.673632,30.9284538 179.540193,30.3497633 179.475884,30 C179.418006,30.3243259 179.303859,30.8585018 179.133441,31.6025437 C178.963022,32.3465856 178.585212,33.8123897 178,36 L181,36 Z M202,42 L196.79023,42 L191.41954,31.4322845 L191.329023,31.4322845 C191.456418,33.0943996 191.520115,34.3631967 191.520115,35.2387141 L191.520115,42 L188,42 L188,27 L193.189655,27 L198.54023,37.4240766 L198.600575,37.4240766 C198.506705,35.9124411 198.45977,34.698363 198.45977,33.7818057 L198.45977,27 L202,27 L202,42 Z M219,42 L213.79023,42 L208.41954,31.4322845 L208.329023,31.4322845 C208.456418,33.0943996 208.520115,34.3631967 208.520115,35.2387141 L208.520115,42 L205,42 L205,27 L210.189655,27 L215.54023,37.4240766 L215.600575,37.4240766 C215.506705,35.9124411 215.45977,34.698363 215.45977,33.7818057 L215.45977,27 L219,27 L219,42 Z M235,34.4950166 C235,36.9468561 234.406007,38.8106249 233.218003,40.0863787 C232.029999,41.3621326 230.290682,42 228,42 C225.742136,42 224.011023,41.3588104 222.80661,40.076412 C221.602197,38.7940135 221,36.9269226 221,34.4750831 C221,32.0498218 221.598916,30.1976808 222.796765,28.9186047 C223.994615,27.6395285 225.735572,27 228.019691,27 C230.310372,27 232.046408,27.6345451 233.227848,28.9036545 C234.409289,30.1727638 235,32.0365326 235,34.4950166 Z M225,34.0187793 C225,36.6729397 225.99999,38 228,38 C229.016954,38 229.771184,37.6776245 230.262712,37.0328638 C230.75424,36.3881032 231,35.3834184 231,34.0187793 C231,32.6478805 230.75085,31.635371 230.252542,30.9812207 C229.754235,30.3270703 229.010174,30 228.020339,30 C226.00677,30 225,31.3395797 225,34.0187793 Z M251,42 L245.79023,42 L240.41954,31.4322845 L240.329023,31.4322845 C240.456418,33.0943996 240.520115,34.3631967 240.520115,35.2387141 L240.520115,42 L237,42 L237,27 L242.189655,27 L247.54023,37.4240766 L247.600575,37.4240766 C247.506705,35.9124411 247.45977,34.698363 247.45977,33.7818057 L247.45977,27 L251,27 L251,42 Z M263,37.3692615 C263,38.274123 262.775393,39.0775081 262.326172,39.7794411 C261.876951,40.4813741 261.229171,41.0269442 260.382812,41.4161677 C259.536454,41.8053912 258.543625,42 257.404297,42 C256.453771,42 255.656253,41.9318037 255.011719,41.7954092 C254.367184,41.6590146 253.696618,41.4211594 253,41.0818363 L253,37.5688623 C253.735681,37.9547591 254.500647,38.2558206 255.294922,38.4720559 C256.089197,38.6882912 256.818356,38.7964072 257.482422,38.7964072 C258.055341,38.7964072 258.475259,38.6949445 258.742188,38.492016 C259.009116,38.2890875 259.142578,38.0279457 259.142578,37.7085828 C259.142578,37.508981 259.088868,37.3343321 258.981445,37.1846307 C258.874023,37.0349294 258.701499,36.883567 258.463867,36.7305389 C258.226236,36.5775109 257.593104,36.2648061 256.564453,35.7924152 C255.633459,35.3599446 254.935224,34.9407871 254.469727,34.5349301 C254.004229,34.1290732 253.659181,33.6633426 253.43457,33.1377246 C253.20996,32.6121065 253.097656,31.9900236 253.097656,31.2714571 C253.097656,29.9274717 253.576167,28.8795779 254.533203,28.1277445 C255.490239,27.3759111 256.80533,27 258.478516,27 C259.956388,27 261.463534,27.3492979 263,28.0479042 L261.818359,31.0918164 C260.483717,30.4663974 259.331385,30.1536926 258.361328,30.1536926 C257.860024,30.1536926 257.495444,30.2435121 257.267578,30.4231537 C257.039712,30.6027953 256.925781,30.8256806 256.925781,31.0918164 C256.925781,31.3779123 257.070637,31.6340641 257.360352,31.8602794 C257.650067,32.0864948 258.436192,32.498999 259.71875,33.0978044 C260.949225,33.6633428 261.803709,34.2704558 262.282227,34.9191617 C262.760745,35.5678675 263,36.3845593 263,37.3692615 Z M274,42 L266,42 L266,27 L274,27 L274,30.252394 L269.640553,30.252394 L269.640553,32.6121751 L273.677419,32.6121751 L273.677419,35.8645691 L269.640553,35.8645691 L269.640553,38.6963064 L274,38.6963064 L274,42 Z"/>
      <g transform="translate(65 60)">
        <ellipse cx="13.602" cy="13.5" fill="#97D05E" rx="13.602" ry="13.5"/>
        <path fill="#FFFFFF" d="M9.75500811,18.7049063 C9.79404388,18.7615401 9.83854044,18.8154924 9.88849671,18.8660143 L11.2656067,20.2587153 C11.7228867,20.7211723 12.4640239,20.7206259 12.9214768,20.257994 L21.8487453,11.2296553 C22.3065579,10.7666596 22.3065174,10.0172719 21.8494585,9.55503833 L20.4723485,8.16233733 C20.0150685,7.69988029 19.2739313,7.70042675 18.8164784,8.16305864 L12.0653446,14.9906255 L8.34568518,11.2288538 C7.88813557,10.7661241 7.14776993,10.766596 6.69083846,11.2287006 L5.35401525,12.5806587 C4.89648692,13.0433669 4.89715162,13.7920515 5.35416677,14.2542408 L9.75500811,18.7049063 L9.75500811,18.7049063 Z"/>
        <path fill="#829FB0" d="M42.1587638,18.36 L39.3151672,18.36 L37.4725676,14.8225781 L36.7266017,15.2655469 L36.7266017,18.36 L34.1954182,18.36 L34.1954182,9.10828125 L36.7266017,9.10828125 L36.7266017,13.1266406 C36.8541179,12.8777331 37.1112717,12.4832839 37.4980707,11.9432812 L39.4554343,9.10828125 L42.2097701,9.10828125 L39.2705368,13.2532031 L42.1587638,18.36 Z M44.9130996,18.36 L42.1587638,11.1902344 L44.7600809,11.1902344 L45.9842301,15.4300781 C45.9884807,15.451172 45.9969816,15.487031 46.0097332,15.5376563 C46.0224849,15.5882815 46.0352363,15.6483981 46.0479879,15.7180078 C46.0607395,15.7876175 46.0724283,15.8614449 46.0830547,15.9394922 C46.093681,16.0175395 46.0989941,16.0903122 46.0989941,16.1578125 L46.1436246,16.1578125 C46.1436246,15.9384364 46.1818788,15.7000794 46.2583886,15.4427344 L47.5399198,11.1902344 L50.1348611,11.1902344 L47.3805253,18.36 L44.9130996,18.36 Z M53.5012714,18.36 L51.0083425,18.36 L51.0083425,11.1902344 L53.5012714,11.1902344 L53.5012714,18.36 Z M50.9445848,9.40570312 C50.9445848,9.03445127 51.0487214,8.75812591 51.2569978,8.57671875 C51.4652743,8.39531159 51.8010618,8.30460937 52.2643706,8.30460937 C52.7276794,8.30460937 53.0655922,8.39742095 53.2781192,8.58304687 C53.4906462,8.7686728 53.5969081,9.04288881 53.5969081,9.40570312 C53.5969081,10.1313318 53.1527334,10.4941406 52.2643706,10.4941406 C51.384509,10.4941406 50.9445848,10.1313318 50.9445848,9.40570312 Z M59.8005392,18.36 L59.8005392,14.4492187 C59.8005392,13.9724976 59.731469,13.6128528 59.5933265,13.3702734 C59.455184,13.1276941 59.2330966,13.0064062 58.9270578,13.0064062 C58.5062544,13.0064062 58.2023454,13.1730452 58.0153216,13.5063281 C57.8282979,13.839611 57.7347874,14.4112459 57.7347874,15.22125 L57.7347874,18.36 L55.2418586,18.36 L55.2418586,11.1902344 L57.1227128,11.1902344 L57.4351259,12.0761719 L57.5817688,12.0761719 C57.7942958,11.7386702 58.0886412,11.4855477 58.4648139,11.3167969 C58.8409867,11.148046 59.2734726,11.0636719 59.7622846,11.0636719 C60.561386,11.0636719 61.183018,11.2935915 61.6271994,11.7534375 C62.0713808,12.2132835 62.2934681,12.8608552 62.2934681,13.6961719 L62.2934681,18.36 L59.8005392,18.36 Z M68.5481055,18.36 L68.5481055,14.4492187 C68.5481055,13.9724976 68.4790353,13.6128528 68.3408927,13.3702734 C68.2027502,13.1276941 67.9806629,13.0064062 67.674624,13.0064062 C67.2538206,13.0064062 66.9499116,13.1730452 66.7628879,13.5063281 C66.5758642,13.839611 66.4823537,14.4112459 66.4823537,15.22125 L66.4823537,18.36 L63.9894248,18.36 L63.9894248,11.1902344 L65.8702791,11.1902344 L66.1826922,12.0761719 L66.3293351,12.0761719 C66.541862,11.7386702 66.8362075,11.4855477 67.2123802,11.3167969 C67.5885529,11.148046 68.0210388,11.0636719 68.5098508,11.0636719 C69.3089522,11.0636719 69.9305843,11.2935915 70.3747657,11.7534375 C70.818947,12.2132835 71.0410344,12.8608552 71.0410344,13.6961719 L71.0410344,18.36 L68.5481055,18.36 Z M76.2245412,18.4865625 C75.0216386,18.4865625 74.0875966,18.1691047 73.4223871,17.5341797 C72.7571777,16.8992546 72.424578,15.9953965 72.424578,14.8225781 C72.424578,13.6117908 72.7327375,12.6826204 73.3490657,12.0350391 C73.9653939,11.3874577 74.8452424,11.0636719 75.9886374,11.0636719 C77.0767755,11.0636719 77.9173071,11.3452706 78.5102573,11.9084766 C79.1032076,12.4716825 79.3996782,13.2827291 79.3996782,14.3416406 L79.3996782,15.4427344 L74.94301,15.4427344 C74.9600122,15.8435176 75.1077162,16.1578114 75.3861265,16.385625 C75.6645368,16.6134386 76.0438918,16.7273437 76.5242027,16.7273437 C76.9620083,16.7273437 77.3647408,16.6862113 77.7324125,16.6039453 C78.1000842,16.5216793 78.4985662,16.3814072 78.9278707,16.183125 L78.9278707,17.9613281 C78.5368211,18.1596104 78.1330259,18.2967184 77.7164731,18.3726562 C77.2999202,18.4485941 76.8026146,18.4865625 76.2245412,18.4865625 Z M76.0778983,12.7469531 C75.7846111,12.7469531 75.5391461,12.83871 75.3414961,13.0222266 C75.143846,13.2057431 75.0280205,13.4936699 74.9940162,13.8860156 L77.1362773,13.8860156 C77.1277763,13.5400764 77.0289527,13.263751 76.8398037,13.0570312 C76.6506547,12.8503115 76.3966888,12.7469531 76.0778983,12.7469531 Z M85.1697566,11.0636719 C85.3865341,11.0636719 85.5926821,11.0805467 85.7882069,11.1142969 L85.928474,11.1396094 L85.7053218,13.4746875 C85.501296,13.4240622 85.2186393,13.39875 84.8573435,13.39875 C84.3132744,13.39875 83.9179802,13.5221472 83.6714489,13.7689453 C83.4249176,14.0157434 83.3016539,14.3711696 83.3016539,14.8352344 L83.3016539,18.36 L80.808725,18.36 L80.808725,11.1902344 L82.6640761,11.1902344 L83.0529985,12.335625 L83.1741383,12.335625 C83.3824147,11.9559356 83.6725097,11.6490246 84.0444319,11.4148828 C84.4163541,11.180741 84.7914586,11.0636719 85.1697566,11.0636719 Z"/>
      </g>
      <g transform="translate(184 60)">
        <path fill="#829FB0" d="M40.6795429,18.36 L33.8581867,18.36 L33.8581867,16.7146875 L36.1534027,14.4302344 C36.809182,13.755231 37.2377894,13.2943372 37.439238,13.0475391 C37.6406865,12.800741 37.7810555,12.5887509 37.860349,12.4115625 C37.9396426,12.2343741 37.9792888,12.048751 37.9792888,11.8546875 C37.9792888,11.6142175 37.8999964,11.4243757 37.7414093,11.2851563 C37.5828221,11.1459368 37.3599462,11.0763281 37.0727749,11.0763281 C36.7770313,11.0763281 36.4780776,11.1596476 36.1759048,11.3262891 C35.873732,11.4929305 35.5319175,11.7386703 35.1504511,12.0635156 L33.7553198,10.4561719 C34.2396535,10.030076 34.6468307,9.72527436 34.9768634,9.54175781 C35.3068961,9.35824127 35.6658548,9.21796924 36.0537504,9.1209375 C36.441646,9.02390576 36.8777541,8.97539063 37.3620879,8.97539063 C37.9707196,8.97539063 38.5139796,9.08085832 38.9918841,9.29179688 C39.4697886,9.50273543 39.8405341,9.80331836 40.1041316,10.1935547 C40.3677292,10.583791 40.499526,11.0214819 40.499526,11.5066406 C40.499526,11.8694549 40.4534507,12.2048422 40.3612987,12.5128125 C40.2691467,12.8207828 40.1266347,13.1234751 39.9337585,13.4208984 C39.7408822,13.7183218 39.4847892,14.0315609 39.1654719,14.360625 C38.8461545,14.6896891 38.1657401,15.3140579 37.1242083,16.23375 L37.1242083,16.2970312 L40.6795429,16.2970312 L40.6795429,18.36 Z M48.4331298,13.7467969 C48.4331298,15.3836801 48.154535,16.5828478 47.5973369,17.3443359 C47.0401388,18.1058241 46.1872099,18.4865625 45.0385246,18.4865625 C43.9155562,18.4865625 43.0690564,18.0889493 42.4989999,17.2937109 C41.9289434,16.4984726 41.6439194,15.3161797 41.6439194,13.7467969 C41.6439194,12.1014761 41.9225143,10.8949257 42.4797124,10.1271094 C43.0369105,9.35929304 43.8898394,8.97539063 45.0385246,8.97539063 C46.1572069,8.97539063 47.0026352,9.37511319 47.5748348,10.1745703 C48.1470343,10.9740274 48.4331298,12.1647577 48.4331298,13.7467969 Z M44.1705858,13.7467969 C44.1705858,14.7930521 44.23702,15.5123418 44.3698903,15.9046875 C44.5027606,16.2970332 44.7256365,16.4932031 45.0385246,16.4932031 C45.3556989,16.4932031 45.5796463,16.2907051 45.7103736,15.8857031 C45.8411008,15.4807011 45.9064635,14.7677395 45.9064635,13.7467969 C45.9064635,12.7216355 45.8400293,12.0034005 45.707159,11.5920703 C45.5742887,11.1807401 45.3514128,10.9750781 45.0385246,10.9750781 C44.7256365,10.9750781 44.5027606,11.1733574 44.3698903,11.5699219 C44.23702,11.9664864 44.1705858,12.6921041 44.1705858,13.7467969 Z M52.5928071,15.8730469 L52.5928071,13.8986719 L56.2252918,13.8986719 L56.2252918,15.8730469 L52.5928071,15.8730469 Z M67.1356044,18.36 L60.3142481,18.36 L60.3142481,16.7146875 L62.6094641,14.4302344 C63.2652434,13.755231 63.6938509,13.2943372 63.8952994,13.0475391 C64.0967479,12.800741 64.2371169,12.5887509 64.3164105,12.4115625 C64.395704,12.2343741 64.4353502,12.048751 64.4353502,11.8546875 C64.4353502,11.6142175 64.3560578,11.4243757 64.1974707,11.2851563 C64.0388835,11.1459368 63.8160076,11.0763281 63.5288363,11.0763281 C63.2330927,11.0763281 62.934139,11.1596476 62.6319662,11.3262891 C62.3297934,11.4929305 61.9879789,11.7386703 61.6065125,12.0635156 L60.2113812,10.4561719 C60.695715,10.030076 61.1028921,9.72527436 61.4329248,9.54175781 C61.7629575,9.35824127 62.1219163,9.21796924 62.5098118,9.1209375 C62.8977074,9.02390576 63.3338156,8.97539063 63.8181493,8.97539063 C64.426781,8.97539063 64.970041,9.08085832 65.4479455,9.29179688 C65.92585,9.50273543 66.2965955,9.80331836 66.5601931,10.1935547 C66.8237906,10.583791 66.9555874,11.0214819 66.9555874,11.5066406 C66.9555874,11.8694549 66.9095121,12.2048422 66.8173601,12.5128125 C66.7252081,12.8207828 66.5826961,13.1234751 66.3898199,13.4208984 C66.1969436,13.7183218 65.9408507,14.0315609 65.6215333,14.360625 C65.3022159,14.6896891 64.6218015,15.3140579 63.5802697,16.23375 L63.5802697,16.2970312 L67.1356044,16.2970312 L67.1356044,18.36 Z M74.9213371,13.3417969 C74.9213371,15.1516497 74.5248752,16.4615584 73.7319395,17.2715625 C72.9390037,18.0815665 71.6703256,18.4865625 69.925867,18.4865625 C69.3515243,18.4865625 68.9143447,18.465469 68.614315,18.4232812 L68.614315,16.4425781 C68.9829229,16.5100785 69.3515254,16.5438281 69.7201333,16.5438281 C70.6287948,16.5438281 71.329568,16.3592597 71.822474,15.9901172 C72.31538,15.6209747 72.5832597,15.0377384 72.6261211,14.2403906 L72.548971,14.2403906 C72.3818116,14.5441421 72.2167977,14.7635149 72.0539244,14.8985156 C71.8910511,15.0335163 71.6917486,15.1368746 71.456011,15.2085937 C71.2202733,15.2803129 70.9266772,15.3161719 70.5752138,15.3161719 C69.7608474,15.3161719 69.1243653,15.0482839 68.6657484,14.5125 C68.2071315,13.9767161 67.9778265,13.2384422 67.9778265,12.2976562 C67.9778265,11.2724949 68.2746372,10.468831 68.8682674,9.88664063 C69.4618977,9.30445021 70.2751804,9.01335938 71.3081399,9.01335938 C72.4568252,9.01335938 73.3461857,9.38882437 73.9762482,10.1397656 C74.6063106,10.8907069 74.9213371,11.95804 74.9213371,13.3417969 Z M71.3788609,11.0130469 C71.1002618,11.0130469 70.8741714,11.1121865 70.7005827,11.3104687 C70.5269941,11.508751 70.4402011,11.8272634 70.4402011,12.2660156 C70.4402011,12.6119549 70.5152074,12.8872255 70.6652223,13.0918359 C70.8152371,13.2964463 71.0445421,13.39875 71.3531442,13.39875 C71.6317432,13.39875 71.8739064,13.2996104 72.0796411,13.1013281 C72.2853758,12.9030459 72.3882416,12.6646889 72.3882416,12.38625 C72.3882416,12.0107794 72.2928764,11.6880482 72.1021432,11.4180469 C71.91141,11.1480455 71.6703183,11.0130469 71.3788609,11.0130469 Z"/>
        <use fill="#EEEEEE" xlink:href="#a"/>
        <ellipse cx="13.716" cy="13.5" stroke="#C7C7C7" rx="13.216" ry="13"/>
      </g>
      <g transform="translate(65 98)">
        <use fill="#EEEEEE" xlink:href="#b"/>
        <ellipse cx="13.834" cy="13.5" stroke="#C7C7C7" rx="13.334" ry="13"/>
        <path fill="#829FB0" d="M38.9092592,17.82 L36.9703888,11.1564844 L36.9120281,11.1564844 C37.0028118,12.2913338 37.048203,13.1730437 37.048203,13.8016406 L37.048203,17.82 L34.7786223,17.82 L34.7786223,8.56828125 L38.1894778,8.56828125 L40.1672553,15.136875 L40.2191314,15.136875 L42.1580018,8.56828125 L45.5753419,8.56828125 L45.5753419,17.82 L43.2214625,17.82 L43.2214625,13.7636719 C43.2214625,13.5527333 43.2247047,13.318595 43.2311893,13.06125 C43.2376738,12.803905 43.2668538,12.1732081 43.3187302,11.1691406 L43.2603696,11.1691406 L41.3474373,17.82 L38.9092592,17.82 Z M51.015851,17.9465625 C49.7924329,17.9465625 48.8424607,17.6291047 48.1659061,16.9941797 C47.4893516,16.3592546 47.1510793,15.4553965 47.1510793,14.2825781 C47.1510793,13.0717908 47.4644945,12.1426204 48.0913342,11.4950391 C48.7181739,10.8474577 49.6130282,10.5236719 50.7759239,10.5236719 C51.8826202,10.5236719 52.7374871,10.8052706 53.3405501,11.3684766 C53.9436132,11.9316825 54.2451401,12.7427291 54.2451401,13.8016406 L54.2451401,14.9027344 L49.7124633,14.9027344 C49.7297554,15.3035176 49.8799785,15.6178114 50.1631371,15.845625 C50.4462958,16.0734386 50.8321206,16.1873437 51.3206233,16.1873437 C51.7658956,16.1873437 52.1754968,16.1462113 52.5494391,16.0639453 C52.9233814,15.9816793 53.3286597,15.8414072 53.7652859,15.643125 L53.7652859,17.4213281 C53.367567,17.6196104 52.956885,17.7567184 52.5332278,17.8326562 C52.1095707,17.9085941 51.6037835,17.9465625 51.015851,17.9465625 Z M50.8667072,12.2069531 C50.5684179,12.2069531 50.3187665,12.29871 50.1177455,12.4822266 C49.9167245,12.6657431 49.7989237,12.9536699 49.7643394,13.3460156 L51.9431369,13.3460156 C51.9344908,13.0000764 51.8339818,12.723751 51.6416069,12.5170313 C51.4492319,12.3103115 51.1909346,12.2069531 50.8667072,12.2069531 Z M60.3146474,17.82 L60.3146474,13.9092188 C60.3146474,13.4324976 60.2443992,13.0728528 60.1039006,12.8302734 C59.963402,12.5876941 59.737527,12.4664063 59.4262686,12.4664063 C58.9982884,12.4664063 58.6891962,12.6330452 58.4989828,12.9663281 C58.3087694,13.299611 58.2136641,13.871246 58.2136641,14.68125 L58.2136641,17.82 L55.6782182,17.82 L55.6782182,10.6502344 L57.5911505,10.6502344 L57.9088918,11.5361719 L58.0580357,11.5361719 C58.2741873,11.1986702 58.5735528,10.9455477 58.9561412,10.7767969 C59.3387296,10.608046 59.7785915,10.5236719 60.2757403,10.5236719 C61.0884704,10.5236719 61.7207044,10.7535915 62.1724613,11.2134375 C62.6242182,11.6732835 62.8500932,12.3208552 62.8500932,13.1561719 L62.8500932,17.82 L60.3146474,17.82 Z M69.2114037,17.82 L69.2114037,13.9092188 C69.2114037,13.4324976 69.1411555,13.0728528 69.0006569,12.8302734 C68.8601584,12.5876941 68.6342833,12.4664063 68.323025,12.4664063 C67.8950448,12.4664063 67.5859526,12.6330452 67.3957392,12.9663281 C67.2055257,13.299611 67.1104204,13.871246 67.1104204,14.68125 L67.1104204,17.82 L64.5749746,17.82 L64.5749746,10.6502344 L66.4879069,10.6502344 L66.8056482,11.5361719 L66.954792,11.5361719 C67.1709437,11.1986702 67.4703092,10.9455477 67.8528975,10.7767969 C68.2354859,10.608046 68.6753479,10.5236719 69.1724966,10.5236719 C69.9852267,10.5236719 70.6174607,10.7535915 71.0692176,11.2134375 C71.5209745,11.6732835 71.7468496,12.3208552 71.7468496,13.1561719 L71.7468496,17.82 L69.2114037,17.82 Z"/>
      </g>
      <g transform="translate(184 98)">
        <path fill="#829FB0" d="M40.3645133,11.1142969 C40.3645133,11.6880497 40.1866412,12.1805839 39.8308916,12.5919141 C39.4751421,13.0032442 38.9608131,13.3017178 38.2878893,13.4873437 L38.2878893,13.5253125 C39.8566162,13.719376 40.6409679,14.4492124 40.6409679,15.7148437 C40.6409679,16.5754731 40.2948673,17.2525757 39.6026559,17.7461719 C38.9104444,18.2397681 37.9492921,18.4865625 36.7191702,18.4865625 C36.2134058,18.4865625 35.7451521,18.4507035 35.3143951,18.3789844 C34.8836382,18.3072653 34.4175275,18.1764853 33.9160492,17.9866406 L33.9160492,15.9110156 C34.3275186,16.1177354 34.7464824,16.2706636 35.1729533,16.3698047 C35.5994241,16.4689458 35.9926715,16.5185156 36.3527071,16.5185156 C36.9099052,16.5185156 37.3160108,16.4415242 37.5710361,16.2875391 C37.8260614,16.1335539 37.9535721,15.8920329 37.9535721,15.5629687 C37.9535721,15.3098425 37.8871379,15.1147272 37.7542676,14.9776172 C37.6213973,14.8405071 37.4070936,14.7371488 37.11135,14.6675391 C36.8156064,14.5979293 36.4298596,14.563125 35.9540982,14.563125 L35.3754723,14.563125 L35.3754723,12.6836719 L35.9669566,12.6836719 C37.2570844,12.6836719 37.9021387,12.3588314 37.9021387,11.7091406 C37.9021387,11.4644519 37.8067735,11.2830475 37.6160403,11.1649219 C37.4253071,11.0467963 37.1692142,10.9877344 36.8477537,10.9877344 C36.2476943,10.9877344 35.6262134,11.1860136 34.9832925,11.5825781 L33.9289076,9.91195312 C34.4260997,9.57445144 34.9350711,9.33398509 35.455837,9.19054687 C35.9766029,9.04710866 36.5734388,8.97539062 37.2463627,8.97539062 C38.2193163,8.97539062 38.9822376,9.16523248 39.5351495,9.54492187 C40.0880615,9.92461127 40.3645133,10.447731 40.3645133,11.1142969 Z M48.4331298,13.7467969 C48.4331298,15.3836801 48.154535,16.5828478 47.5973369,17.3443359 C47.0401388,18.1058241 46.1872099,18.4865625 45.0385246,18.4865625 C43.9155562,18.4865625 43.0690564,18.0889493 42.4989999,17.2937109 C41.9289434,16.4984726 41.6439194,15.3161797 41.6439194,13.7467969 C41.6439194,12.1014761 41.9225143,10.8949257 42.4797124,10.1271094 C43.0369105,9.35929304 43.8898394,8.97539062 45.0385246,8.97539062 C46.1572069,8.97539062 47.0026352,9.37511319 47.5748348,10.1745703 C48.1470343,10.9740274 48.4331298,12.1647577 48.4331298,13.7467969 Z M44.1705858,13.7467969 C44.1705858,14.7930521 44.23702,15.5123418 44.3698903,15.9046875 C44.5027606,16.2970332 44.7256365,16.4932031 45.0385246,16.4932031 C45.3556989,16.4932031 45.5796463,16.2907051 45.7103736,15.8857031 C45.8411008,15.4807011 45.9064635,14.7677395 45.9064635,13.7467969 C45.9064635,12.7216355 45.8400293,12.0034005 45.707159,11.5920703 C45.5742887,11.1807401 45.3514128,10.9750781 45.0385246,10.9750781 C44.7256365,10.9750781 44.5027606,11.1733574 44.3698903,11.5699219 C44.23702,11.9664864 44.1705858,12.6921041 44.1705858,13.7467969 Z M52.5928071,15.8730469 L52.5928071,13.8986719 L56.2252918,13.8986719 L56.2252918,15.8730469 L52.5928071,15.8730469 Z M66.8205747,11.1142969 C66.8205747,11.6880497 66.6427026,12.1805839 66.2869531,12.5919141 C65.9312035,13.0032442 65.4168745,13.3017178 64.7439507,13.4873437 L64.7439507,13.5253125 C66.3126776,13.719376 67.0970293,14.4492124 67.0970293,15.7148437 C67.0970293,16.5754731 66.7509288,17.2525757 66.0587173,17.7461719 C65.3665058,18.2397681 64.4053535,18.4865625 63.1752316,18.4865625 C62.6694672,18.4865625 62.2012135,18.4507035 61.7704565,18.3789844 C61.3396996,18.3072653 60.8735889,18.1764853 60.3721107,17.9866406 L60.3721107,15.9110156 C60.78358,16.1177354 61.2025438,16.2706636 61.6290147,16.3698047 C62.0554855,16.4689458 62.4487329,16.5185156 62.8087686,16.5185156 C63.3659666,16.5185156 63.7720722,16.4415242 64.0270975,16.2875391 C64.2821228,16.1335539 64.4096335,15.8920329 64.4096335,15.5629687 C64.4096335,15.3098425 64.3431994,15.1147272 64.210329,14.9776172 C64.0774587,14.8405071 63.863155,14.7371488 63.5674114,14.6675391 C63.2716678,14.5979293 62.8859211,14.563125 62.4101596,14.563125 L61.8315337,14.563125 L61.8315337,12.6836719 L62.423018,12.6836719 C63.7131458,12.6836719 64.3582001,12.3588314 64.3582001,11.7091406 C64.3582001,11.4644519 64.2628349,11.2830475 64.0721017,11.1649219 C63.8813686,11.0467963 63.6252756,10.9877344 63.3038151,10.9877344 C62.7037557,10.9877344 62.0822748,11.1860136 61.439354,11.5825781 L60.384969,9.91195312 C60.8821611,9.57445144 61.3911325,9.33398509 61.9118984,9.19054687 C62.4326643,9.04710866 63.0295003,8.97539062 63.7024241,8.97539062 C64.6753777,8.97539062 65.438299,9.16523248 65.9912109,9.54492187 C66.5441229,9.92461127 66.8205747,10.447731 66.8205747,11.1142969 Z M74.9213371,13.3417969 C74.9213371,15.1516497 74.5248752,16.4615584 73.7319395,17.2715625 C72.9390037,18.0815665 71.6703256,18.4865625 69.925867,18.4865625 C69.3515243,18.4865625 68.9143447,18.465469 68.614315,18.4232812 L68.614315,16.4425781 C68.9829229,16.5100785 69.3515254,16.5438281 69.7201333,16.5438281 C70.6287948,16.5438281 71.329568,16.3592597 71.822474,15.9901172 C72.31538,15.6209747 72.5832597,15.0377384 72.6261211,14.2403906 L72.548971,14.2403906 C72.3818116,14.5441421 72.2167977,14.7635149 72.0539244,14.8985156 C71.8910511,15.0335163 71.6917486,15.1368746 71.456011,15.2085937 C71.2202733,15.2803129 70.9266772,15.3161719 70.5752138,15.3161719 C69.7608474,15.3161719 69.1243653,15.0482839 68.6657484,14.5125 C68.2071315,13.9767161 67.9778265,13.2384422 67.9778265,12.2976562 C67.9778265,11.2724949 68.2746372,10.468831 68.8682674,9.88664062 C69.4618977,9.30445021 70.2751804,9.01335937 71.3081399,9.01335937 C72.4568252,9.01335937 73.3461857,9.38882437 73.9762482,10.1397656 C74.6063106,10.8907069 74.9213371,11.95804 74.9213371,13.3417969 Z M71.3788609,11.0130469 C71.1002618,11.0130469 70.8741714,11.1121865 70.7005827,11.3104687 C70.5269941,11.508751 70.4402011,11.8272634 70.4402011,12.2660156 C70.4402011,12.6119549 70.5152074,12.8872255 70.6652223,13.0918359 C70.8152371,13.2964463 71.0445421,13.39875 71.3531442,13.39875 C71.6317432,13.39875 71.8739064,13.2996104 72.0796411,13.1013281 C72.2853758,12.9030459 72.3882416,12.6646889 72.3882416,12.38625 C72.3882416,12.0107794 72.2928764,11.6880482 72.1021432,11.4180469 C71.91141,11.1480455 71.6703183,11.0130469 71.3788609,11.0130469 Z"/>
        <ellipse cx="13.716" cy="13.5" fill="#97D05E" rx="13.716" ry="13.5"/>
        <path fill="#FFFFFF" d="M9.83670972,18.7049063 C9.87607243,18.7615401 9.92094166,18.8154924 9.97131634,18.8660143 L11.3599601,20.2587153 C11.82107,20.7211723 12.5684145,20.7206259 13.0296987,20.257994 L22.0317362,11.2296553 C22.4933831,10.7666596 22.4933423,10.0172719 22.0324554,9.55503833 L20.6438116,8.16233733 C20.1827017,7.69988029 19.4353572,7.70042675 18.974073,8.16305864 L12.1663961,14.9906255 L8.41558322,11.2288538 C7.95420147,10.7661241 7.207635,10.766596 6.74687658,11.2287006 L5.398857,12.5806587 C4.93749671,13.0433669 4.93816698,13.7920515 5.39900979,14.2542408 L9.83670972,18.7049063 L9.83670972,18.7049063 Z"/>
      </g>
      <g transform="translate(184 135)">
        <use fill="#EEEEEE" xlink:href="#c"/>
        <ellipse cx="13.716" cy="13.5" stroke="#C7C7C7" rx="13.216" ry="13"/>
        <path fill="#829FB0" d="M40.9817142,16.0291406 L39.9466168,16.0291406 L39.9466168,17.82 L37.439238,17.82 L37.439238,16.0291406 L33.6910281,16.0291406 L33.6910281,14.1939844 L37.5999674,8.56828125 L39.9466168,8.56828125 L39.9466168,14.1623437 L40.9817142,14.1623437 L40.9817142,16.0291406 Z M37.439238,14.1623437 L37.439238,13.0865625 C37.439238,12.8840615 37.4467386,12.6109002 37.4617401,12.2670703 C37.4767416,11.9232405 37.4885283,11.7428907 37.4971006,11.7260156 L37.4263796,11.7260156 C37.2806509,12.050861 37.115637,12.354608 36.931333,12.6372656 L35.8898064,14.1623437 L37.439238,14.1623437 Z M48.4331298,13.2067969 C48.4331298,14.8436801 48.154535,16.0428478 47.5973369,16.8043359 C47.0401388,17.5658241 46.1872099,17.9465625 45.0385246,17.9465625 C43.9155562,17.9465625 43.0690564,17.5489493 42.4989999,16.7537109 C41.9289434,15.9584726 41.6439194,14.7761797 41.6439194,13.2067969 C41.6439194,11.5614761 41.9225143,10.3549257 42.4797124,9.58710937 C43.0369105,8.81929304 43.8898394,8.43539062 45.0385246,8.43539062 C46.1572069,8.43539062 47.0026352,8.83511319 47.5748348,9.63457031 C48.1470343,10.4340274 48.4331298,11.6247577 48.4331298,13.2067969 Z M44.1705858,13.2067969 C44.1705858,14.2530521 44.23702,14.9723418 44.3698903,15.3646875 C44.5027606,15.7570332 44.7256365,15.9532031 45.0385246,15.9532031 C45.3556989,15.9532031 45.5796463,15.7507051 45.7103736,15.3457031 C45.8411008,14.9407011 45.9064635,14.2277395 45.9064635,13.2067969 C45.9064635,12.1816355 45.8400293,11.4634005 45.707159,11.0520703 C45.5742887,10.6407401 45.3514128,10.4350781 45.0385246,10.4350781 C44.7256365,10.4350781 44.5027606,10.6333574 44.3698903,11.0299219 C44.23702,11.4264864 44.1705858,12.1521041 44.1705858,13.2067969 Z M52.5928071,15.3330469 L52.5928071,13.3586719 L56.2252918,13.3586719 L56.2252918,15.3330469 L52.5928071,15.3330469 Z M67.4377757,16.0291406 L66.4026782,16.0291406 L66.4026782,17.82 L63.8952994,17.82 L63.8952994,16.0291406 L60.1470895,16.0291406 L60.1470895,14.1939844 L64.0560288,8.56828125 L66.4026782,8.56828125 L66.4026782,14.1623437 L67.4377757,14.1623437 L67.4377757,16.0291406 Z M63.8952994,14.1623437 L63.8952994,13.0865625 C63.8952994,12.8840615 63.9028,12.6109002 63.9178015,12.2670703 C63.932803,11.9232405 63.9445897,11.7428907 63.953162,11.7260156 L63.882441,11.7260156 C63.7367123,12.050861 63.5716984,12.354608 63.3873944,12.6372656 L62.3458678,14.1623437 L63.8952994,14.1623437 Z M74.9213371,12.8017969 C74.9213371,14.6116497 74.5248752,15.9215585 73.7319395,16.7315625 C72.9390037,17.5415666 71.6703256,17.9465625 69.925867,17.9465625 C69.3515243,17.9465625 68.9143447,17.925469 68.614315,17.8832813 L68.614315,15.9025781 C68.9829229,15.9700785 69.3515254,16.0038281 69.7201333,16.0038281 C70.6287948,16.0038281 71.329568,15.8192597 71.822474,15.4501172 C72.31538,15.0809747 72.5832597,14.4977384 72.6261211,13.7003906 L72.548971,13.7003906 C72.3818116,14.0041421 72.2167977,14.223515 72.0539244,14.3585156 C71.8910511,14.4935163 71.6917486,14.5968746 71.456011,14.6685938 C71.2202733,14.7403129 70.9266772,14.7761719 70.5752138,14.7761719 C69.7608474,14.7761719 69.1243653,14.5082839 68.6657484,13.9725 C68.2071315,13.4367161 67.9778265,12.6984422 67.9778265,11.7576562 C67.9778265,10.7324949 68.2746372,9.92883104 68.8682674,9.34664062 C69.4618977,8.76445021 70.2751804,8.47335937 71.3081399,8.47335937 C72.4568252,8.47335937 73.3461857,8.84882437 73.9762482,9.59976562 C74.6063106,10.3507069 74.9213371,11.41804 74.9213371,12.8017969 Z M71.3788609,10.4730469 C71.1002618,10.4730469 70.8741714,10.5721865 70.7005827,10.7704687 C70.5269941,10.968751 70.4402011,11.2872634 70.4402011,11.7260156 C70.4402011,12.0719549 70.5152074,12.3472255 70.6652223,12.5518359 C70.8152371,12.7564463 71.0445421,12.85875 71.3531442,12.85875 C71.6317432,12.85875 71.8739064,12.7596104 72.0796411,12.5613281 C72.2853758,12.3630459 72.3882416,12.1246889 72.3882416,11.84625 C72.3882416,11.4707794 72.2928764,11.1480482 72.1021432,10.8780469 C71.91141,10.6080455 71.6703183,10.4730469 71.3788609,10.4730469 Z"/>
      </g>
      <path fill="#CDCBC3" d="M0.0321848027,205 C0.0321848027,205 -0.836073561,217 6.44681771,217 L362.552507,217 C369.842883,217 368.967139,205 368.967139,205 L0.0321848027,205 Z"/>
      <polygon fill="#E3E1D7" points="36.845 198 332.155 198 369 205 0 205"/>
    </g>
  </g>
</svg>
