<svg xmlns="http://www.w3.org/2000/svg" width="466" height="466" viewBox="0 0 466 466">
  <g fill="none" fill-rule="evenodd" transform="rotate(90 233 233)">
    <circle cx="233" cy="233" r="233" fill="#F4EEE6"/>
    <g transform="translate(112 138)">
      <rect width="98" height="186" y="4" fill="#000000" rx="49"/>
      <rect width="86" height="162" x="6" y="21" fill="#83E78B" rx="43"/>
      <ellipse cx="49" cy="53.5" fill="#000000" rx="49" ry="49.5"/>
      <ellipse cx="53" cy="49.5" fill="#000000" opacity=".15" rx="49" ry="49.5"/>
      <path fill="#FFFFFF" d="M48.5,96 C71.9721019,96 91,76.9721019 91,53.5 C91,30.0278981 71.9721019,11 48.5,11 C25.0278981,11 6,30.0278981 6,53.5 C6,76.9721019 25.0278981,96 48.5,96 Z"/>
      <rect width="33" height="7" x="32" y="139" fill="#000000" rx="3.5"/>
    </g>
    <g transform="translate(246 142)">
      <rect width="98" height="186" fill="#000000" rx="49"/>
      <rect width="86" height="178" x="6" y="7" fill="#E78383" rx="43"/>
      <ellipse cx="49" cy="137.5" fill="#000000" rx="49" ry="49.5"/>
      <ellipse cx="53" cy="133.5" fill="#000000" opacity=".15" rx="49" ry="49.5"/>
      <circle cx="49" cy="137" r="42" fill="#FFFFFF"/>
    </g>
  </g>
</svg>
