<svg xmlns="http://www.w3.org/2000/svg" width="403" height="420" viewBox="0 0 403 420">
  <g fill="none" fill-rule="evenodd">
    <circle cx="201.5" cy="201.5" r="201.5" fill="#E6F4E7"/>
    <g transform="translate(62.55 76.676)">
      <path fill="#686563" d="M25.2117517,0 L253.58204,0 L253.58204,0 C256.895748,-1.53245403e-14 259.58204,2.6862915 259.58204,6 L259.58204,161.289357 L19.2117517,161.289357 L19.2117517,6 L19.2117517,6 C19.2117517,2.6862915 21.8980432,6.08718376e-16 25.2117517,0 Z"/>
      <rect width="220.881" height="142.561" x="29.148" y="9.555" fill="#FFFFFF"/>
      <g transform="translate(37.977 50.04)">
        <rect width="167.098" height="52.274" fill="#BAB9B5"/>
        <rect width="95.165" height="7.595" y="58.976" fill="#686563"/>
        <rect width="57.188" height="1.787" y="71.932" fill="#686563"/>
        <rect width="57.188" height="1.787" y="86.229" fill="#686563"/>
        <rect width="43.785" height="1.787" y="79.081" fill="#686563"/>
        <rect width="43.785" height="1.787" y="93.378" fill="#686563"/>
      </g>
      <path fill="#686563" d="M37.9767184,27.4877222 L41.918233,27.4877222 L44.9061554,32.7801592 L44.9697282,32.7801592 L44.9697282,27.4877222 L48.0847963,27.4877222 L48.0847963,38.5017127 L44.6200777,38.5017127 L41.1553592,32.4305087 L41.0917864,32.4305087 L41.0917864,38.5017127 L37.9767184,38.5017127 L37.9767184,27.4877222 Z M52.7215755,34.1787611 L49.256857,27.4877222 L53.1824784,27.4877222 L54.8194784,30.9842271 L54.8671581,30.9842271 L56.5041581,27.4877222 L59.8576242,27.4877222 L56.4246921,34.1787611 L56.4246921,38.5017127 L52.7215755,38.5017127 L52.7215755,34.1787611 Z M61.0455781,27.4877222 L64.7486947,27.4877222 L64.7486947,31.5722756 L67.5300054,31.5722756 L67.5300054,27.4877222 L71.233122,27.4877222 L71.233122,38.5017127 L67.5300054,38.5017127 L67.5300054,34.1628679 L64.7486947,34.1628679 L64.7486947,38.5017127 L61.0455781,38.5017127 L61.0455781,27.4877222 Z M73.1044837,27.4877222 L81.0987654,27.4877222 L81.0987654,30.046528 L76.7599207,30.046528 L76.7599207,31.6517417 L80.1769596,31.6517417 L80.1769596,34.1628679 L76.7599207,34.1628679 L76.7599207,35.9429068 L81.305377,35.9429068 L81.305377,38.5017127 L73.1044837,38.5017127 L73.1044837,27.4877222 Z M85.0998165,30.046528 L82.3502922,30.046528 L82.3502922,27.4877222 L91.5683506,27.4877222 L91.5683506,30.046528 L88.802933,30.046528 L88.802933,38.5017127 L85.0998165,38.5017127 L85.0998165,30.046528 Z M92.9311298,27.4877222 L100.925411,27.4877222 L100.925411,30.046528 L96.5865667,30.046528 L96.5865667,31.6517417 L100.003606,31.6517417 L100.003606,34.1628679 L96.5865667,34.1628679 L96.5865667,35.9429068 L101.132023,35.9429068 L101.132023,38.5017127 L92.9311298,38.5017127 L92.9311298,27.4877222 Z M102.685521,27.4877222 L106.627035,27.4877222 L109.614958,32.7801592 L109.678531,32.7801592 L109.678531,27.4877222 L112.793599,27.4877222 L112.793599,38.5017127 L109.32888,38.5017127 L105.864162,32.4305087 L105.800589,32.4305087 L105.800589,38.5017127 L102.685521,38.5017127 L102.685521,27.4877222 Z M114.66496,27.4877222 L122.659242,27.4877222 L122.659242,30.046528 L118.320397,30.046528 L118.320397,31.6517417 L121.737436,31.6517417 L121.737436,34.1628679 L118.320397,34.1628679 L118.320397,35.9429068 L122.865854,35.9429068 L122.865854,38.5017127 L114.66496,38.5017127 L114.66496,27.4877222 Z"/>
      <path fill="#CDCBC3" d="M0.0242778957,161.289357 C0.0242778957,161.289357 -0.63067364,173.35255 4.86301467,173.35255 L273.483482,173.35255 C278.982817,173.35255 278.322219,161.289357 278.322219,161.289357 L0.0242778957,161.289357 Z"/>
    </g>
    <g transform="rotate(12 -574.374 1375.15)">
      <g>
        <rect width="111.696" height="146.099" fill="#686563" rx="6"/>
        <rect width="102.761" height="122.419" x="4.468" y="12.063" fill="#FFFFFF"/>
        <g transform="translate(11.616 34.85)">
          <rect width="87.123" height="30.828" fill="#BAB9B5"/>
          <rect width="19.212" height="30.828" x="67.911" y="49.146" fill="#BAB9B5"/>
          <rect width="73.72" height="7.595" y="36.19" fill="#686563"/>
          <rect width="57.188" height="1.787" y="49.146" fill="#686563"/>
          <rect width="57.188" height="1.787" y="63.443" fill="#686563"/>
          <rect width="43.785" height="1.787" y="56.295" fill="#686563"/>
          <rect width="43.785" height="1.787" y="70.592" fill="#686563"/>
          <rect width="57.188" height="1.787" y="77.741" fill="#686563"/>
          <rect width="43.785" height="1.787" y="84.889" fill="#686563"/>
        </g>
        <path fill="#686563" d="M11.616408,19.4455936 L14.5621715,19.4455936 L16.7952504,23.4009938 L16.8427627,23.4009938 L16.8427627,19.4455936 L19.1708662,19.4455936 L19.1708662,27.6771022 L16.581445,27.6771022 L13.9920238,23.1396761 L13.9445114,23.1396761 L13.9445114,27.6771022 L11.616408,27.6771022 L11.616408,19.4455936 Z M22.6362485,24.4462648 L20.0468273,19.4455936 L22.9807128,19.4455936 L24.204155,22.0587709 L24.2397892,22.0587709 L25.4632313,19.4455936 L27.969506,19.4455936 L25.4038409,24.4462648 L25.4038409,27.6771022 L22.6362485,27.6771022 L22.6362485,24.4462648 Z M28.8573452,19.4455936 L31.6249376,19.4455936 L31.6249376,22.4982598 L33.7036014,22.4982598 L33.7036014,19.4455936 L36.4711938,19.4455936 L36.4711938,27.6771022 L33.7036014,27.6771022 L33.7036014,24.4343867 L31.6249376,24.4343867 L31.6249376,27.6771022 L28.8573452,27.6771022 L28.8573452,19.4455936 Z M37.8697905,19.4455936 L43.8444642,19.4455936 L43.8444642,21.3579643 L40.6017486,21.3579643 L40.6017486,22.5576502 L43.1555356,22.5576502 L43.1555356,24.4343867 L40.6017486,24.4343867 L40.6017486,25.7647315 L43.9988792,25.7647315 L43.9988792,27.6771022 L37.8697905,27.6771022 L37.8697905,19.4455936 Z M46.8347234,21.3579643 L44.7798157,21.3579643 L44.7798157,19.4455936 L51.6691015,19.4455936 L51.6691015,21.3579643 L49.6023158,21.3579643 L49.6023158,27.6771022 L46.8347234,27.6771022 L46.8347234,21.3579643 Z M52.6875996,19.4455936 L58.6622733,19.4455936 L58.6622733,21.3579643 L55.4195578,21.3579643 L55.4195578,22.5576502 L57.9733447,22.5576502 L57.9733447,24.4343867 L55.4195578,24.4343867 L55.4195578,25.7647315 L58.8166883,25.7647315 L58.8166883,27.6771022 L52.6875996,27.6771022 L52.6875996,19.4455936 Z M59.9777234,19.4455936 L62.923487,19.4455936 L65.1565658,23.4009938 L65.2040781,23.4009938 L65.2040781,19.4455936 L67.5321816,19.4455936 L67.5321816,27.6771022 L64.9427604,27.6771022 L62.3533392,23.1396761 L62.3058269,23.1396761 L62.3058269,27.6771022 L59.9777234,27.6771022 L59.9777234,19.4455936 Z M68.9307782,19.4455936 L74.9054519,19.4455936 L74.9054519,21.3579643 L71.6627364,21.3579643 L71.6627364,22.5576502 L74.2165234,22.5576502 L74.2165234,24.4343867 L71.6627364,24.4343867 L71.6627364,25.7647315 L75.059867,25.7647315 L75.059867,27.6771022 L68.9307782,27.6771022 L68.9307782,19.4455936 Z"/>
      </g>
      <circle cx="55.848" cy="5.808" r="1.34" fill="#FFFFFF"/>
      <circle cx="55.848" cy="140.737" r="3.127" fill="#FFFFFF"/>
    </g>
    <g transform="translate(52.769 180.34)">
      <rect width="53.614" height="105.441" fill="#686563" rx="6"/>
      <rect width="48.253" height="84.889" x="2.681" y="8.936" fill="#FFFFFF"/>
      <rect width="39.317" height="30.828" x="7.149" y="25.02" fill="#BAB9B5"/>
      <rect width="33.509" height="5.361" x="7.149" y="58.976" fill="#686563"/>
      <rect width="39.317" height="1.787" x="7.149" y="67.465" fill="#686563"/>
      <rect width="39.317" height="1.787" x="7.149" y="77.294" fill="#686563"/>
      <rect width="30.381" height="1.787" x="7.149" y="72.379" fill="#686563"/>
      <rect width="30.381" height="1.787" x="7.149" y="82.208" fill="#686563"/>
      <path fill="#686563" d="M7.14855876,14.0841745 L8.98353587,14.0841745 L10.3745669,16.5480752 L10.4041633,16.5480752 L10.4041633,14.0841745 L11.8543871,14.0841745 L11.8543871,19.2117517 L10.2413831,19.2117517 L8.62837901,16.385295 L8.5987826,16.385295 L8.5987826,19.2117517 L7.14855876,19.2117517 L7.14855876,14.0841745 Z M14.0130456,17.1991961 L12.4000415,14.0841745 L14.2276195,14.0841745 L14.9897269,15.7119768 L15.0119242,15.7119768 L15.7740317,14.0841745 L17.335242,14.0841745 L15.7370362,17.1991961 L15.7370362,19.2117517 L14.0130456,19.2117517 L14.0130456,17.1991961 Z M17.8882955,14.0841745 L19.6122861,14.0841745 L19.6122861,15.9857435 L20.9071288,15.9857435 L20.9071288,14.0841745 L22.6311194,14.0841745 L22.6311194,19.2117517 L20.9071288,19.2117517 L20.9071288,17.191797 L19.6122861,17.191797 L19.6122861,19.2117517 L17.8882955,19.2117517 L17.8882955,14.0841745 Z M23.5023342,14.0841745 L27.2240821,14.0841745 L27.2240821,15.2754298 L25.2041275,15.2754298 L25.2041275,16.022739 L26.7949342,16.022739 L26.7949342,17.191797 L25.2041275,17.191797 L25.2041275,18.0204964 L27.3202704,18.0204964 L27.3202704,19.2117517 L23.5023342,19.2117517 L23.5023342,14.0841745 Z M29.0867765,15.2754298 L27.806732,15.2754298 L27.806732,14.0841745 L32.0982107,14.0841745 L32.0982107,15.2754298 L30.8107671,15.2754298 L30.8107671,19.2117517 L29.0867765,19.2117517 L29.0867765,15.2754298 Z M32.7326543,14.0841745 L36.4544022,14.0841745 L36.4544022,15.2754298 L34.4344476,15.2754298 L34.4344476,16.022739 L36.0252543,16.022739 L36.0252543,17.191797 L34.4344476,17.191797 L34.4344476,18.0204964 L36.5505905,18.0204964 L36.5505905,19.2117517 L32.7326543,19.2117517 L32.7326543,14.0841745 Z M37.2738233,14.0841745 L39.1088004,14.0841745 L40.4998314,16.5480752 L40.5294278,16.5480752 L40.5294278,14.0841745 L41.9796517,14.0841745 L41.9796517,19.2117517 L40.3666476,19.2117517 L38.7536435,16.385295 L38.7240471,16.385295 L38.7240471,19.2117517 L37.2738233,19.2117517 L37.2738233,14.0841745 Z M42.8508665,14.0841745 L46.5726144,14.0841745 L46.5726144,15.2754298 L44.5526598,15.2754298 L44.5526598,16.022739 L46.1434665,16.022739 L46.1434665,17.191797 L44.5526598,17.191797 L44.5526598,18.0204964 L46.6688027,18.0204964 L46.6688027,19.2117517 L42.8508665,19.2117517 L42.8508665,14.0841745 Z"/>
      <circle cx="27.254" cy="4.915" r="1.34" fill="#FFFFFF"/>
      <circle cx="27.701" cy="99.633" r="3.127" fill="#FFFFFF"/>
    </g>
    <g transform="translate(83.996 205.16)">
      <g fill="#FBCAB7" transform="translate(34.85 87.037)">
        <ellipse cx="147.9" cy="15.637" rx="15.623" ry="15.637"/>
        <ellipse cx="15.623" cy="15.637" rx="15.623" ry="15.637"/>
      </g>
      <rect width="28.147" height="44.678" x="101.867" y="153.161" fill="#F6C5B2"/>
      <path fill="#FED0BE" d="M56.4984811,88.3080112 C60.0963336,84.8373341 79.2667263,83.1019956 114.009659,83.1019956 C148.752592,83.1019956 169.317195,84.8373341 175.703468,88.3080112 L177.950487,117.63513 L177.950487,117.63513 C180.54556,151.504921 155.192392,181.065536 121.3226,183.660609 C119.759199,183.780396 118.191788,183.840355 116.623804,183.840355 L116.623804,183.840355 L116.623804,183.840355 C82.2818372,183.840355 54.4421727,156.00069 54.4421727,121.658724 C54.4421727,120.299325 54.486751,118.940291 54.5758356,117.583814 L56.4984811,88.3080112 Z"/>
      <ellipse cx="116.151" cy="92.546" fill="#FEC400" rx="81.401" ry="81.357"/>
      <g transform="translate(.286)">
        <ellipse cx="80.84" cy="27.878" fill="#D0011B" rx="21.916" ry="21.904"/>
        <path fill="#FEB100" d="M36.6765638,0.0364700722 C38.4751269,0.0920418782 72.1589587,-3.09266213 72.1589587,41.7582327 C72.1589587,86.6091276 70.071759,145.019595 88.8565563,214.903548 C88.8565563,214.903548 38.7637635,176.310917 10.5865676,94.9534801 C10.5865676,94.9534801 0.150569132,62.619114 0.150569132,33.4138802 C0.150569132,5.2516904 10.5865676,0.0920418782 36.6765638,0.0364700722 Z" transform="matrix(-1 0 0 1 89.007 0)"/>
      </g>
    </g>
  </g>
</svg>
