<?xml version="1.0" encoding="utf-8"?>
<!-- Generator: Adobe Illustrator 16.0.0, SVG Export Plug-In . SVG Version: 6.00 Build 0)  -->
<!DOCTYPE svg PUBLIC "-//W3C//DTD SVG 1.1//EN" "http://www.w3.org/Graphics/SVG/1.1/DTD/svg11.dtd">
<svg version="1.1" id="Layer_1" xmlns="http://www.w3.org/2000/svg" xmlns:xlink="http://www.w3.org/1999/xlink" x="0px" y="0px"
 viewBox="0 0 61 22" enable-background="new 0 0 61 22" xml:space="preserve" preserveAspectRatio="xMinYMid meet">
<path fill="#FFFFFF" d="M5.628,1.33h-2.94L2.16,5.536H0v2.369h2.186v7.689c0,2.708,1.457,3.939,4.449,3.939
	c1.206,0,2.085-0.168,2.738-0.58v-2.126C8.82,16.995,8.267,17.02,7.715,17.02c-1.534,0-2.087-0.458-2.087-2.007V7.904h3.87V5.536
	h-3.87V1.33z M24.578,13.068c0.02-0.286,0.031-0.579,0.031-0.885c0-4.858-2.464-7.204-5.73-7.204c-1.987,0-3.596,0.726-4.575,2.321
	c0,0,0.024-1.039,0.024-1.812V0h-3.392v19.341h2.614l0.476-1.764c1.056,1.304,2.565,1.982,4.474,1.982
	c1.206,0,2.316-0.305,3.256-0.908c-0.057-0.306-0.091-0.615-0.091-0.936C21.666,15.699,22.849,13.947,24.578,13.068z M17.646,17.093
	c-1.206,0-2.31-0.46-3.266-1.378V9.671c0.754-1.596,2.086-2.176,3.292-2.176c1.935,0,3.367,1.522,3.367,4.715
	C21.04,15.375,20.008,17.093,17.646,17.093z M39.842,4.979c-2.261,0-3.971,0.92-4.774,2.37l-0.201-1.909h-3.092v9.606
	c0.489,0.798,0.756,1.712,0.756,2.669c0,0.562-0.094,1.106-0.267,1.625h2.955V9.719c0.652-1.015,1.81-2.103,3.341-2.103
	c1.812,0,2.69,0.845,2.69,2.876v8.849h3.467v-9.55C44.717,6.842,43.06,4.979,39.842,4.979z M53.012,4.811
	c-4.271,0-7.037,3.093-7.037,7.469c0,4.353,2.766,7.471,7.037,7.471c4.348,0,7.087-3.118,7.087-7.494
	C60.099,7.904,57.311,4.811,53.012,4.811z M53.012,17.577c-2.413,0-3.544-2.057-3.544-5.272c0-3.142,1.157-5.221,3.544-5.221
	c2.438,0,3.569,2.079,3.569,5.245C56.581,15.521,55.425,17.577,53.012,17.577z M27.097,13.791c-1.081,0-2.063,0.406-2.797,1.061
	c-0.759,0.679-1.247,1.626-1.297,2.684c-0.003,0.061-0.01,0.119-0.01,0.181c0,2.162,1.842,3.923,4.104,3.923
	c1.106,0,2.143-0.41,2.916-1.155c0.767-0.736,1.189-1.72,1.189-2.768c0-1.049-0.423-2.031-1.189-2.77
	C29.239,14.202,28.203,13.791,27.097,13.791z"/>
</svg>
