<svg xmlns="http://www.w3.org/2000/svg" width="627" height="627" viewBox="0 0 627 627">
  <g fill="none" fill-rule="evenodd">
    <circle cx="313.5" cy="313.5" r="313.5" fill="#FFFFFF"/>
    <g transform="translate(239 418)">
      <path fill="#6E6F72" d="M15,0 C20.3333333,13.8727273 23,47.5636364 23,101.072727 C27.6666667,109 38,110.981818 54,107.018182 C54,43.6 55,7.92727273 57,0 L15,0 Z"/>
      <path fill="#66B7E6" d="M28.5,137 C44.2401154,137 57,131.02459 57,119.07377 C57,98.1598361 56.8823941,101.147541 28.5,101.147541 C12,101.147541 0,112.161092 0,122.061475 C9.59854078e-16,131.961859 12.7598846,137 28.5,137 Z"/>
      <g transform="matrix(-1 0 0 1 121 0)">
        <path fill="#6E6F72" d="M15,0 C20.3333333,13.8727273 23,47.5636364 23,101.072727 C27.6666667,109 38,110.981818 54,107.018182 C54,43.6 55,7.92727273 57,0 L15,0 Z"/>
        <path fill="#66B7E6" d="M28.5,137 C44.2401154,137 57,131.02459 57,119.07377 C57,98.1598361 56.8823941,101.147541 28.5,101.147541 C12,101.147541 0,112.161092 0,122.061475 C9.59854078e-16,131.961859 12.7598846,137 28.5,137 Z"/>
      </g>
    </g>
    <g transform="translate(198 131)">
      <path fill="#66B7E7" d="M103.166667,291.557417 C103.010685,291.557175 58,291.557417 44,285 C36.9618549,281.703425 33.2537155,275.604489 33.2537155,266.2202 C38.8842887,221.175614 55.7760085,137.392175 52.9607219,140.207461 C51.0838641,142.084319 44.8768577,142.876858 43,141 C39.6698514,141 33.2537155,133 28,128 C24.7363729,124.893982 24.1231423,123.315742 26,117.685168 C31.6101404,95.2446068 60.2913152,85.8468692 103.166667,89.4919554 C146.042018,85.8468692 158,95 170,99 C171.876858,104.630573 173.079618,124 170,130 C168.123142,131.876858 156.249469,145.084319 154.372611,143.207461 C151.557325,140.392175 167.449045,221.175614 173.079618,266.2202 C173.079618,275.604489 168.767467,281.617765 161.818471,285.11192 C149,291.557417 103.322648,291.557658 103.166667,291.557417 Z"/>
      <g fill="#FED0BE" transform="translate(0 126)">
        <path d="M26,0 C9.88707281,11.7101449 1.24814264,26.3333333 0.0832095097,43.8695652 C-1.08172363,61.4057971 9.98514116,81.2801932 33.2838039,103.492754 C35.6136701,105.830918 39.1084695,107 43.7682021,107 L56,89.4637681 C49.0104012,88.294686 43.1857355,85.3719807 38.526003,80.6956522 C31.5364042,73.6811594 21.0520059,56.1449275 21.0520059,43.8695652 C21.0520059,35.6859903 28.0346706,26.0628019 42,15 L26,0 Z"/>
        <path fill-rule="nonzero" d="M44.4502979,101.049339 C43.3585417,100.288314 42.7628962,98.9392698 43.0419296,97.5625501 C43.4152378,95.7206893 45.2143757,94.5187324 47.0795618,94.8512143 C46.4571749,94.2144903 46.0837804,93.3407817 46.1081272,92.3838917 C46.1564853,90.4832917 47.755658,88.9742518 49.6799793,89.0133566 C56.2270077,89.1464012 61.1571065,90.2776938 64.5125146,92.5940507 C66.0868224,93.6808511 66.465117,95.8262662 65.3574592,97.3859695 C64.2498014,98.9456728 62.0756386,99.3290363 60.5013308,98.2422359 C58.7424022,97.0279853 55.724387,96.2308173 51.4751883,95.9741428 C55.9956923,97.4267274 59.808628,99.6612879 62.8736059,102.68574 C64.2352756,104.029405 64.2352756,106.207916 62.8736059,107.551581 C61.5119363,108.895247 59.3042336,108.895247 57.9425639,107.551581 C55.1964491,104.841777 51.5543417,102.940896 46.9456111,101.86278 C49.9953889,102.984353 52.3983974,104.391382 54.1566729,106.126409 C55.5183425,107.470074 55.5183425,109.648586 54.1566729,110.992251 C52.7950032,112.335916 50.5873005,112.335916 49.2256309,110.992251 C47.4788007,109.268518 44.0017491,107.798057 38.8036331,106.77218 C36.9153371,106.399514 35.690724,104.586883 36.0683832,102.723555 C36.4460424,100.860226 38.2829621,99.6518056 40.1712581,100.024471 C41.6971748,100.325619 43.1234805,100.666387 44.4502979,101.049339 Z"/>
      </g>
      <g fill="#FED0BE" transform="rotate(-137 130.267 37.685)">
        <path d="M40.2460462,0.874799714 C15.01301,19.9336975 1.81402535,38.2312624 0.64909222,55.7674943 C-0.515840915,73.3037262 16.4153131,94.0904456 51.4425543,118.127653 C53.7724206,120.465817 57.26722,121.634899 61.9269525,121.634899 L74.1587505,104.098667 C68.9129351,102.574881 63.0882694,99.6521752 56.6847534,95.3305511 C47.0794795,88.8481149 21.6178887,68.0428566 21.6178887,55.7674943 C21.6178887,47.5839194 33.2832614,35.1371842 56.6140069,18.4272886 L40.2460462,0.874799714 Z"/>
        <path fill-rule="nonzero" d="M65.7997493,116.245656 C64.707993,115.484631 64.1123475,114.135587 64.3913809,112.758867 C64.7646891,110.917006 66.5638271,109.715049 68.4290131,110.047531 C67.8066262,109.410807 67.4332317,108.537099 67.4575785,107.580209 C67.5059366,105.679609 69.1051093,104.170569 71.0294306,104.209674 C77.5764591,104.342718 82.5065579,105.474011 85.8619659,107.790368 C87.4362737,108.877168 87.8145683,111.022583 86.7069105,112.582286 C85.5992527,114.14199 83.4250899,114.525353 81.8507821,113.438553 C80.0918535,112.224302 77.0738383,111.427134 72.8246396,111.17046 C77.3451436,112.623044 81.1580793,114.857605 84.2230572,117.882057 C85.5847269,119.225722 85.5847269,121.404233 84.2230572,122.747898 C82.8613876,124.091564 80.6536849,124.091564 79.2920153,122.747898 C76.5459004,120.038094 72.903793,118.137213 68.2950625,117.059097 C71.3448402,118.18067 73.7478487,119.587699 75.5061242,121.322726 C76.8677938,122.666391 76.8677938,124.844903 75.5061242,126.188568 C74.1444545,127.532233 71.9367519,127.532233 70.5750822,126.188568 C68.828252,124.464835 65.3512004,122.994374 60.1530844,121.968497 C58.2647884,121.595831 57.0401753,119.7832 57.4178345,117.919872 C57.7954937,116.056543 59.6324134,114.848123 61.5207094,115.220788 C63.0466261,115.521936 64.4729318,115.862704 65.7997493,116.245656 Z M76.9635039,99.9947121 C73.4914655,102.132286 68.508916,103.004007 61.963897,102.794224 C60.0401663,102.732564 58.5221623,101.141898 58.5733401,99.2413719 C58.624518,97.3408458 60.2254976,95.8501502 62.1492283,95.9118101 C67.444889,96.0815481 71.1636058,95.4309409 73.2534204,94.1443384 C74.8824495,93.1414203 77.0335689,93.6380454 78.0580801,95.2535815 C79.0825914,96.8691176 78.5925329,98.991794 76.9635039,99.9947121 Z"/>
      </g>
      <circle cx="101.5" cy="147.5" r="5.5" fill="#3083B4"/>
      <circle cx="101.5" cy="178.5" r="5.5" fill="#3083B4"/>
      <circle cx="101.5" cy="209.5" r="5.5" fill="#3083B4"/>
      <path fill="#FED0BE" d="M102.505155,109 C109.667775,109 114.474227,101.177639 114.474227,72.9953917 C114.474227,44.8131449 108.667775,59.9907834 101.505155,59.9907834 C94.3425339,59.9907834 89.5360825,46.8131449 89.5360825,72.9953917 C89.5360825,99.1776385 95.3425339,109 102.505155,109 Z"/>
      <circle cx="102" cy="61" r="21" fill="#000000" fill-opacity=".07"/>
    </g>
    <g transform="translate(240 56)">
      <path fill="#FEB100" d="M109.85567,0.764976959 C111.170446,0.805733771 135.793814,-1.52995392 135.793814,31.3640553 C135.793814,64.2580645 134.268041,107.096774 148,158.35023 C148,158.35023 114.43299,126.986175 86.2061856,70.3778802 L86.2061856,29.8268853 C86.2061856,29.8268853 84.9397064,-0.00739457256 109.85567,0.764976959 Z"/>
      <ellipse cx="93.072" cy="28.304" fill="#D0011B" rx="16.021" ry="16.065"/>
      <ellipse cx="59.505" cy="72.673" fill="#FEC400" rx="59.505" ry="59.668"/>
      <ellipse cx="108.33" cy="99.447" fill="#FBCAB7" rx="11.443" ry="11.475"/>
      <ellipse cx="11.443" cy="99.447" fill="#FBCAB7" rx="11.443" ry="11.475"/>
      <path fill="#FED0BE" d="M16.0206186,69.6129032 C16.0206186,69.6129032 19.9579776,65.7880184 57.9793814,65.7880184 C96.0007853,65.7880184 102.989691,69.6129032 102.989691,69.6129032 L105.544443,109.869011 C107.082807,134.109539 88.6358841,153.760369 64.3515548,153.760369 L55.4216411,153.760369 C31.1330734,153.760369 12.5128654,134.097922 13.8325059,109.838222 L16.0206186,69.6129032 Z"/>
      <path fill="#FFFFFF" d="M40.0430699,108.626728 C44.8930536,108.626728 48.8247423,106.726791 48.8247423,102.598377 C48.8247423,98.4699628 44.8930536,95.1232218 40.0430699,95.1232218 C35.1930861,95.1232218 31.2613975,98.4699628 31.2613975,102.598377 C31.2613975,106.726791 35.1930861,108.626728 40.0430699,108.626728 Z" transform="rotate(-5 40.043 101.875)"/>
      <ellipse cx="40.499" cy="102.349" fill="#97C7FF" rx="5.588" ry="5.677"/>
      <ellipse cx="40.499" cy="102.349" fill="#4A4A4A" rx="3.611" ry="3.668"/>
      <circle cx="42" cy="101" r="1" fill="#FFFFFF"/>
      <path fill="#D69964" fill-rule="nonzero" d="M43.3928293,87.9707978 C37.9999529,87.1978403 33.4330229,88.1142455 29.7594401,90.746907 C29.1880318,91.1564049 29.0556838,91.9531178 29.4638326,92.5264149 C29.8719814,93.099712 30.6660693,93.2324975 31.2374776,92.8229995 C34.3449932,90.5960083 38.2544361,89.8115352 43.0332072,90.4964734 C43.7283554,90.5961086 44.3723885,90.1114871 44.4716954,89.414041 C44.5710023,88.716595 44.0879775,88.070433 43.3928293,87.9707978 Z"/>
      <path fill="#FFFFFF" d="M78.32026,108.626728 C83.2342575,108.626728 87.2178395,106.726791 87.2178395,102.598377 C87.2178395,98.4699628 83.2342575,95.1232218 78.32026,95.1232218 C73.4062625,95.1232218 69.4226804,98.4699628 69.4226804,102.598377 C69.4226804,106.726791 73.4062625,108.626728 78.32026,108.626728 Z" transform="rotate(5 78.32 101.875)"/>
      <ellipse cx="77.88" cy="102.349" fill="#97C7FF" rx="5.588" ry="5.677"/>
      <ellipse cx="77.88" cy="102.349" fill="#4A4A4A" rx="3.611" ry="3.668"/>
      <circle cx="79" cy="101" r="1" fill="#FFFFFF"/>
      <path fill="#D69964" fill-rule="nonzero" d="M87.5604604,87.862119 C82.167584,87.0891614 77.600654,88.0055667 73.9270713,90.6382281 C73.355663,91.0477261 73.223315,91.8444389 73.6314638,92.417736 C74.0396125,92.9910332 74.8337005,93.1238186 75.4051088,92.7143207 C78.5126243,90.4873295 82.4220673,89.7028563 87.2008384,90.3877946 C87.8959866,90.4874297 88.5400197,90.0028082 88.6393266,89.3053622 C88.7386335,88.6079161 88.2556086,87.9617541 87.5604604,87.862119 Z" transform="matrix(-1 0 0 1 162.047 0)"/>
      <path fill="#D69965" fill-rule="nonzero" d="M54.477094,118.881784 C57.5669964,120.50515 60.9288909,120.50515 64.4992584,118.89831 C64.8017904,118.762156 64.9303262,118.419852 64.7863513,118.133754 C64.6423763,117.847655 64.2804109,117.726102 63.977879,117.862256 C60.749613,119.315134 57.800268,119.315134 55.0663251,117.878781 C54.7734441,117.724908 54.4041132,117.824699 54.2414015,118.101671 C54.0786899,118.378642 54.184213,118.727911 54.477094,118.881784 Z"/>
      <path stroke="#FA6174" stroke-width="4" d="M46.5360825,129.281106 C55.186577,134.380952 63.8326251,134.380952 72.4742268,129.281106" stroke-linecap="round"/>
      <path fill="#FEC400" d="M50.138945 63.4930876C49.1217629 69.1029186 46.324512 73.1827957 41.7471924 75.7327189 34.8812131 79.5576037 57.0049244 74.9677419 60.0564708 63.4930876L50.138945 63.4930876zM64.7869397 63.4930876C64.0984443 67.2901881 62.205082 70.0517157 59.1068527 71.7776705 54.4595088 74.3666027 69.4342836 71.2598841 71.4997698 63.4930876L64.7869397 63.4930876z"/>
    </g>
  </g>
</svg>
