<svg xmlns="http://www.w3.org/2000/svg" width="30" height="19" viewBox="0 0 30 19">
  <g fill="none" fill-rule="evenodd">
    <polygon fill="#0F2B5C" points=".053 18.887 29.851 18.887 29.851 .113 .053 .113"/>
    <path fill="#D9222A" d="M17.634553,9.5 C17.634553,13.9866959 13.9829979,17.6233986 9.47839501,17.6233986 C4.97340541,17.6233986 1.32159252,13.9866959 1.32159252,9.5 C1.32159252,5.01343243 4.97340541,1.37634459 9.47839501,1.37634459 C13.9829979,1.37634459 17.634553,5.01343243 17.634553,9.5"/>
    <path fill="#EE9F2D" d="M20.4288067,1.37634459 C18.3209356,1.37634459 16.4007401,2.17267568 14.9529563,3.47905405 C14.658553,3.74531081 14.3834844,4.03287838 14.1299418,4.33906081 L15.7776466,4.33906081 C16.0027027,4.61199324 16.2102287,4.89891892 16.3994511,5.1994527 L13.5077505,5.1994527 C13.3348981,5.47559459 13.1775135,5.76252027 13.0379168,6.05984459 L16.8692848,6.05984459 C17.0002453,6.3382973 17.1154802,6.62509459 17.2147318,6.91985135 L12.6924699,6.91985135 C12.5982453,7.20010135 12.518973,7.48702703 12.4554262,7.77972973 L17.4513888,7.77972973 C17.5708773,8.33432432 17.634553,8.90971622 17.634553,9.5 C17.634553,10.4018581 17.4870936,11.2699527 17.2147318,12.0806622 L12.6924699,12.0806622 C12.7915925,12.3752905 12.9069563,12.6623446 13.037659,12.9411824 L16.8692848,12.9411824 C16.7293015,13.2377365 16.5726902,13.5249189 16.3988067,13.8014459 L13.5077505,13.8014459 C13.6964574,14.1010811 13.9043701,14.3883919 14.1299418,14.6609392 L15.777131,14.6609392 C15.5239751,14.9673784 15.2487775,15.2549459 14.953343,15.5212027 C16.4009979,16.8275811 18.3209356,17.6233986 20.4288067,17.6233986 C24.9334096,17.6233986 28.5852225,13.9866959 28.5852225,9.5 C28.5852225,5.01381757 24.9334096,1.37634459 20.4288067,1.37634459"/>
    <path fill="#0F2B5C" d="M7.57353846,10.3894054 C7.48073181,10.3788784 7.43961331,10.3755405 7.37580873,10.3755405 C6.87400832,10.3755405 6.6202079,10.5470541 6.6202079,10.8858446 C6.6202079,11.0944595 6.744079,11.2270743 6.9374262,11.2270743 C7.29821206,11.2270743 7.55819958,10.8850743 7.57353846,10.3894054 Z M8.21764241,11.8825743 L7.48382536,11.8825743 L7.50071102,11.5351824 C7.27694387,11.809527 6.9782869,11.940473 6.57264449,11.940473 C6.09288565,11.940473 5.76367983,11.567277 5.76367983,11.0252635 C5.76367983,10.2090338 6.33598753,9.73313514 7.31832017,9.73313514 C7.4189896,9.73313514 7.54750104,9.74250676 7.67936383,9.75906757 C7.70669023,9.64840541 7.71390852,9.60141892 7.71390852,9.54172297 C7.71390852,9.31988514 7.55974636,9.23669595 7.14611227,9.23669595 C6.71288565,9.23233108 6.35558004,9.33978378 6.20863617,9.3877973 C6.21804574,9.33208108 6.33160499,8.63408784 6.33160499,8.63408784 C6.77256549,8.50493919 7.06361746,8.45666892 7.39114761,8.45666892 C8.15177547,8.45666892 8.55458212,8.79661486 8.55367983,9.43927703 C8.55522661,9.61168919 8.52648233,9.82377027 8.48188358,10.10325 C8.40506029,10.5883919 8.24007069,11.6292838 8.21764241,11.8825743 L8.21764241,11.8825743 Z"/>
    <polyline fill="#0F2B5C" points="5.393 11.883 4.508 11.883 5.015 8.715 3.882 11.883 3.279 11.883 3.204 8.733 2.671 11.883 1.842 11.883 2.535 7.762 3.808 7.762 3.885 10.068 4.662 7.762 6.078 7.762 5.393 11.883"/>
    <path fill="#0F2B5C" d="M21.5230229 10.3894054C21.4300873 10.3788784 21.3894844 10.3755405 21.3258087 10.3755405 20.8236216 10.3755405 20.570079 10.5470541 20.570079 10.8858446 20.570079 11.0944595 20.6934345 11.2270743 20.8872973 11.2270743 21.2478254 11.2270743 21.5078129 10.8850743 21.5230229 10.3894054zM22.1675135 11.8825743L21.4338254 11.8825743 21.4504532 11.5351824C21.2266861 11.809527 20.9280291 11.940473 20.5227734 11.940473 20.0423701 11.940473 19.7136798 11.567277 19.7136798 11.0252635 19.7136798 10.2090338 20.2861164 9.73313514 21.2681913 9.73313514 21.3686029 9.73313514 21.4969854 9.74250676 21.6289771 9.75906757 21.6564324 9.64840541 21.6633929 9.60141892 21.6633929 9.54172297 21.6633929 9.31988514 21.5093597 9.23669595 21.0957256 9.23669595 20.662499 9.23233108 20.3051933 9.33978378 20.1579917 9.3877973 20.1677879 9.33208108 20.281605 8.63408784 20.281605 8.63408784 20.7224366 8.50493919 21.0136175 8.45666892 21.340632 8.45666892 22.1017755 8.45666892 22.5040665 8.79661486 22.5032931 9.43927703 22.5048399 9.61168919 22.4763534 9.82377027 22.4314969 10.10325 22.3550603 10.5883919 22.1895551 11.6292838 22.1675135 11.8825743L22.1675135 11.8825743zM12.1530312 11.8316081C11.9105738 11.9076081 11.7216091 11.940473 11.51679 11.940473 11.0640998 11.940473 10.8170021 11.6814054 10.8170021 11.204223 10.810815 11.0560743 10.8820956 10.6664459 10.9384241 10.3110946 10.9895967 9.99797973 11.3224116 8.02429054 11.3224116 8.02429054L12.2025281 8.02429054 12.0999252 8.53151351 12.631501 8.53151351 12.5114969 9.33695946 11.9778586 9.33695946C11.8756424 9.97410135 11.7298586 10.7679932 11.7283119 10.8732635 11.7283119 11.0460608 11.8208607 11.1215473 12.0314802 11.1215473 12.1325364 11.1215473 12.2105198 11.111277 12.2701996 11.0899662L12.1530312 11.8316081M14.8516424 11.8045203C14.5492474 11.8965676 14.2578087 11.9415 13.9485821 11.940473 12.9631559 11.9391892 12.4496258 11.4269595 12.4496258 10.4455068 12.4496258 9.30011486 13.1027526 8.45666892 13.9900873 8.45666892 14.7156549 8.45666892 15.1793015 8.92884459 15.1793015 9.66894595 15.1793015 9.91517568 15.1475925 10.1549865 15.0706403 10.4933919L13.3177547 10.4933919C13.2585904 10.9795608 13.5707817 11.1820135 14.0831518 11.1820135 14.397921 11.1820135 14.6822703 11.1173108 14.9980707 10.9713446L14.8516424 11.8045203zM14.3568025 9.81799324C14.3619584 9.74802703 14.4501247 9.21975 13.9471642 9.21975 13.6669397 9.21975 13.4663742 9.43260135 13.3850395 9.81799324L14.3568025 9.81799324 14.3568025 9.81799324zM8.7488316 9.59114865C8.7488316 10.0145405 8.95506861 10.3068581 9.42296881 10.5265135 9.78143451 10.6945608 9.8372474 10.7441149 9.8372474 10.8963716 9.8372474 11.1049865 9.6788316 11.1997297 9.32874428 11.1997297 9.06437422 11.1997297 8.81856549 11.1583919 8.5351185 11.0671149 8.5351185 11.0671149 8.41911019 11.8060608 8.41356757 11.8413649 8.61464865 11.8847568 8.79420374 11.9251959 9.33493139 11.940473 10.269185 11.940473 10.7008649 11.5861486 10.7008649 10.8203716 10.7008649 10.3600068 10.5204075 10.0897703 10.0766112 9.88641892 9.70551351 9.71695946 9.66259044 9.67883108 9.66259044 9.52246622 9.66259044 9.34132432 9.8100499 9.24876351 10.0960748 9.24876351 10.2698295 9.24876351 10.5072599 9.26725 10.7324449 9.29895946L10.8583784 8.52175676C10.6290686 8.48542568 10.2814304 8.45666892 10.0790603 8.45666892 9.08847817 8.45666892 8.74560915 8.97185135 8.7488316 9.59114865M19.1582578 8.54512162C19.4041954 8.54512162 19.633763 8.6087973 19.9495634 8.76747297L20.0945738 7.87331757C19.9643867 7.82247973 19.5079584 7.52451351 19.121264 7.52451351 18.5288482 7.52451351 18.0273056 7.81772973 17.6754137 8.30056081 17.161368 8.13110135 16.9498462 8.47361486 16.6910187 8.81510135L16.4609356 8.86850676C16.4783368 8.75617568 16.4941913 8.64448649 16.4891642 8.53151351L15.6754304 8.53151351C15.5647069 9.56893919 15.3678794 10.6193311 15.2137173 11.6571419L15.173501 11.8825743 16.0594179 11.8825743C16.2071351 10.9256419 16.2879543 10.3131486 16.3373222 9.89822973L16.6709106 9.71413514C16.721052 9.52914189 16.876632 9.46700676 17.1894678 9.47458108 17.148736 9.69308108 17.1265655 9.92326351 17.1265655 10.1614054 17.1265655 11.2578851 17.7211726 11.940473 18.6741164 11.940473 18.9195385 11.940473 19.1305447 11.9083784 19.4570437 11.8197973L19.6121081 10.8808378C19.3186071 11.0244932 19.0782121 11.0921486 18.8601164 11.0921486 18.3452973 11.0921486 18.0338794 10.7135608 18.0338794 10.0882297 18.0338794 9.18072297 18.4968815 8.54512162 19.1582578 8.54512162M26.6552308 7.76201351L26.4584033 8.95246622C26.2167193 8.63524324 25.9566029 8.40544595 25.6132183 8.40544595 25.1663285 8.40544595 24.7597838 8.74282432 24.4934802 9.23964865 24.1225114 9.16300676 23.7394262 9.0327027 23.7394262 9.0327027L23.7391684 9.03591216C23.7685572 8.75822973 23.7811892 8.58928378 23.7782245 8.53151351L22.9647484 8.53151351C22.8542827 9.56893919 22.6570686 10.6193311 22.5032931 11.6571419L22.4625613 11.8825743 23.348736 11.8825743C23.4682245 11.109223 23.5596133 10.4663041 23.6271559 9.95715541 23.9299376 9.68460811 24.0815218 9.44736486 24.3868815 9.46277027 24.2515385 9.78910811 24.172395 10.1647432 24.172395 10.5501351 24.172395 11.3875473 24.5976299 11.940473 25.241605 11.940473 25.5661705 11.940473 25.8150728 11.8289122 26.0580457 11.5706149L26.0162827 11.8823176 26.8541206 11.8823176 27.5285156 7.76201351 26.6552308 7.76201351zM25.547738 11.1084527C25.2463742 11.1084527 25.0938877 10.8858446 25.0938877 10.4478176 25.0938877 9.78910811 25.3791393 9.32219595 25.780657 9.32219595 26.0849854 9.32219595 26.2498462 9.55276351 26.2498462 9.97846622 26.2498462 10.6428243 25.9598254 11.1084527 25.547738 11.1084527L25.547738 11.1084527z"/>
    <polyline fill="#FFFFFF" points="5.648 11.638 4.763 11.638 5.27 8.471 4.137 11.638 3.534 11.638 3.459 8.489 2.926 11.638 2.097 11.638 2.789 7.518 4.063 7.518 4.098 10.068 4.958 7.518 6.333 7.518 5.648 11.638"/>
    <path fill="#FFFFFF" d="M7.82849896 10.1453581C7.73569231 10.1345743 7.6947027 10.1316216 7.63089813 10.1316216 7.12896881 10.1316216 6.8749106 10.3028784 6.8749106 10.6414122 6.8749106 10.8497703 6.9989106 10.9831554 7.19238669 10.9831554 7.55317256 10.9831554 7.81316008 10.6411554 7.82849896 10.1453581zM8.47247401 11.6380135L7.73891476 11.6380135 7.75567152 11.2910068C7.53190437 11.5650946 7.2332474 11.6961689 6.82760499 11.6961689 6.34771726 11.6961689 6.01876923 11.3225878 6.01876923 10.7805743 6.01876923 9.96434459 6.59094802 9.48908784 7.57328067 9.48908784 7.67382121 9.48908784 7.80246154 9.4982027 7.93419543 9.51514865 7.96165073 9.40422973 7.96886902 9.35711486 7.96886902 9.29703378 7.96886902 9.0754527 7.81457796 8.99290541 7.40107277 8.99290541 6.96758836 8.98777027 6.61054054 9.09522297 6.46359667 9.14310811 6.47287734 9.08764865 6.58643659 8.38965541 6.58643659 8.38965541 7.02765489 8.26076351 7.31870686 8.21210811 7.64623701 8.21210811 8.40660707 8.21210811 8.80928482 8.55243919 8.80851143 9.19484459 8.81005821 9.367 8.78144283 9.57997973 8.73697297 9.85881757 8.66002079 10.3437027 8.49503119 11.3851081 8.47247401 11.6380135L8.47247401 11.6380135zM20.3492765 7.62875676L20.2042661 8.52291216C19.888079 8.36462162 19.659027 8.30056081 19.4132183 8.30056081 18.7520998 8.30056081 18.2884532 8.93693243 18.2884532 9.84456757 18.2884532 10.4698986 18.6001289 10.8477162 19.114948 10.8477162 19.3329148 10.8477162 19.5738254 10.7805743 19.8669397 10.6364054L19.7113597 11.5753649C19.3853763 11.6639459 19.1743701 11.6961689 18.928948 11.6961689 17.9754886 11.6961689 17.3816549 11.0134527 17.3816549 9.91722973 17.3816549 8.44421622 18.2026071 7.41475 19.3759667 7.41475 19.7626611 7.41475 20.2193472 7.57791892 20.3492765 7.62875676M21.7777256 10.1453581C21.6853056 10.1345743 21.644316 10.1316216 21.5806403 10.1316216 21.0788399 10.1316216 20.8247817 10.3028784 20.8247817 10.6414122 20.8247817 10.8497703 20.9487817 10.9831554 21.1421289 10.9831554 21.5025281 10.9831554 21.7629023 10.6411554 21.7777256 10.1453581zM22.4222162 11.6380135L21.688657 11.6380135 21.7052848 11.2910068C21.4813888 11.5650946 21.1828607 11.6961689 20.7774761 11.6961689 20.2972017 11.6961689 19.9686403 11.3225878 19.9686403 10.7805743 19.9686403 9.96434459 20.5404324 9.48908784 21.5230229 9.48908784 21.6234345 9.48908784 21.751817 9.4982027 21.883422 9.51514865 21.9108773 9.40422973 21.9182245 9.35711486 21.9182245 9.29703378 21.9182245 9.0754527 21.7644491 8.99290541 21.3505572 8.99290541 20.9174595 8.98777027 20.5605405 9.09522297 20.41321 9.14310811 20.4226195 9.08764865 20.5360499 8.38965541 20.5360499 8.38965541 20.9773971 8.26076351 21.2681913 8.21210811 21.5957214 8.21210811 22.3560915 8.21210811 22.759027 8.55243919 22.7581247 9.19484459 22.7598004 9.367 22.731185 9.57997973 22.6865863 9.85881757 22.609763 10.3437027 22.4449023 11.3851081 22.4222162 11.6380135L22.4222162 11.6380135zM12.4077339 11.5871757C12.1655343 11.6631757 11.9765696 11.6961689 11.7717505 11.6961689 11.3190603 11.6961689 11.0718337 11.436973 11.0718337 10.9603041 11.0656466 10.8116419 11.137185 10.4227838 11.1933846 10.0669189 11.2444283 9.7535473 11.5773721 7.78011486 11.5773721 7.78011486L12.4574886 7.78011486 12.3546279 8.28720946 12.8064158 8.28720946 12.6861538 9.09239865 12.2328191 9.09239865C12.1306029 9.73018243 11.9846902 10.5235608 11.9830146 10.6288311 11.9830146 10.8021419 12.0758212 10.8771149 12.2864407 10.8771149 12.3872391 10.8771149 12.4653514 10.8672297 12.5251601 10.8455338L12.4077339 11.5871757M15.1067318 11.5606014C14.8043368 11.652777 14.5121247 11.6964257 14.2034137 11.6961689 13.2178586 11.695527 12.7044574 11.1826554 12.7044574 10.2013311 12.7044574 9.05555405 13.3577131 8.21210811 14.2444033 8.21210811 14.9707443 8.21210811 15.4340042 8.68428378 15.4340042 9.42541216 15.4340042 9.671 15.4017796 9.91068243 15.3257297 10.2492162L13.5728441 10.2492162C13.5132931 10.7353851 13.8258711 10.938223 14.3377256 10.938223 14.6526237 10.938223 14.936973 10.8732635 15.253289 10.7269122L15.1067318 11.5606014zM14.6120208 9.57343243C14.61679 9.50333784 14.7052141 8.97531757 14.2022536 8.97531757 13.9220291 8.97531757 13.7215925 9.18855405 13.6398711 9.57343243L14.6120208 9.57343243 14.6120208 9.57343243zM9.0035343 9.34645946C9.0035343 9.77075 9.21002911 10.0624257 9.67805821 10.2823378 10.0365239 10.4502568 10.0919501 10.4999392 10.0919501 10.6521959 10.0919501 10.8610676 9.933921 10.9552973 9.58344699 10.9552973 9.31920582 10.9552973 9.07352599 10.914473 8.7899501 10.8234527 8.7899501 10.8234527 8.67394179 11.5617568 8.66839917 11.5966757 8.86960915 11.6405811 9.04916424 11.6806351 9.58976299 11.6961689 10.5242744 11.6961689 10.9558254 11.341973 10.9558254 10.5761959 10.9558254 10.1155743 10.7751102 9.84546622 10.3315717 9.64262838 9.96034511 9.47252703 9.91767983 9.43491216 9.91767983 9.27829054 9.91767983 9.09714865 10.0647526 9.00394595 10.3510353 9.00394595 10.5246611 9.00394595 10.7622204 9.0232027 10.9872765 9.05478378L11.1133389 8.27770946C10.8840291 8.24163514 10.5365198 8.21210811 10.3338919 8.21210811 9.34330977 8.21210811 9.00056965 8.72741892 9.0035343 9.34645946M27.1088233 11.6380135L26.2713721 11.6380135 26.3128773 11.3261824C26.0699044 11.5846081 25.8208732 11.6961689 25.4964366 11.6961689 24.8528482 11.6961689 24.4272266 11.1438851 24.4272266 10.3055743 24.4272266 9.19099324 25.0873139 8.25152027 25.867921 8.25152027 26.2114345 8.25152027 26.471422 8.39119595 26.7136216 8.7085473L26.9100624 7.51783784 27.7833472 7.51783784 27.1088233 11.6380135zM25.8025696 10.8637635C26.2151726 10.8637635 26.5046778 10.3983919 26.5046778 9.73467568 26.5046778 9.30884459 26.339817 9.07763514 26.0353597 9.07763514 25.633842 9.07763514 25.3485904 9.5445473 25.3485904 10.2035135 25.3485904 10.6421824 25.5014636 10.8637635 25.8025696 10.8637635L25.8025696 10.8637635zM23.2198378 8.28720946C23.1089854 9.32437838 22.912158 10.3748986 22.7581247 11.4125811L22.7177796 11.6380135 23.6034387 11.6380135C23.9201414 9.58883784 23.9964491 9.18893919 24.4934802 9.23887838 24.5724948 8.81946622 24.7196965 8.45217568 24.8295177 8.26705405 24.4586778 8.19002703 24.2515385 8.39877027 23.980079 8.79545946 24.0017339 8.62381757 24.04079 8.45731081 24.0334428 8.28720946L23.2198378 8.28720946M15.9307775 8.28720946C15.8194096 9.32437838 15.6223243 10.3748986 15.4685489 11.4125811L15.4282037 11.6380135 16.3141206 11.6380135C16.6310811 9.58883784 16.707131 9.18893919 17.2033888 9.23887838 17.2829189 8.81946622 17.4305073 8.45217568 17.5399418 8.26705405 17.1693597 8.19002703 16.9619626 8.39877027 16.6910187 8.79545946 16.7124158 8.62381757 16.7517297 8.45731081 16.7438669 8.28720946L15.9307775 8.28720946"/>
  </g>
</svg>
