<?xml version="1.0" encoding="UTF-8" standalone="no"?>
<svg width="673px" height="350px" viewBox="0 0 673 350" version="1.1" xmlns="http://www.w3.org/2000/svg" xmlns:xlink="http://www.w3.org/1999/xlink" xmlns:sketch="http://www.bohemiancoding.com/sketch/ns">
    <!-- Generator: Sketch 3.4.4 (17249) - http://www.bohemiancoding.com/sketch -->
    <title>Artboard 1</title>
    <desc>Created with Sketch.</desc>
    <defs></defs>
    <g id="Page-1" stroke="none" stroke-width="1" fill="none" fill-rule="evenodd" sketch:type="MSPage">
        <g id="Artboard-1" sketch:type="MSArtboardGroup">
            <g id="logo-aid" sketch:type="MSLayerGroup" transform="translate(3.000000, 5.000000)">
                <g id="Page-1" sketch:type="MSShapeGroup">
                    <g id="Imported-Layers">
                        <path d="M155.660037,307.001296 C143.050505,325.256519 123.901757,341.180611 82.797215,341.180611 C33.7594393,341.180611 0.131906542,315.893889 0.131906542,268.140667 C0.131906542,215.236093 43.0993645,197.908241 96.3445421,190.419407 C136.042393,184.80437 154.259682,181.526815 154.259682,163.265241 C154.259682,145.943741 139.312,134.707315 111.754785,134.707315 C81.865757,134.707315 67.8558692,145.003667 66.455514,168.416593 L9.94072897,168.416593 C11.3410841,126.278407 42.1679065,89.2915741 112.692579,89.2915741 C185.555402,89.2915741 215.44443,121.597093 215.44443,177.779222 L215.44443,276.099537 C215.44443,291.547241 218.24514,297.16863 232.261364,294.824796 L233.66172,294.824796 L233.66172,333.685426 C228.053963,336.492944 220.58329,339.306815 206.567065,339.306815 C176.20914,339.306815 160.798897,330.40787 155.660037,307.001296 L155.660037,307.001296 L155.660037,307.001296 Z M155.660037,250.819167 L155.660037,215.236093 C144.45086,221.791204 127.171364,225.532444 111.292224,229.280037 C78.1272523,236.76887 61.7855514,243.794019 61.7855514,266.26687 C61.7855514,288.269685 76.7268972,296.698593 99.1452523,296.698593 C135.579832,296.698593 155.660037,274.225741 155.660037,250.819167 L155.660037,250.819167 L155.660037,250.819167 Z" id="Fill-1" fill="#EC008B"></path>
                        <path d="M270.197682,0.80392593 L337.921645,0.80392593 L337.921645,335.559222 L270.197682,335.559222 L270.197682,0.80392593 L270.197682,0.80392593 Z" id="Fill-2" fill="#514F4B"></path>
                        <path d="M389.753794,0.80392593 L520.06286,0.80392593 C609.27372,0.80392593 666.719963,72.9037963 666.719963,171.694148 C666.719963,226.002481 648.502673,273.762056 613.474785,303.253704 C588.71828,323.852759 556.491103,335.559222 514.461439,335.559222 L389.753794,335.559222 L389.753794,0.80392593 L389.753794,0.80392593 L389.753794,0.80392593 Z M509.78514,277.033259 C573.308037,277.033259 598.064542,238.178981 598.064542,171.694148 C598.064542,105.209315 569.106972,58.8598519 511.660729,58.8598519 L457.477757,58.8598519 L457.477757,277.033259 L509.78514,277.033259 L509.78514,277.033259 L509.78514,277.033259 Z" id="Fill-3" fill="#514F4B"></path>
                    </g>
                </g>
            </g>
        </g>
    </g>
</svg>