<?xml version="1.0" encoding="utf-8"?>
<!-- Generator: Adobe Illustrator 18.1.1, SVG Export Plug-In . SVG Version: 6.00 Build 0)  -->
<!DOCTYPE svg PUBLIC "-//W3C//DTD SVG 1.1//EN" "http://www.w3.org/Graphics/SVG/1.1/DTD/svg11.dtd">
<svg version="1.1" id="Layer_1" xmlns="http://www.w3.org/2000/svg" xmlns:xlink="http://www.w3.org/1999/xlink" x="0px" y="0px"
	 width="100px" height="27.238px" viewBox="0 0 100 27.238" enable-background="new 0 0 100 27.238" xml:space="preserve">
<g>
	<path fill="#FFFFFF" d="M97.539,0H68.906c-0.727,0-1.379,0.319-1.83,0.822c-0.451-0.498-1.099-0.813-1.822-0.813H2.461
		C1.104,0.009,0,1.114,0,2.473v16.51c0,1.358,1.104,2.462,2.461,2.462h62.792c0.727,0,1.379-0.319,1.83-0.822
		c0.451,0.498,1.099,0.813,1.822,0.813H82.19v2.052v3.751l2.522-2.777l2.748-3.026h3.881c0.934,0,2.092-0.479,2.752-1.14
		l4.767-4.764c0.661-0.662,1.14-1.819,1.14-2.754V2.463C100,1.105,98.896,0,97.539,0z"/>
	<path fill="#A6D7F2" d="M97.539,1.449H68.906c-0.557,0-1.012,0.457-1.012,1.014v16.51c0,0.557,0.455,1.013,1.012,1.013h14.733
		v3.501l3.179-3.501h4.522c0.557,0,1.334-0.322,1.728-0.716l4.767-4.764c0.393-0.394,0.716-1.172,0.716-1.729V2.463
		C98.551,1.906,98.096,1.449,97.539,1.449z"/>
	<path fill="#F69831" d="M65.254,19.995c0.557,0,1.012-0.457,1.012-1.014V2.472c0-0.557-0.455-1.013-1.012-1.013H2.461
		c-0.557,0-1.012,0.457-1.012,1.014v16.51c0,0.557,0.455,1.013,1.012,1.013H65.254z"/>
	<path fill="#FFFFFF" d="M72.276,15.546c-0.356,0-0.698,0-0.698-0.145V6.724h-1.33c-0.102,0-0.13-0.259-0.13-0.544
		c0-0.286,0-0.472,0.13-0.529l1.686-0.643h1.073v10.394C73.006,15.546,72.636,15.546,72.276,15.546z"/>
	<path fill="#FFFFFF" d="M78.736,15.66c-1.773,0-3.131-0.872-3.131-2.803v-0.543c0-1.03,0.501-1.759,1.13-2.231
		c-0.545-0.472-0.987-1.115-0.987-2.044v-0.4c0-1.945,1.287-2.803,3.062-2.803c1.783,0,3.144,0.872,3.144,2.803v0.4
		c0,0.886-0.517,1.616-1.087,2.058c0.643,0.472,1.185,1.201,1.185,2.218v0.543C82.052,14.788,80.509,15.66,78.736,15.66z
		 M78.811,5.993c-1.205,0-1.861,0.487-1.861,1.831c0,1.373,0.972,1.803,1.888,1.803c0.915,0,1.885-0.43,1.885-1.803
		C80.722,6.465,80.024,5.993,78.811,5.993z M80.722,12.486c0-1.359-0.984-1.817-1.899-1.817c-0.915,0-1.874,0.458-1.874,1.817v0.185
		c0,1.371,0.959,1.83,1.874,1.83c0.915,0,1.899-0.458,1.899-1.83V12.486z"/>
	<path fill="#FFFFFF" d="M87.031,15.66c-1.773,0-3.13-0.872-3.13-2.803v-0.543c0-1.03,0.501-1.759,1.127-2.231
		c-0.541-0.472-0.986-1.115-0.986-2.044v-0.4c0-1.945,1.288-2.803,3.063-2.803c1.786,0,3.144,0.872,3.144,2.803v0.4
		c0,0.886-0.514,1.616-1.085,2.058c0.641,0.472,1.185,1.201,1.185,2.218v0.543C90.348,14.788,88.804,15.66,87.031,15.66z
		 M87.105,5.993c-1.203,0-1.86,0.487-1.86,1.831c0,1.373,0.973,1.803,1.886,1.803c0.917,0,1.889-0.43,1.889-1.803
		C89.019,6.465,88.319,5.993,87.105,5.993z M89.019,12.486c0-1.359-0.985-1.817-1.901-1.817c-0.916,0-1.874,0.458-1.874,1.817v0.185
		c0,1.371,0.958,1.83,1.874,1.83c0.916,0,1.901-0.458,1.901-1.83V12.486z"/>
	<path fill="#FFFFFF" d="M94.246,15.546c-0.36,0-0.701,0-0.701-0.145V6.723h-1.33c-0.1,0-0.131-0.258-0.131-0.544
		c0-0.286,0-0.472,0.131-0.529L93.9,5.008h1.074v10.394C94.974,15.546,94.602,15.546,94.246,15.546z"/>
	<path fill="#FFFFFF" d="M8.666,11.896c0,0.68-0.168,1.167-0.504,1.459c-0.35,0.301-0.942,0.451-1.772,0.451H4.004V7.114h2.385
		c0.822,0,1.407,0.145,1.755,0.434c0.348,0.289,0.522,0.772,0.522,1.45V11.896z M7.75,12.008V8.905c0-0.429-0.135-0.723-0.406-0.884
		C7.148,7.905,6.835,7.848,6.407,7.848H4.919v5.218h1.45C7.29,13.065,7.75,12.712,7.75,12.008z"/>
	<path fill="#FFFFFF" d="M9.957,7.186c0-0.077,0.155-0.116,0.461-0.116c0.288,0,0.433,0.039,0.433,0.116v0.696
		c0,0.093-0.147,0.138-0.442,0.138c-0.301,0-0.451-0.045-0.451-0.138V7.186z M10.834,8.931c0-0.059-0.144-0.088-0.43-0.088
		c-0.296,0-0.447,0.03-0.447,0.088v4.821c0,0.061,0.148,0.089,0.439,0.089c0.291,0,0.438-0.028,0.438-0.089V8.931z"/>
	<path fill="#FFFFFF" d="M16.007,13.568c0,0.87-0.235,1.465-0.698,1.792c-0.356,0.249-0.813,0.375-1.369,0.375
		c-0.614,0-1.135-0.172-1.563-0.513c-0.018-0.012-0.026-0.032-0.026-0.058c0-0.05,0.049-0.152,0.146-0.303
		c0.088-0.146,0.165-0.22,0.227-0.22c0.018,0,0.032,0.004,0.045,0.013c0.39,0.289,0.79,0.434,1.205,0.434
		c0.265,0,0.506-0.08,0.718-0.24c0.298-0.224,0.446-0.559,0.446-1.005v-0.63c-0.327,0.471-0.778,0.706-1.355,0.706
		c-1.226,0-1.837-0.613-1.837-1.84V10.56c0-0.592,0.18-1.046,0.541-1.361c0.332-0.291,0.777-0.436,1.335-0.436
		c0.646,0,1.079,0.195,1.303,0.585V8.954c0-0.074,0.146-0.111,0.441-0.111c0.291,0,0.438,0.037,0.438,0.111V13.568z M15.128,11.961
		V10.46c0-0.167-0.068-0.357-0.202-0.568c-0.207-0.322-0.514-0.482-0.92-0.482c-0.335,0-0.607,0.091-0.813,0.276
		c-0.219,0.197-0.329,0.474-0.329,0.832v1.685c0,0.312,0.098,0.569,0.297,0.768c0.197,0.2,0.457,0.3,0.779,0.3
		c0.317,0,0.595-0.134,0.831-0.402C15.009,12.604,15.128,12.3,15.128,11.961z"/>
	<path fill="#FFFFFF" d="M17.218,7.186c0-0.077,0.153-0.116,0.461-0.116c0.288,0,0.433,0.039,0.433,0.116v0.696
		c0,0.093-0.147,0.138-0.443,0.138c-0.3,0-0.451-0.045-0.451-0.138V7.186z M18.094,8.931c0-0.059-0.143-0.088-0.428-0.088
		c-0.299,0-0.448,0.03-0.448,0.088v4.821c0,0.061,0.146,0.089,0.438,0.089c0.292,0,0.438-0.028,0.438-0.089V8.931z"/>
	<path fill="#FFFFFF" d="M19.703,9.619h-0.639c-0.058,0-0.087-0.117-0.087-0.348c0-0.249,0.029-0.376,0.087-0.376h0.639V7.829
		c0-0.064,0.148-0.095,0.444-0.095c0.292,0,0.437,0.031,0.437,0.095v1.067h1.115c0.06,0,0.089,0.122,0.089,0.366
		c0,0.238-0.029,0.358-0.089,0.358h-1.115V12.9c0,0.157,0.075,0.236,0.227,0.236h0.835c0.066,0,0.099,0.11,0.099,0.331
		c0,0.225-0.033,0.339-0.099,0.339h-0.999c-0.358,0-0.607-0.083-0.748-0.249c-0.13-0.15-0.196-0.401-0.196-0.756V9.619z"/>
	<path fill="#FFFFFF" d="M26.411,13.752c0,0.061-0.143,0.089-0.433,0.089c-0.288,0-0.433-0.028-0.433-0.089v-0.531
		c-0.394,0.464-0.867,0.696-1.415,0.696c-0.499,0-0.9-0.134-1.205-0.4c-0.304-0.266-0.456-0.617-0.456-1.055v-0.454
		c0-0.932,0.8-1.409,2.397-1.429l0.679-0.01c0-0.773-0.345-1.159-1.036-1.159c-0.292,0-0.707,0.118-1.249,0.356
		c-0.013,0.003-0.024,0.005-0.037,0.005c-0.059,0-0.126-0.09-0.204-0.272c-0.069-0.166-0.103-0.271-0.103-0.312
		c0-0.033,0.013-0.057,0.04-0.072c0.515-0.234,1.047-0.351,1.599-0.351c1.236,0,1.856,0.608,1.856,1.825V13.752z M25.545,12.526
		v-1.269c-0.447-0.012-0.833,0-1.161,0.036c-0.707,0.075-1.062,0.341-1.062,0.804v0.41c0,0.209,0.074,0.386,0.224,0.532
		c0.154,0.154,0.353,0.232,0.598,0.232c0.071,0,0.144-0.008,0.219-0.022C24.761,13.171,25.154,12.929,25.545,12.526z"/>
	<path fill="#FFFFFF" d="M29.387,13.467c0,0.225-0.035,0.339-0.103,0.339h-0.56c-0.354,0-0.602-0.083-0.745-0.249
		c-0.127-0.15-0.191-0.401-0.191-0.756V7.159c0-0.059,0.148-0.089,0.437-0.089c0.291,0,0.439,0.03,0.439,0.089v5.776
		c0,0.134,0.074,0.201,0.226,0.201h0.394C29.352,13.136,29.387,13.246,29.387,13.467z"/>
	<path fill="#FFFFFF" d="M34.124,10.56v1.117h-3.185v0.474c0,0.319,0.115,0.589,0.344,0.806c0.219,0.209,0.483,0.314,0.791,0.314
		c0.478,0,0.992-0.154,1.541-0.46c0.009-0.006,0.018-0.01,0.031-0.01c0.064,0,0.136,0.085,0.213,0.254
		c0.092,0.206,0.11,0.328,0.056,0.367c-0.478,0.33-1.09,0.496-1.84,0.496c-0.551,0-1.024-0.168-1.421-0.505
		c-0.415-0.354-0.625-0.806-0.625-1.352v-1.482c0-0.548,0.209-0.993,0.622-1.335c0.393-0.321,0.879-0.481,1.454-0.481
		c0.6,0,1.07,0.13,1.417,0.392C33.921,9.464,34.124,9.934,34.124,10.56z M33.238,11.029v-0.483c0-0.322-0.111-0.592-0.334-0.81
		c-0.224-0.218-0.487-0.327-0.79-0.327c-0.355,0-0.642,0.103-0.861,0.31c-0.219,0.208-0.33,0.474-0.33,0.8v0.509H33.238z"/>
	<path fill="#FFFFFF" d="M40.048,13.841c-0.244,0-0.376-0.028-0.394-0.089l-1.527-5.075c-0.018-0.062-0.058-0.169-0.118-0.321
		c0.014,0.158,0.02,0.297,0.02,0.415v4.982c0,0.061-0.154,0.089-0.459,0.089c-0.304,0-0.456-0.028-0.456-0.089V7.159
		c0-0.059,0.209-0.089,0.63-0.089c0.413,0,0.63,0.03,0.651,0.089l1.562,5.084c0.036,0.116,0.062,0.247,0.082,0.392
		c0.008-0.065,0.04-0.196,0.093-0.392l1.561-5.084c0.018-0.059,0.235-0.089,0.648-0.089c0.417,0,0.624,0.03,0.624,0.089v6.593
		c0,0.061-0.153,0.089-0.459,0.089c-0.316,0-0.475-0.028-0.475-0.089V8.797c0-0.119,0.011-0.266,0.028-0.442
		c-0.028,0.071-0.064,0.178-0.112,0.321l-1.499,5.075C40.431,13.813,40.297,13.841,40.048,13.841z"/>
	<path fill="#FFFFFF" d="M48.219,10.56v1.117h-3.184v0.474c0,0.319,0.116,0.589,0.344,0.806c0.22,0.209,0.484,0.314,0.79,0.314
		c0.478,0,0.993-0.154,1.541-0.46c0.01-0.006,0.019-0.01,0.032-0.01c0.067,0,0.138,0.085,0.215,0.254
		c0.093,0.206,0.11,0.328,0.053,0.367c-0.476,0.33-1.089,0.496-1.84,0.496c-0.551,0-1.022-0.168-1.418-0.505
		c-0.415-0.354-0.625-0.806-0.625-1.352v-1.482c0-0.548,0.208-0.993,0.621-1.335c0.392-0.321,0.877-0.481,1.455-0.481
		c0.6,0,1.071,0.13,1.416,0.392C48.019,9.464,48.219,9.934,48.219,10.56z M47.336,11.029v-0.483c0-0.322-0.112-0.592-0.336-0.81
		C46.777,9.518,46.514,9.41,46.21,9.41c-0.355,0-0.641,0.103-0.861,0.31c-0.22,0.208-0.33,0.474-0.33,0.8v0.509H47.336z"/>
	<path fill="#FFFFFF" d="M53.174,13.752c0,0.061-0.152,0.089-0.455,0.089c-0.306,0-0.46-0.028-0.46-0.089v-0.468
		c-0.405,0.422-0.863,0.634-1.379,0.634c-0.647,0-1.116-0.165-1.407-0.496c-0.277-0.31-0.415-0.786-0.415-1.429v-1.442
		c0-0.592,0.182-1.044,0.549-1.357c0.329-0.283,0.776-0.424,1.335-0.424c0.65,0,1.09,0.167,1.316,0.5V7.088
		c0-0.063,0.154-0.094,0.46-0.094c0.303,0,0.455,0.031,0.455,0.094V13.752z M52.258,12.073v-1.631c0-0.281-0.099-0.518-0.298-0.712
		c-0.219-0.214-0.511-0.321-0.88-0.321c-0.309,0-0.565,0.091-0.773,0.276c-0.23,0.2-0.342,0.465-0.342,0.795v1.69
		c0,0.733,0.37,1.1,1.115,1.1c0.287,0,0.556-0.125,0.804-0.375C52.133,12.648,52.258,12.374,52.258,12.073z"/>
	<path fill="#FFFFFF" d="M54.411,7.186c0-0.077,0.155-0.116,0.462-0.116c0.288,0,0.432,0.039,0.432,0.116v0.696
		c0,0.093-0.147,0.138-0.441,0.138c-0.299,0-0.453-0.045-0.453-0.138V7.186z M55.288,8.931c0-0.059-0.143-0.088-0.43-0.088
		c-0.297,0-0.447,0.03-0.447,0.088v4.821c0,0.061,0.147,0.089,0.439,0.089c0.292,0,0.438-0.028,0.438-0.089V8.931z"/>
	<path fill="#FFFFFF" d="M60.474,10.56v1.117H57.29v0.474c0,0.319,0.115,0.589,0.344,0.806c0.22,0.209,0.484,0.314,0.791,0.314
		c0.479,0,0.992-0.154,1.539-0.46c0.009-0.006,0.019-0.01,0.031-0.01c0.065,0,0.137,0.085,0.214,0.254
		c0.092,0.206,0.11,0.328,0.053,0.367c-0.475,0.33-1.088,0.496-1.838,0.496c-0.551,0-1.025-0.168-1.422-0.505
		c-0.414-0.354-0.624-0.806-0.624-1.352v-1.482c0-0.548,0.207-0.993,0.62-1.335c0.394-0.321,0.879-0.481,1.455-0.481
		c0.597,0,1.069,0.13,1.415,0.392C60.271,9.464,60.474,9.934,60.474,10.56z M59.587,11.029v-0.483c0-0.322-0.11-0.592-0.333-0.81
		c-0.224-0.218-0.487-0.327-0.79-0.327c-0.352,0-0.643,0.103-0.859,0.31c-0.223,0.208-0.333,0.474-0.333,0.8v0.509H59.587z"/>
	<path fill="#FFFFFF" d="M64.035,9.757H63.71c-0.285,0-0.515,0.098-0.684,0.291c-0.13,0.15-0.346,0.421-0.648,0.817v2.888
		c0,0.061-0.146,0.089-0.439,0.089c-0.294,0-0.439-0.028-0.439-0.089V8.954c0-0.074,0.145-0.111,0.439-0.111
		c0.293,0,0.439,0.03,0.439,0.088v1.117l0.463-0.759c0.196-0.31,0.496-0.465,0.907-0.465h0.287c0.07,0,0.106,0.152,0.106,0.455
		C64.141,9.598,64.105,9.757,64.035,9.757z"/>
</g>
</svg>
