<svg xmlns="http://www.w3.org/2000/svg" viewBox="0 0 1024 1024" enable-background="new 0 0 1024 1024"><path fill="#D62727" d="M0 0h1024v1024H0z"/><g fill="#fff"><path d="M433.2 513.2c16.3-9.1 49.4-27.3 49.4-56.1 0-32.3-34.3-55.3-91-55.3H91.4c-2.6 0-4.7 2.1-4.7 7.9v31.6c0 2.9 1.3 4.4 6.5 4.4h8.1c23.4 0 42.3 16.2 42.3 36.2v59.5c0 20-18.9 36.2-42.3 36.2H90.9c-3.1 0-4.6 2.4-4.6 8.2V619c0 2 1.8 3.2 4.1 3.2h323.7c8.3 0 78.6-2.1 78.6-56.1-.1-42-49.2-48.5-59.5-52.9zM244.9 454c0-4.3 2.5-7.7 5.7-7.7h73.7c33.8 0 47.2 9.9 47.2 22.2 0 12.2-13.4 22.2-47.2 22.2h-73.7c-3.1 0-5.7-3.4-5.7-7.7v-29zm85.3 123.1h-79.6c-3.1 0-5.7-3.4-5.7-7.7v-28.9c0-4.3 2.5-7.7 5.7-7.7h79.6c33.8 0 47.1 9.9 47.1 22.2 0 12.2-13.3 22.1-47.1 22.1zM958.4 579.3c-19.8 0-37.6-10-49.7-25.9L787.1 408c-1.3-2.9-4.4-6.2-9.5-6.2h-78.7c-3.1 0-6.5 1.8-9.1 6.2L574.9 545.7c-15.4 18.8-37.1 30.7-61.4 30.7-3.9 0-5.2 1.8-5.2 5v36.1c0 4.1 4.4 4.7 10.3 4.7H681c2.6 0 3.6-2.1 3.6-5.6v-35c0-1.8-1.3-3.5-4.1-3.5h-35.4c-5.1 0-9.2-4.8-9.2-10.6 0-3 1.1-5.6 2.8-7.6l6.4-7.7c1.5-1.7 3.5-2.7 5.8-2.7H778c2.3 0 4.3 1 5.8 2.7l5.9 6.9c1.4 2.1 2.5 5.7 2.5 8.3 0 5.8-4.1 10.6-9.2 10.6h-31c-2.6 0-4.1 1.8-4.1 4.4v34.1c0 2.9 2.1 5.6 5.9 5.6h201.7c4.7 0 7.2-1.2 7.2-4.7V589c.1-4.4.1-9.7-4.3-9.7zM749.6 517H679c-1.1 0-1.9-1-1.9-2.2 0-.5.2-1 .5-1.4l35-41.6c.5-.9 3.3-.9 4.1 0l34.4 41.2c.3.4.5 1.3.5 1.9-.1 1.1-.9 2.1-2 2.1z"/></g></svg>