<svg xmlns="http://www.w3.org/2000/svg" width="25" height="13" viewBox="0 0 25 13">
  <g fill="none">
    <path fill="#EC008B" d="M5.83433422,11.6696399 C5.36171308,12.3635519 4.64399389,12.9688536 3.10334389,12.9688536 C1.2653463,12.9688536 0.00494402331,12.0076624 0.00494402331,10.1924815 C0.00494402331,8.18148892 1.61541846,7.52282787 3.61111477,7.23816459 C5.09904022,7.02472751 5.78184715,6.90014209 5.78184715,6.20598869 C5.78184715,5.5475691 5.22158921,5.12045349 4.18871008,5.12045349 C3.06843167,5.12045349 2.54332343,5.5118353 2.49083636,6.40180032 L0.372591041,6.40180032 C0.425078115,4.80005641 1.58050624,3.39412416 4.22385978,3.39412416 C6.95485015,3.39412416 8.07512856,4.62211172 8.07512856,6.75768973 L8.07512856,10.4950116 C8.07512856,11.0822051 8.1801027,11.2958836 8.70544843,11.2067905 L8.75793553,11.2067905 L8.75793553,12.6839489 C8.54774974,12.7906675 8.26773951,12.8976275 7.74239374,12.8976275 C6.60454048,12.8976275 6.02694516,12.5593635 5.83433422,11.6696399 L5.83433422,11.6696399 Z M5.83433422,9.5340619 L5.83433422,8.18148892 C5.41420015,8.4306598 4.76654288,8.57287068 4.17137271,8.71532304 C2.92830781,8.99998629 2.31580028,9.26702411 2.31580028,10.1212553 C2.31580028,10.9576196 2.87582073,11.2780167 3.71608892,11.2780167 C5.08170285,11.2780167 5.83433422,10.4237855 5.83433422,9.5340619 L5.83433422,9.5340619 Z"/>
    <polygon fill="#514F4B" points="10.127 .031 12.666 .031 12.666 12.755 10.127 12.755"/>
    <path fill="#514F4B" d="M14.608463,0.030558588 L19.4926109,0.030558588 C22.8363463,0.030558588 24.9895039,2.77119694 24.9895039,6.52638574 C24.9895039,8.59073758 24.3066969,10.40616 22.9938075,11.5271876 C22.0659025,12.3101926 20.8579874,12.7551751 19.2826626,12.7551751 L14.608463,12.7551751 L14.608463,0.030558588 L14.608463,0.030558588 Z M19.1073891,10.530504 C21.4883072,10.530504 22.4162122,9.053587 22.4162122,6.52638574 C22.4162122,3.99918449 21.330846,2.23736279 19.1776885,2.23736279 L17.1468425,2.23736279 L17.1468425,10.530504 L19.1073891,10.530504 L19.1073891,10.530504 Z"/>
  </g>
</svg>
