<svg xmlns="http://www.w3.org/2000/svg" width="163" height="33" viewBox="0 0 163 33" xmlns:xlink="http://www.w3.org/1999/xlink">
  <defs>
    <polygon id="a" points=".107 9.987 9.87 9.987 9.87 .196 .107 .196 .107 9.987"/>
  </defs>
  <g fill="none" fill-rule="evenodd">
    <g transform="translate(95)">
      <polygon fill="#0F2B5C" points=".053 18.887 29.731 18.887 29.731 .113 .053 .113"/>
      <path fill="#D9222A" d="M17.5634459,9.5 C17.5634459,13.9866959 13.9266149,17.6233986 9.44017568,17.6233986 C4.95335135,17.6233986 1.31626351,13.9866959 1.31626351,9.5 C1.31626351,5.01343243 4.95335135,1.37634459 9.44017568,1.37634459 C13.9266149,1.37634459 17.5634459,5.01343243 17.5634459,9.5"/>
      <path fill="#EE9F2D" d="M20.3464324,1.37634459 C18.2470608,1.37634459 16.3346081,2.17267568 14.8926622,3.47905405 C14.5994459,3.74531081 14.3254865,4.03287838 14.0729662,4.33906081 L15.714027,4.33906081 C15.9381757,4.61199324 16.1448649,4.89891892 16.3333243,5.1994527 L13.4532838,5.1994527 C13.2811284,5.47559459 13.1243784,5.76252027 12.9853446,6.05984459 L16.8012635,6.05984459 C16.9316959,6.3382973 17.0464662,6.62509459 17.1453176,6.91985135 L12.6412905,6.91985135 C12.5474459,7.20010135 12.4684932,7.48702703 12.4052027,7.77972973 L17.3810203,7.77972973 C17.500027,8.33432432 17.5634459,8.90971622 17.5634459,9.5 C17.5634459,10.4018581 17.4165811,11.2699527 17.1453176,12.0806622 L12.6412905,12.0806622 C12.7400135,12.3752905 12.8549122,12.6623446 12.9850878,12.9411824 L16.8012635,12.9411824 C16.6618446,13.2377365 16.5058649,13.5249189 16.3326824,13.8014459 L13.4532838,13.8014459 C13.6412297,14.1010811 13.8483041,14.3883919 14.0729662,14.6609392 L15.7135135,14.6609392 C15.4613784,14.9673784 15.1872905,15.2549459 14.8930473,15.5212027 C16.3348649,16.8275811 18.2470608,17.6233986 20.3464324,17.6233986 C24.8328716,17.6233986 28.4699595,13.9866959 28.4699595,9.5 C28.4699595,5.01381757 24.8328716,1.37634459 20.3464324,1.37634459"/>
      <path fill="#0F2B5C" d="M7.543,10.3894054 C7.45056757,10.3788784 7.40961486,10.3755405 7.34606757,10.3755405 C6.84629054,10.3755405 6.59351351,10.5470541 6.59351351,10.8858446 C6.59351351,11.0944595 6.71688514,11.2270743 6.9094527,11.2270743 C7.26878378,11.2270743 7.52772297,10.8850743 7.543,10.3894054 Z M8.18450676,11.8825743 L7.45364865,11.8825743 L7.47046622,11.5351824 C7.24760135,11.809527 6.95014865,11.940473 6.54614189,11.940473 C6.06831757,11.940473 5.74043919,11.567277 5.74043919,11.0252635 C5.74043919,10.2090338 6.31043919,9.73313514 7.28881081,9.73313514 C7.38907432,9.73313514 7.51706757,9.74250676 7.64839865,9.75906757 C7.67561486,9.64840541 7.68280405,9.60141892 7.68280405,9.54172297 C7.68280405,9.31988514 7.52926351,9.23669595 7.1172973,9.23669595 C6.68581757,9.23233108 6.3299527,9.33978378 6.18360135,9.3877973 C6.19297297,9.33208108 6.30607432,8.63408784 6.30607432,8.63408784 C6.74525676,8.50493919 7.03513514,8.45666892 7.36134459,8.45666892 C8.11890541,8.45666892 8.52008784,8.79661486 8.51918919,9.43927703 C8.52072973,9.61168919 8.49210135,9.82377027 8.44768243,10.10325 C8.37116892,10.5883919 8.20684459,11.6292838 8.18450676,11.8825743 L8.18450676,11.8825743 Z"/>
      <polyline fill="#0F2B5C" points="5.371 11.883 4.489 11.883 4.995 8.715 3.867 11.883 3.266 11.883 3.191 8.733 2.66 11.883 1.835 11.883 2.524 7.762 3.793 7.762 3.869 10.068 4.643 7.762 6.054 7.762 5.371 11.883"/>
      <path fill="#0F2B5C" d="M21.4362365 10.3894054C21.3436757 10.3788784 21.3032365 10.3755405 21.2398176 10.3755405 20.7396554 10.3755405 20.4871351 10.5470541 20.4871351 10.8858446 20.4871351 11.0944595 20.6099932 11.2270743 20.8030743 11.2270743 21.1621486 11.2270743 21.4210878 10.8850743 21.4362365 10.3894054zM22.0781284 11.8825743L21.3473986 11.8825743 21.3639595 11.5351824C21.1410946 11.809527 20.8436419 11.940473 20.4400203 11.940473 19.9615541 11.940473 19.6341892 11.567277 19.6341892 11.0252635 19.6341892 10.2090338 20.2043176 9.73313514 21.1824324 9.73313514 21.2824392 9.73313514 21.4103041 9.74250676 21.5417635 9.75906757 21.5691081 9.64840541 21.5760405 9.60141892 21.5760405 9.54172297 21.5760405 9.31988514 21.4226284 9.23669595 21.0106622 9.23669595 20.5791824 9.23233108 20.2233176 9.33978378 20.0767095 9.3877973 20.0864662 9.33208108 20.1998243 8.63408784 20.1998243 8.63408784 20.6388784 8.50493919 20.9288851 8.45666892 21.2545811 8.45666892 22.0126554 8.45666892 22.4133243 8.79661486 22.4125541 9.43927703 22.4140946 9.61168919 22.385723 9.82377027 22.3410473 10.10325 22.2649189 10.5883919 22.1000811 11.6292838 22.0781284 11.8825743L22.0781284 11.8825743zM12.104027 11.8316081C11.8625473 11.9076081 11.6743446 11.940473 11.4703514 11.940473 11.0194865 11.940473 10.7733851 11.6814054 10.7733851 11.204223 10.767223 11.0560743 10.8382162 10.6664459 10.8943176 10.3110946 10.9452838 9.99797973 11.2767568 8.02429054 11.2767568 8.02429054L12.1533243 8.02429054 12.0511351 8.53151351 12.5805676 8.53151351 12.4610473 9.33695946 11.9295608 9.33695946C11.8277568 9.97410135 11.6825608 10.7679932 11.6810203 10.8732635 11.6810203 11.0460608 11.7731959 11.1215473 11.9829662 11.1215473 12.0836149 11.1215473 12.1612838 11.111277 12.220723 11.0899662L12.104027 11.8316081M14.7917568 11.8045203C14.4905811 11.8965676 14.2003176 11.9415 13.8923378 11.940473 12.9108851 11.9391892 12.3994257 11.4269595 12.3994257 10.4455068 12.3994257 9.30011486 13.0499189 8.45666892 13.9336757 8.45666892 14.6563176 8.45666892 15.1180946 8.92884459 15.1180946 9.66894595 15.1180946 9.91517568 15.0865135 10.1549865 15.0098716 10.4933919L13.2640541 10.4933919C13.2051284 10.9795608 13.5160608 11.1820135 14.0263649 11.1820135 14.3398649 11.1820135 14.6230676 11.1173108 14.9375946 10.9713446L14.7917568 11.8045203zM14.2989122 9.81799324C14.3040473 9.74802703 14.3918581 9.21975 13.8909257 9.21975 13.6118311 9.21975 13.4120743 9.43260135 13.3310676 9.81799324L14.2989122 9.81799324 14.2989122 9.81799324zM8.71355405 9.59114865C8.71355405 10.0145405 8.91895946 10.3068581 9.38497297 10.5265135 9.74199324 10.6945608 9.79758108 10.7441149 9.79758108 10.8963716 9.79758108 11.1049865 9.63980405 11.1997297 9.29112838 11.1997297 9.02782432 11.1997297 8.78300676 11.1583919 8.5007027 11.0671149 8.5007027 11.0671149 8.38516216 11.8060608 8.37964189 11.8413649 8.57991216 11.8847568 8.75874324 11.9251959 9.29729054 11.940473 10.227777 11.940473 10.6577162 11.5861486 10.6577162 10.8203716 10.6577162 10.3600068 10.4779865 10.0897703 10.0359797 9.88641892 9.66637838 9.71695946 9.62362838 9.67883108 9.62362838 9.52246622 9.62362838 9.34132432 9.77049324 9.24876351 10.0553649 9.24876351 10.2284189 9.24876351 10.4648919 9.26725 10.6891689 9.29895946L10.8145946 8.52175676C10.5862095 8.48542568 10.239973 8.45666892 10.0384189 8.45666892 9.05183108 8.45666892 8.71034459 8.97185135 8.71355405 9.59114865M19.0810068 8.54512162C19.3259527 8.54512162 19.5545946 8.6087973 19.8691216 8.76747297L20.0135473 7.87331757C19.8838851 7.82247973 19.4292973 7.52451351 19.0441622 7.52451351 18.4541351 7.52451351 17.9546149 7.81772973 17.6041419 8.30056081 17.0921689 8.13110135 16.8815 8.47361486 16.6237162 8.81510135L16.3945608 8.86850676C16.4118919 8.75617568 16.4276824 8.64448649 16.4226757 8.53151351L15.612223 8.53151351C15.5019459 9.56893919 15.3059122 10.6193311 15.1523716 11.6571419L15.1123176 11.8825743 15.9946622 11.8825743C16.1417838 10.9256419 16.222277 10.3131486 16.2714459 9.89822973L16.6036892 9.71413514C16.6536284 9.52914189 16.8085811 9.46700676 17.1201554 9.47458108 17.0795878 9.69308108 17.0575068 9.92326351 17.0575068 10.1614054 17.0575068 11.2578851 17.6497162 11.940473 18.5988176 11.940473 18.84325 11.940473 19.0534054 11.9083784 19.3785878 11.8197973L19.533027 10.8808378C19.2407095 11.0244932 19.0012838 11.0921486 18.7840676 11.0921486 18.2713243 11.0921486 17.9611622 10.7135608 17.9611622 10.0882297 17.9611622 9.18072297 18.4222973 8.54512162 19.0810068 8.54512162M26.54775 7.76201351L26.3517162 8.95246622C26.1110068 8.63524324 25.8519392 8.40544595 25.5099392 8.40544595 25.0648514 8.40544595 24.6599459 8.74282432 24.3947162 9.23964865 24.0252432 9.16300676 23.6437027 9.0327027 23.6437027 9.0327027L23.6434459 9.03591216C23.6727162 8.75822973 23.6852973 8.58928378 23.6823446 8.53151351L22.8721486 8.53151351C22.7621284 9.56893919 22.5657095 10.6193311 22.4125541 11.6571419L22.3719865 11.8825743 23.2545878 11.8825743C23.3735946 11.109223 23.4646149 10.4663041 23.5318851 9.95715541 23.8334459 9.68460811 23.9844189 9.44736486 24.2885473 9.46277027 24.15375 9.78910811 24.0749257 10.1647432 24.0749257 10.5501351 24.0749257 11.3875473 24.4984459 11.940473 25.1398243 11.940473 25.4630811 11.940473 25.7109797 11.8289122 25.952973 11.5706149L25.9113784 11.8823176 26.7458378 11.8823176 27.4175135 7.76201351 26.54775 7.76201351zM25.444723 11.1084527C25.1445743 11.1084527 24.9927027 10.8858446 24.9927027 10.4478176 24.9927027 9.78910811 25.2768041 9.32219595 25.6767027 9.32219595 25.9798041 9.32219595 26.144 9.55276351 26.144 9.97846622 26.144 10.6428243 25.8551486 11.1084527 25.444723 11.1084527L25.444723 11.1084527z"/>
      <polyline fill="#FFFFFF" points="5.625 11.638 4.743 11.638 5.249 8.471 4.121 11.638 3.519 11.638 3.445 8.489 2.914 11.638 2.089 11.638 2.778 7.518 4.046 7.518 4.082 10.068 4.938 7.518 6.307 7.518 5.625 11.638"/>
      <path fill="#FFFFFF" d="M7.79693243 10.1453581C7.7045 10.1345743 7.66367568 10.1316216 7.60012838 10.1316216 7.10022297 10.1316216 6.84718919 10.3028784 6.84718919 10.6414122 6.84718919 10.8497703 6.97068919 10.9831554 7.16338514 10.9831554 7.52271622 10.9831554 7.78165541 10.6411554 7.79693243 10.1453581zM8.43831081 11.6380135L7.70770946 11.6380135 7.72439865 11.2910068C7.50153378 11.5650946 7.20408108 11.6961689 6.80007432 11.6961689 6.32212162 11.6961689 5.9945 11.3225878 5.9945 10.7805743 5.9945 9.96434459 6.56437162 9.48908784 7.54274324 9.48908784 7.64287838 9.48908784 7.771 9.4982027 7.9022027 9.51514865 7.9295473 9.40422973 7.93673649 9.35711486 7.93673649 9.29703378 7.93673649 9.0754527 7.78306757 8.99290541 7.37122973 8.99290541 6.93949324 8.98777027 6.58388514 9.09522297 6.43753378 9.14310811 6.44677703 9.08764865 6.55987838 8.38965541 6.55987838 8.38965541 6.99931757 8.26076351 7.28919595 8.21210811 7.61540541 8.21210811 8.37270946 8.21210811 8.77376351 8.55243919 8.77299324 9.19484459 8.77453378 9.367 8.74603378 9.57997973 8.70174324 9.85881757 8.62510135 10.3437027 8.46077703 11.3851081 8.43831081 11.6380135L8.43831081 11.6380135zM20.267223 7.62875676L20.1227973 8.52291216C19.8078851 8.36462162 19.5797568 8.30056081 19.3349392 8.30056081 18.6764865 8.30056081 18.2147095 8.93693243 18.2147095 9.84456757 18.2147095 10.4698986 18.5251284 10.8477162 19.0378716 10.8477162 19.2549595 10.8477162 19.4948986 10.7805743 19.7868311 10.6364054L19.6318784 11.5753649C19.3072095 11.6639459 19.0970541 11.6961689 18.8526216 11.6961689 17.9030068 11.6961689 17.3115676 11.0134527 17.3115676 9.91722973 17.3115676 8.44421622 18.1292095 7.41475 19.2978378 7.41475 19.682973 7.41475 20.1378176 7.57791892 20.267223 7.62875676M21.6899122 10.1453581C21.5978649 10.1345743 21.5570405 10.1316216 21.4936216 10.1316216 20.9938446 10.1316216 20.7408108 10.3028784 20.7408108 10.6414122 20.7408108 10.8497703 20.8643108 10.9831554 21.0568784 10.9831554 21.4158243 10.9831554 21.6751486 10.6411554 21.6899122 10.1453581zM22.3318041 11.6380135L21.6012027 11.6380135 21.6177635 11.2910068C21.3947703 11.5650946 21.0974459 11.6961689 20.6936959 11.6961689 20.2153581 11.6961689 19.8881216 11.3225878 19.8881216 10.7805743 19.8881216 9.96434459 20.4576081 9.48908784 21.4362365 9.48908784 21.5362432 9.48908784 21.6641081 9.4982027 21.7951824 9.51514865 21.822527 9.40422973 21.8298446 9.35711486 21.8298446 9.29703378 21.8298446 9.0754527 21.6766892 8.99290541 21.2644662 8.99290541 20.8331149 8.98777027 20.4776351 9.09522297 20.3308986 9.14310811 20.3402703 9.08764865 20.4532432 8.38965541 20.4532432 8.38965541 20.8928108 8.26076351 21.1824324 8.21210811 21.5086419 8.21210811 22.2659459 8.21210811 22.6672568 8.55243919 22.6663581 9.19484459 22.668027 9.367 22.639527 9.57997973 22.5951081 9.85881757 22.5185946 10.3437027 22.3543986 11.3851081 22.3318041 11.6380135L22.3318041 11.6380135zM12.3577027 11.5871757C12.1164797 11.6631757 11.928277 11.6961689 11.7242838 11.6961689 11.2734189 11.6961689 11.0271892 11.436973 11.0271892 10.9603041 11.021027 10.8116419 11.092277 10.4227838 11.14825 10.0669189 11.1990878 9.7535473 11.5306892 7.78011486 11.5306892 7.78011486L12.4072568 7.78011486 12.3048108 8.28720946 12.754777 8.28720946 12.635 9.09239865 12.1834932 9.09239865C12.0816892 9.73018243 11.9363649 10.5235608 11.9346959 10.6288311 11.9346959 10.8021419 12.0271284 10.8771149 12.2368986 10.8771149 12.3372905 10.8771149 12.4150878 10.8672297 12.4746554 10.8455338L12.3577027 11.5871757M15.0458176 11.5606014C14.7446419 11.652777 14.4536081 11.6964257 14.1461419 11.6961689 13.1645608 11.695527 12.6532297 11.1826554 12.6532297 10.2013311 12.6532297 9.05555405 13.3038514 8.21210811 14.1869662 8.21210811 14.9103784 8.21210811 15.3717703 8.68428378 15.3717703 9.42541216 15.3717703 9.671 15.3396757 9.91068243 15.2639324 10.2492162L13.5181149 10.2492162C13.4588041 10.7353851 13.7701216 10.938223 14.2799122 10.938223 14.5935405 10.938223 14.8767432 10.8732635 15.1917838 10.7269122L15.0458176 11.5606014zM14.5531014 9.57343243C14.5578514 9.50333784 14.6459189 8.97531757 14.1449865 8.97531757 13.8658919 8.97531757 13.6662635 9.18855405 13.5848716 9.57343243L14.5531014 9.57343243 14.5531014 9.57343243zM8.96722973 9.34645946C8.96722973 9.77075 9.17289189 10.0624257 9.63903378 10.2823378 9.99605405 10.4502568 10.0512568 10.4999392 10.0512568 10.6521959 10.0512568 10.8610676 9.89386486 10.9552973 9.54480405 10.9552973 9.28162838 10.9552973 9.03693919 10.914473 8.75450676 10.8234527 8.75450676 10.8234527 8.63896622 11.5617568 8.63344595 11.5966757 8.83384459 11.6405811 9.01267568 11.6806351 9.55109459 11.6961689 10.4818378 11.6961689 10.9116486 11.341973 10.9116486 10.5761959 10.9116486 10.1155743 10.7316622 9.84546622 10.2899122 9.64262838 9.92018243 9.47252703 9.87768919 9.43491216 9.87768919 9.27829054 9.87768919 9.09714865 10.0241689 9.00394595 10.3092973 9.00394595 10.482223 9.00394595 10.7188243 9.0232027 10.942973 9.05478378L11.068527 8.27770946C10.8401419 8.24163514 10.4940338 8.21210811 10.292223 8.21210811 9.30563514 8.21210811 8.96427703 8.72741892 8.96722973 9.34645946M26.9995135 11.6380135L26.1654392 11.6380135 26.206777 11.3261824C25.9647838 11.5846081 25.7167568 11.6961689 25.3936284 11.6961689 24.7526351 11.6961689 24.3287297 11.1438851 24.3287297 10.3055743 24.3287297 9.19099324 24.9861554 8.25152027 25.7636149 8.25152027 26.1057432 8.25152027 26.3646824 8.39119595 26.6059054 8.7085473L26.8015541 7.51783784 27.6713176 7.51783784 26.9995135 11.6380135zM25.698527 10.8637635C26.1094662 10.8637635 26.3978041 10.3983919 26.3978041 9.73467568 26.3978041 9.30884459 26.2336081 9.07763514 25.9303784 9.07763514 25.5304797 9.07763514 25.2463784 9.5445473 25.2463784 10.2035135 25.2463784 10.6421824 25.3986351 10.8637635 25.698527 10.8637635L25.698527 10.8637635zM23.1262095 8.28720946C23.0158041 9.32437838 22.8197703 10.3748986 22.6663581 11.4125811L22.6261757 11.6380135 23.5082635 11.6380135C23.8236892 9.58883784 23.8996892 9.18893919 24.3947162 9.23887838 24.4734122 8.81946622 24.6200203 8.45217568 24.7293986 8.26705405 24.3600541 8.19002703 24.15375 8.39877027 23.8833851 8.79545946 23.9049527 8.62381757 23.9438514 8.45731081 23.9365338 8.28720946L23.1262095 8.28720946M15.8665405 8.28720946C15.7556216 9.32437838 15.5593311 10.3748986 15.4061757 11.4125811L15.3659932 11.6380135 16.2483378 11.6380135C16.5640203 9.58883784 16.6397635 9.18893919 17.1340203 9.23887838 17.2132297 8.81946622 17.360223 8.45217568 17.4692162 8.26705405 17.1001284 8.19002703 16.8935676 8.39877027 16.6237162 8.79545946 16.645027 8.62381757 16.6841824 8.45731081 16.6763514 8.28720946L15.8665405 8.28720946"/>
      <g transform="translate(37)">
        <polygon fill="#F1AD2B" points="0 18.814 30.21 18.814 30.21 16.105 0 16.105"/>
        <polygon fill="#172E66" points="0 2.709 30.21 2.709 30.21 0 0 0"/>
        <path fill="#172E66" d="M14.8442553,5.69255319 L13.2519149,13.1370213 L11.3259574,13.1370213 L12.9185106,5.69255319 L14.8442553,5.69255319 Z M22.9470213,10.4995745 L23.9608511,7.70382979 L24.5440426,10.4995745 L22.9470213,10.4995745 Z M25.0968085,13.1370213 L26.8776596,13.1370213 L25.3217021,5.69255319 L23.6789362,5.69255319 C23.3087234,5.69255319 22.9968085,5.90723404 22.8585106,6.23829787 L19.9685106,13.1370213 L21.9912766,13.1370213 L22.392766,12.0253191 L24.8634043,12.0253191 L25.0968085,13.1370213 Z M20.0689362,10.7065957 C20.0774468,8.74191489 17.3529787,8.63297872 17.3710638,7.75510638 C17.3770213,7.48851064 17.6312766,7.20425532 18.1878723,7.13170213 C18.463617,7.09617021 19.2244681,7.06744681 20.087234,7.46489362 L20.4246809,5.88553191 C19.9612766,5.71787234 19.3651064,5.55659574 18.6231915,5.55659574 C16.7191489,5.55659574 15.3797872,6.56787234 15.3689362,8.01723404 C15.3568085,9.08914894 16.3257447,9.68659574 17.0542553,10.043617 C17.8055319,10.4082979 18.057234,10.6425532 18.053617,10.9685106 C18.0482979,11.4678723 17.4544681,11.6889362 16.9017021,11.697234 C15.932766,11.7125532 15.3712766,11.4355319 14.923617,11.2268085 L14.5740426,12.8589362 C15.0248936,13.0651064 15.8553191,13.2446809 16.7153191,13.2538298 C18.7393617,13.2538298 20.0629787,12.2544681 20.0689362,10.7065957 L20.0689362,10.7065957 Z M12.0923404,5.69255319 L8.97170213,13.1370213 L6.93595745,13.1370213 L5.40021277,7.19574468 C5.30723404,6.83042553 5.22595745,6.69617021 4.94297872,6.54170213 C4.47978723,6.29021277 3.71510638,6.05489362 3.04297872,5.90851064 L3.08829787,5.69255319 L6.36574468,5.69255319 C6.78319149,5.69255319 7.1587234,5.97021277 7.25425532,6.45106383 L8.06531915,10.7593617 L10.0689362,5.69255319 L12.0923404,5.69255319 L12.0923404,5.69255319 Z"/>
      </g>
    </g>
    <g transform="translate(32 23)">
      <mask id="b" fill="white">
        <use xlink:href="#a"/>
      </mask>
      <path fill="#1D89BB" d="M1.37957447,6.78644444 C1.60914894,6.81888889 1.86978723,6.82977778 2.14085106,6.82977778 C2.97531915,6.82977778 3.14212766,6.48133333 3.14212766,5.86066667 L3.14212766,4.22644444 C3.14212766,3.80177778 2.96489362,3.57288889 2.49553191,3.57288889 C2.14085106,3.57288889 1.69255319,3.72533333 1.37957447,3.87777778 L1.37957447,6.78644444 Z M4.41468085,5.81666667 C4.41468085,7.10222222 4.03914894,7.96288889 2.07851064,7.96288889 C1.56723404,7.96288889 0.743191489,7.90844444 0.107234043,7.77755556 L0.107234043,0.380888889 L1.37957447,0.196 L1.37957447,2.75577778 C1.75510638,2.59244444 2.32851064,2.44 2.88148936,2.44 C3.97659574,2.44 4.41468085,3.13711111 4.41468085,4.25911111 L4.41468085,5.81666667 L4.41468085,5.81666667 Z" mask="url(#b)"/>
      <polyline fill="#1D89BB" points="8.243 7.854 7.565 10 6.355 10 6.992 7.854 6.543 7.854 4.937 2.549 6.241 2.549 7.398 6.579 8.567 2.549 9.87 2.549 8.243 7.854" mask="url(#b)"/>
    </g>
    <path fill="#1D89BB" d="M58.6934965 25L55 25 55 31 56.3826604 31 56.3826604 26.0845425 58.0527515 26.0845425C58.4377792 26.0845425 58.617563 26.2560695 58.617563 26.6241201L58.617563 31 60 31 60 26.6896279C60 25.5527223 59.5727622 25 58.6934965 25M63.5723285 25C61.8653756 25 61 25.7503232 61 27.230283L61 28.793636C61 30.3190634 61.8093794 31 63.6245917 31L65.9444704 31 65.9444704 29.9148111 63.475735 29.9145956C62.7911806 29.9145956 62.4442371 29.5502083 62.4442371 28.8666858L62.4442371 27.0846143C62.4442371 26.4194081 62.8385441 26.0673035 63.5856276 26.0673035 64.5100327 26.0673035 64.6348577 26.5814538 64.6348577 27.0846143L64.6348577 27.4479241 63.2123192 27.4479241 63.2123192 28.4572619 66 28.4572619 66 27.3031174C66 25.7102428 65.2515166 25 63.5723285 25M73.2424635 27.4341269C72.4165316 27.2221265 72.3501891 27.1633093 72.3501891 26.6492513 72.3501891 26.3306043 72.4502431 26.0839168 72.8636413 26.0839168L74.7015667 26.083055 74.7015667 25 73.1592653 25C71.3723393 25 71.0365208 25.6036842 71.0365208 26.6371863 71.0365208 27.7592373 71.2204214 28.0862868 72.597839 28.4208769 73.5218801 28.6427879 73.6863317 28.8351826 73.6863317 29.2667241 73.6863317 29.6521599 73.6094003 29.9143596 73.1918963 29.9143596L71 29.9150059 71 31 73.1529984 30.9991382C74.7011345 30.9444145 75 30.3069051 75 29.2303135 75 28.0821933 74.880497 27.8663148 73.2424635 27.4341269M67.1829587 29.2121628L67.1829587 25.7796068 68.9237725 25.7796068 68.9237725 24.7085048 67.1829587 24.7085048 67.1829587 23 66 23.1970736 66 29.4366712C66 30.3904893 66.4399796 31 67.0981341 31L69 30.9997714 69 29.8459076 67.7192256 29.8459076C67.3621601 29.8459076 67.1829587 29.6236854 67.1829587 29.2121628M46.541237 27C46.8374932 26.847833 47.2149923 26.7605163 47.6641624 26.7404398 47.9702238 26.7267368 48.2998642 26.7864882 48.6388429 26.9181007 48.7658432 26.8776291 48.8872406 26.8355641 49 26.793499 48.5361221 26.3891013 48.1436819 26.097355 47.4017574 26.015615 47.3079079 26.0052581 47.213825 26 47.1218431 26 46.6745407 26 46.2792989 26.1214149 46.0075557 26.3417782 45.9587633 26.512269 46.1473961 26.8078394 46.541237 27M51.4586671 28C51.1626559 28.1524614 50.7847047 28.2396049 50.3355521 28.2598375 50.0299695 28.2735383 49.7001085 28.2134778 49.361143 28.0820456 49.2339142 28.1226701 49.1127551 28.1645691 49 28.206946 49.4633929 28.61112 49.8560513 28.9026605 50.5979469 28.9843874 50.6920261 28.9945834 50.7858719 29 50.8783171 29 51.3256021 29 51.7210619 28.8789231 51.9925611 28.6582762 52.0408847 28.4878126 51.8527262 28.1922893 51.4586671 28"/>
    <path fill="#1D89BB" d="M48.9117001,24 L48.8998389,24 C47.6550739,24.0053839 46.5025626,24.8139045 46,26.022706 C46.2572119,25.8422285 46.5642847,25.7474251 46.8935422,25.7474251 C46.9919461,25.7474251 47.0929858,25.7558521 47.1929272,25.7734082 C47.9832333,25.9094101 48.402548,26.4084738 48.8682091,27.0458801 C49.2152585,27.5208333 49.8146874,27.9995318 50.3728218,28 C50.3954459,28 50.4171914,27.9988296 50.4398155,27.9976592 C51.4027676,27.9302434 51.7318055,27.3274813 51.8952262,26.8796816 C51.9356421,26.7682584 51.9764973,26.6544944 52,26.5763109 C51.6494362,25.0592228 50.3805096,24 48.9117001,24"/>
    <path fill="#1D89BB" d="M46.1495881 28.0056768C46.0883031 28.1543279 46.0338276 28.3062562 46 28.4233043 46.3501373 29.9409493 47.6191104 31 49.0888523 31L49.1002746 31C50.3448655 30.9948499 51.498078 30.1858138 52 28.9767074 51.743218 29.1581319 51.4365733 29.2527067 51.107084 29.2527067 51.0082372 29.2527067 50.9076332 29.2438111 50.8072488 29.2267221 50.0171334 29.0907122 49.5978034 28.5916194 49.1316859 27.9539416 48.7848435 27.4796629 48.1847337 27 47.6261395 27 47.6043932 27 47.5824272 27.0009364 47.5609006 27.0025751 46.6405272 27.0664833 46.3147721 27.6058407 46.1495881 28.0056768M17.5644519 9.89578529C17.5644519 14.4859629 16.0598482 14.8293437 13.7648376 14.8293437L3.43576583 14.8293437 3.43576583 3.16766111 14.1173634 3.16766111C16.2018166 3.16766111 17.5644519 3.52002758 17.5644519 8.19407136L17.5644519 9.89578529zM13.5438285 0L0 0 0 18 13.4771992 18C19.8004541 18 21 14.8353341 21 9 21 2.10392945 19.2582742 0 13.5438285 0L13.5438285 0z"/>
    <polygon fill="#1D89BB" points="25 18 28 18 28 0 25 0"/>
    <path fill="#1D89BB" d="M47.7124403 13.2589916C47.7124403 14.085245 47.5517515 14.8293437 45.6357471 14.8293437L35.1318185 14.8293437 35.1281616 10.332018 45.3081312 10.332018C47.26135 10.332018 47.7124403 10.655288 47.7124403 12.0617586L47.7124403 13.2589916zM35.1318185 3.16766111L45.4845232 3.16766111C45.8622603 3.16766111 47.0985101 3.2466066 47.0985101 4.25642428L47.0985101 5.77478784C47.0985101 6.45983788 46.8956593 7.16285925 45.3750311 7.16285925L35.1281616 7.16285925 35.1318185 3.16766111zM49.216935 8.35239023C49.966601 7.77495424 50.3890814 6.89906578 50.3890814 5.79789384L50.3890814 4.36938693C50.3890814 2.73763282 49.7646106 0 45.5759459 0L32 0 32 18 45.7929941 18C48.954283 18 51 16.3477072 51 13.7885041L51 11.8088763C51 10.1041672 50.3940289 8.95806689 49.216935 8.35239023L49.216935 8.35239023zM68.2665677 7.71773339L61.7558106 7.71773339C58.3613985 7.71773339 58.3613985 7.07219149 58.3613985 5.66492342 58.3613985 3.59197484 59.0283163 3.27816668 63.4632087 3.27816668L65.7963131 3.27816668C70.1988567 3.27816668 71.0111227 3.47512667 71.1819511 4.78170171L74.5712671 4.78170171C74.4008818 1.35813872 72.2727273 0 67.1215075 0L62.3843972 0C59.7293555 0 58.1161235.308054278 56.9839142 1.03105236 55.6483061 1.87753771 55 3.3392464 55 5.49806068 55 10.9350416 58.2769814 11.1886553 64.5597456 11.1886553L68.7376199 11.1886553C71.4137106 11.1886553 71.638823 11.6817192 71.638823 13.2155728 71.638823 15.0338012 71.3366051 15.7180712 68.1560056 15.7180712L61.3292934 15.7180712C58.8198214 15.7180712 58.4373961 15.0565954 58.3913101 14.1490303L55.0279175 14.1490303C55.1506658 18.9964591 59.7366672 19 61.7086168 19L67.8158997 19C70.3271442 19 75 19 75 13.7635199L75 12.6441675C75 8.22982936 71.1580218 7.71773339 68.2665677 7.71773339"/>
  </g>
</svg>
