<svg xmlns="http://www.w3.org/2000/svg" width="260" height="37" viewBox="0 0 260 37">
  <g fill="none" fill-rule="evenodd">
    <path d="M208.066651 16.1115935C208.024018 17.8937644 208.089469 22.2002771 208.158522 25.3160739L210.980693 23.1093764C209.921478 20.3874827 208.698938 17.4254042 208.066651 16.1115935zM193.077921 28.7759353C193.952794 29.7498845 195.737968 30.9676212 196.449515 30.9910393L196.449515 14.3084065C195.761386 14.3588453 193.896351 15.2889607 193.182402 15.6450346L193.097737 15.687067C193.107945 16.6820323 193.097136 20.5267898 193.088129 23.9506236 193.082725 26.0630485 193.077321 27.9587067 193.077921 28.7759353zM135.643141 29.8261432C136.777413 29.8261432 137.962125 30.1738106 138.969099 30.7922864 139.069977 28.6360277 139.056166 26.4725635 138.928868 24.3505312 138.754134 23.9626328 138.298383 23.5783372 137.802402 23.6095612 137.304619 24.463418 136.756998 25.3214781 136.226189 26.1525173 135.378938 27.4801386 134.507067 28.8455889 133.80933 30.2386605L134.316721 29.9912702C134.741247 29.8819861 135.18739 29.8261432 135.643141 29.8261432zM135.636536 21.2221247C135.667159 21.3740416 135.774642 21.9865127 137.002587 21.9865127 137.03321 21.9865127 137.065035 21.9865127 137.095058 21.9853118 138.066005 20.9915473 138.752933 19.5756582 139.479492 18.0799076 139.794734 17.4296074 140.118383 16.7618938 140.47806 16.1031871 140.024711 16.1536259 139.570762 16.1794457 139.122217 16.1794457 139.122217 16.1794457 139.122217 16.1794457 139.121617 16.1794457 137.915289 16.1788453 136.782818 15.9909007 135.821478 15.631224 135.52485 16.9678522 135.566882 18.4858199 135.608314 19.9581524 135.620323 20.382679 135.632333 20.8054042 135.636536 21.2221247zM42.8183372 15.505127L42.8315473 29.3289607 43.9610162 30.6908083C44.1033256 30.8103002 44.2774596 30.8847575 44.46 30.8847575 44.9505774 30.8847575 45.476582 30.3425404 45.7984296 29.9888684L45.7846189 17.5016628C45.0910855 16.434642 43.9586143 15.9386605 42.8183372 15.505127zM106.884018 16.1115935C106.841386 17.8937644 106.906836 22.2002771 106.97649 25.3160739L109.798661 23.1093764C108.738845 20.3874827 107.516305 17.4254042 106.884018 16.1115935zM14.9472979 29.4298383C15.1742725 29.4376443 15.4006467 29.4454503 15.623418 29.4454503 16.0389376 29.4454503 16.5133025 29.4214319 16.946836 29.2605081L16.946836 9.5065127C16.5024942 8.25815242 15.1292379 7.81561201 13.9355196 7.67510393L13.9355196 29.4178291C14.0363972 29.4142263 14.1378753 29.4130254 14.2393533 29.4130254 14.4747344 29.4130254 14.7113164 29.4214319 14.9472979 29.4298383zM253.303649 16.5145035C253.277829 18.4473903 253.336674 22.2789376 253.399723 25.1659584L256.029746 23.1093764C255.066605 20.6354734 253.970762 17.9670208 253.303649 16.5145035zM237.867575 28.8359815C238.741247 29.8069284 240.514411 31.050485 241.234365 31.050485L241.239169 31.050485 241.239169 14.3684527C240.549838 14.4188915 238.684804 15.3496074 237.970855 15.7056813L237.88739 15.7471132C237.898199 16.7474827 237.88739 20.6240647 237.877783 24.077321 237.871778 26.1627252 237.866374 28.0277598 237.867575 28.8359815z"/>
    <path fill="#000000" fill-rule="nonzero" d="M177.607621 24.9473903C176.892471 26.3770901 176.172517 27.4152887 175.295843 28.2949654 175.102494 28.4552887 174.924157 28.6228176 174.748822 28.7879446 174.232425 29.2767206 173.777875 29.7060508 173.008684 29.8045266L173.000878 8.70669746C174.840693 8.63224018 175.750393 8.55898383 177.141062 7.72494226 178.956859 6.64591224 180.176998 4.59953811 180.176998 2.6330254L179.589746 2.54355658C179.587344 2.55256351 179.311732 3.42083141 178.902217 3.90660508 178.027344 4.66198614 177.309792 4.74905312 175.788222 4.77907621 173.897968 4.6295612 171.936259 4.0465127 169.859861 3.42923788 167.4406 2.70988453 164.938476 1.96531178 162.543834 1.96531178 159.991871 1.96531178 157.88545 2.82277136 156.088868 4.60314088 154.241848 6.74438799 153.682217 8.80997691 154.424988 10.7416628L155.004434 10.6083603C154.883741 9.16845266 155.113718 8.10203233 155.712379 7.27099307 156.671316 6.1391224 157.850624 5.61251732 159.424434 5.61251732 160.794688 5.61251732 162.246605 6.01542725 163.651686 6.40572748 164.368637 6.60448037 165.045958 6.7930254 165.65843 6.91371824 166.580739 7.25598152 167.558291 7.46614319 168.504619 7.66849885 169.509792 7.88406467 170.54739 8.10683603 171.508129 8.48993072L171.484711 30.2194457C170.905266 30.6571824 170.239353 30.86194 169.400508 30.86194 168.585681 30.86194 167.703002 30.6637875 166.849746 30.4716397 166.484065 30.3893764 166.118984 30.3083141 165.759307 30.2398614 165.60679 30.1503926 165.445266 30.0621247 165.280139 29.9720554 164.653256 29.6309931 164.007159 29.2785219 163.741155 28.7513164L170.05261 24.5066513 169.913903 24.2640647C169.763788 24.0034642 169.402309 24.0551039 169.006605 24.2340416 168.906928 24.2784758 168.768822 24.3403233 168.669746 24.3673441L168.669746 11.0292841C169.264804 10.5549192 170.143279 9.78272517 170.197321 9.32457275 170.214734 9.1708545 170.160092 9.06457275 170.109654 9.00272517L169.93612 8.78475751 169.706143 8.94207852C169.375289 9.16785219 167.881339 10.2805081 166.375381 11.4213857 163.386882 13.6857275 163.386882 13.6857275 163.467945 13.9463279L163.536397 14.1588915 163.757968 14.1588915 163.849838 14.1450808C164.00836 14.0970439 164.13746 14.0532102 164.243741 14.016582 164.325404 13.9883603 164.414873 13.9577367 164.472517 13.9427252 164.485127 13.9655427 164.500139 13.9967667 164.518152 14.0357968L164.518152 26.9121016C164.413072 27.0189838 164.311594 27.1294688 164.210716 27.2387529 163.705727 27.7863741 163.293811 28.2181062 162.72037 27.9983372 159.473072 24.2418476 160.317321 18.3062818 160.833718 15.915843 161.323095 13.4665589 162.617691 11.267067 163.869053 9.14023095 164.149469 8.66406467 164.426882 8.19330254 164.690485 7.72614319L165.128822 6.95034642 164.310393 7.30281755C159.901801 9.19967667 156.378891 13.8442494 155.7406 18.5999076 154.979215 24.9407852 157.155289 30.2512702 161.757229 33.192933 163.793995 34.0473903 165.91903 34.4989376 167.902956 34.4989376 169.757182 34.4983372 171.45649 34.1128406 172.955843 33.3508545 176.292009 31.6527483 178.39903 28.4859122 178.454273 25.0866975L178.459076 24.7816628 177.691085 24.7816628 177.607621 24.9473903zM180.052702 6.74258661L180.147575 6.8812933C180.334319 7.15150115 180.486836 7.44332564 180.648961 7.75136259 181.006236 8.43048499 181.374919 9.1330254 182.118291 9.62840647L182.356674 9.78752887 182.526005 9.5569515C182.792009 9.19547344 183.068222 8.88443418 183.335427 8.58360277 183.84642 8.00775982 184.329192 7.46374134 184.672055 6.66332564L184.738707 6.50900693 184.641432 6.37150115C184.430069 6.07247113 184.268545 5.77344111 184.097413 5.45699769 183.745543 4.80849885 183.382263 4.13838337 182.58545 3.48928406L182.326051 3.27852194 182.144111 3.55773672C181.912933 3.91200924 181.676351 4.2104388 181.446374 4.49866051 181.009238 5.04988453 180.55649 5.6191224 180.121155 6.58766744L180.052702 6.74258661zM74.9838799 30.9640185C74.7214781 30.8175058 74.5671594 30.4722402 74.4800924 30.1828176L74.4800924 16.9180139C74.8199538 16.6249885 75.8713626 15.7056813 76.2850808 15.1892841 76.3084988 15.1598614 76.3355196 15.1262356 76.3613395 15.0884065L76.3709469 15.0998152 76.4081755 15.008545 76.4544111 14.8956582 76.7342263 14.2117321 76.0839261 14.4681293C75.9872517 14.4843418 75.7818938 14.5581986 75.2979215 14.89806 74.9970901 15.2084988 74.6884527 15.3592148 74.3551963 15.3592148 73.5986143 15.3592148 72.7663741 14.5894226 72.0320092 13.9103002 71.4813857 13.4011085 70.9613857 12.920739 70.4738106 12.7580139L70.333903 12.7117783 70.2114088 12.7940416C69.6067436 13.2017552 69.1161663 13.716351 68.5967667 14.26097 68.1332102 14.7479446 67.6552425 15.2493303 67.0637875 15.7044804 66.5960277 15.4570901 66.2267436 14.9719169 65.8388453 14.4615242 65.2744111 13.7199538 64.6355196 12.8781062 63.5600924 12.7051732L63.4129792 12.6811547 63.085127 12.9939954C62.0361201 13.9967667 61.123418 14.8692379 59.8918707 15.6726559L57.5476674 13.4473441C56.8997691 12.850485 56.2188453 12.6199076 55.5589376 12.7736259L55.4496536 12.8234642C54.741709 13.3398614 54.0001386 14.2981986 53.4038799 15.0679908 53.0928406 15.4696998 52.8244342 15.8167667 52.6298845 16.0131178L52.646097 16.0323326 52.2035566 16.7132564 53.0069746 16.4688684 53.0105774 16.4736721C53.0171824 16.4688684 53.0231871 16.4664665 53.0297921 16.4616628L53.0670208 16.450254 53.0616166 16.4418476C53.4585219 16.1830485 53.8055889 16.048545 54.0902079 16.048545 54.2349192 16.048545 54.6678522 16.048545 55.0467436 16.8507621 55.0977829 18.3296998 55.1031871 28.9878984 55.0557506 30.3323326L54.1058199 30.9436028 57.3014781 34.4581062 57.5134411 34.3272055C58.9323326 33.4499307 59.8246189 32.4339492 60.5769977 31.4660046L60.7385219 31.2588453 59.8336259 30.3359353 59.8570439 17.6325635C60.0690069 17.2476674 60.6418476 16.4142263 61.2471132 16.3013395 62.0103002 16.1620323 62.7692841 16.8813857 62.9950577 17.5424942 63.1812009 18.1033256 63.1535797 25.2031871 63.0917321 29.616582L61.809746 31.38194 64.8354734 34.5391686 68.261709 31.2888684 66.9797229 29.9924711 66.9797229 17.6475751C67.2048961 17.317321 67.7519169 16.6273903 68.2346882 16.4568591 68.962448 16.2016628 69.4548268 16.987067 69.8901617 17.6962125 69.9622171 17.8133025 70.0324711 17.9279908 70.1021247 18.0354734 70.1015242 18.3753349 70.0979215 18.908545 70.0937182 19.5876674 70.0763048 22.4981062 70.0444804 27.914873 70.0889145 32.4177367L70.089515 32.5132102 71.1030947 33.9188915 71.152933 33.972933C71.562448 34.3187991 72.0302079 34.4947344 72.5436028 34.4947344 74.7004619 34.4947344 76.9972286 31.3645266 77.0524711 30.6830023L77.0951039 30.1551963 76.6195381 30.3899769C76.0917321 30.6511778 75.2690993 30.8865589 74.9838799 30.9640185z"/>
    <path fill="#000000" fill-rule="nonzero" d="M186.53709 30.2044342L186.406189 30.2044342C186.211039 30.2044342 186.003279 30.3245266 185.740878 30.4764434 185.466467 30.6349654 185.125404 30.8319169 184.872009 30.8319169 184.765127 30.8319169 184.63963 30.8006928 184.545958 30.6205543 184.415058 30.128776 184.37843 24.6849885 184.448684 16.4142263 184.449284 16.3775982 184.449885 16.3463741 184.449885 16.3187529L186.084942 14.3648499 185.295935 14.4879446C184.075196 14.6800924 183.162494 13.8382448 182.275012 13.0228176 181.992194 12.7622171 181.699769 12.4938106 181.403141 12.2644342L181.267436 12.1599538 181.108915 12.2224018C180.215427 12.5760739 179.599353 13.2179677 179.003695 13.8382448 178.715473 14.1396767 178.416443 14.4507159 178.092194 14.7209238L177.369838 15.3225866 178.307159 15.2511316C178.872794 15.206097 179.577737 15.5885912 180.14097 16.2292841L180.148776 31.5518707 180.163187 31.6449423C180.632748 33.0848499 182.304434 34.1056351 182.80642 34.3842494L182.996166 34.4899307 183.155889 34.3422171C186.697413 31.0588915 186.711824 30.6709931 186.716628 30.5436952L186.713025 30.3911778 186.53709 30.2044342zM202.333441 11.7690531L201.502402 11.9527945C201.206374 12.0188453 200.623326 11.9918245 200.419169 11.9690069 198.303741 10.4324249 196.199723 8.74752887 194.164157 7.11727483 192.533903 5.81127021 190.848406 4.46143187 189.153903 3.18484988 189.153303 3.18424942 189.152102 3.18364896 189.151501 3.1830485L188.475381 2.64203233 188.672333 3.45265589C188.672333 3.45806005 188.673533 3.46406467 188.674134 3.46886836 188.686744 3.69704388 188.697552 5.79265589 188.701755 7.17191686L188.702356 7.29381062 188.788222 7.38147806C189.732148 8.34401848 190.979908 9.27233256 192.186236 10.171224 193.571501 11.2022171 194.885912 12.1821709 195.671917 13.1381062 194.443372 13.6635104 190.3194 15.4174596 188.087483 16.2545035L187.559677 16.4520554 188.158938 16.8777829C188.51261 17.1203695 188.68194 17.2518707 188.670531 17.5911316 188.675935 20.7579677 188.685543 28.9530716 188.671732 29.5018938 188.549838 29.9534411 188.12351 30.0747344 188.107898 30.0795381L187.392148 30.2620785 188.03224 30.6307621C188.872887 31.1153349 189.693118 31.7656351 190.485127 32.3943187 191.39963 33.1196767 192.345358 33.870254 193.345127 34.3854503L193.493441 34.4623095 193.636952 34.375843C194.359908 33.941709 195.070855 33.4463279 195.758383 32.9665589 197.446282 31.790254 199.192425 30.5737182 201.191363 30.2272517L202.032009 30.08194 201.285035 29.6688222C201.277829 29.6652194 200.640139 29.2977367 200.638337 28.7585219 200.636536 28.0283603 200.652148 15.4240647 200.649746 15.3838337 200.51224 14.3606467 201.343279 13.0060046 201.802032 12.433164L202.333441 11.7690531zM193.097737 15.687067L193.182402 15.6450346C193.896351 15.2889607 195.761386 14.3588453 196.449515 14.3084065L196.449515 30.9910393C195.737367 30.9676212 193.952794 29.7498845 193.077921 28.7759353 193.077321 27.9593072 193.082725 26.0630485 193.08873 23.9506236 193.097136 20.5267898 193.107945 16.6820323 193.097737 15.687067zM50.3090993 30.0170901L50.3090993 16.5979677 51.6000924 15.009746 51.6018938 15.0121478 51.6103002 14.9971363 51.6475289 14.9515012 51.6391224 14.9436952 52.0402309 14.1997229 51.2145958 14.5251732 51.2566282 14.5780139 51.2151963 14.5383834C51.0566744 14.6788915 50.2700693 15.0169515 50.007067 15.04097 49.4498383 14.7143187 48.9046189 14.3402309 48.3780139 13.9781524 47.3013857 13.2383834 46.1875289 12.4733949 44.9283603 12.0915012L44.7560277 12.039261 44.6287298 12.1665589C42.0131178 14.7821709 39.7493764 16.4604619 37.9011547 17.1551963L36.8767667 17.5400924 37.9545958 17.7316397C38.1299307 17.7634642 38.6385219 17.9147806 38.7580139 18.2006005 38.7682217 19.0322402 38.7628176 28.6720554 38.7622171 29.8723788L38.6913626 29.9456351C38.4337644 30.215843 38.1905774 30.4716397 37.8951501 30.4716397L37.1463741 30.4716397 40.1931178 33.382679C40.7125173 33.8570439 41.1136259 34.1614781 41.6258199 34.3127945L41.7122864 34.3386143 41.7981524 34.312194C42.6904388 34.0401848 43.4398152 33.3562587 44.1639723 32.6957506 44.7476212 32.1631409 45.302448 31.657552 45.8740878 31.4167667 46.650485 32.7029561 47.7265127 33.7471594 48.9250346 34.3722402L49.0865589 34.4563048 49.2360739 34.3524249C50.7852656 33.2745958 52.3602771 32.1223095 53.0982448 30.9309931L53.7317321 29.907806 52.0594457 30.8811547C51.2542263 31.0859122 50.6405543 30.5274827 50.3090993 30.0170901zM44.46 30.8847575C44.2774596 30.8847575 44.1039261 30.8103002 43.9610162 30.6908083L42.8315473 29.3289607 42.8183372 15.505127C43.9586143 15.9386605 45.0910855 16.434642 45.7840185 17.5010624L45.7978291 29.9882679C45.476582 30.34194 44.9499769 30.8847575 44.46 30.8847575zM143.677921 29.127806C143.437737 29.2190762 143.186143 29.3139492 143.061247 29.2232794 143.067252 28.7351039 143.040231 28.1880831 143.010808 27.6122402 142.919538 25.7802309 142.816259 23.7044342 143.680323 22.328776L144.022587 21.784157 143.384896 21.8718245C142.118522 22.0435566 141.171594 21.1086374 140.247483 20.1989376 140.158014 20.1106697 140.068545 20.0236028 139.979677 19.9365358 140.454042 18.9607852 140.983649 18.003649 141.496443 17.0765358 142.227206 15.7561201 142.983788 14.3900693 143.590855 12.9507621L143.932517 12.1413395 143.167529 12.5724711C141.512656 13.5037875 139.305358 13.5037875 137.649885 12.5724711L137.406097 12.4349654 137.252379 12.668545C136.103095 14.4146882 134.149192 15.5675751 131.444111 16.0947806L131.246559 16.1332102 131.206928 16.3307621C131.128868 16.7198614 131.403279 16.9354273 131.566605 17.0639261 131.576212 17.0711316 131.585219 17.0777367 131.594827 17.0855427 131.700508 20.9627252 131.646467 23.3195381 131.434503 24.0893303L131.33903 24.4381986 131.699307 24.4682217C132.848591 24.5636952 133.893395 25.196582 134.903972 25.8078522L134.965219 25.8450808C134.359353 27.1877136 133.540323 28.4690993 132.746513 29.710254 131.994734 30.885358 131.284988 31.9950115 130.783002 33.1028637L130.381894 33.9909469 133.166236 32.2832333C133.521709 32.1457275 133.880185 32.0724711 134.205035 32.0724711 134.627159 32.0724711 135.185589 32.1973672 135.438984 32.7624018 135.640139 33.3778753 135.578291 33.7045266 135.484619 34.1999076 135.466005 34.2983834 135.44679 34.4010624 135.428176 34.5103464L135.302079 35.2699307 135.909145 34.7967667C139.045958 32.3498845 141.773256 30.703418 144.492748 29.6147806L144.961109 29.4274365 144.57261 29.1049885C144.354642 28.9248499 144.014781 29.0005081 143.677921 29.127806zM135.821478 15.631224C136.783418 15.9909007 137.915289 16.1788453 139.121617 16.1794457L139.122217 16.1794457C139.570762 16.1794457 140.024711 16.1536259 140.47806 16.1031871 140.118383 16.7618938 139.794734 17.4296074 139.479492 18.0799076 138.752933 19.5756582 138.066005 20.9915473 137.095058 21.9853118 137.064434 21.9865127 137.03261 21.9865127 137.002587 21.9865127 135.774642 21.9865127 135.666559 21.3734411 135.636536 21.2221247 135.632333 20.8060046 135.620924 20.3832794 135.608314 19.9587529 135.566882 18.4858199 135.52485 16.9678522 135.821478 15.631224zM136.226189 26.1531178C136.756998 25.3220785 137.304619 24.4640185 137.802402 23.6101617 138.298383 23.5789376 138.754134 23.9638337 138.928868 24.3511316 139.056767 26.4725635 139.069977 28.6366282 138.969099 30.7928868 137.962125 30.1744111 136.777413 29.8267436 135.643141 29.8267436 135.18679 29.8267436 134.741247 29.8825866 134.31612 29.9918707L133.80873 30.239261C134.507067 28.8461894 135.378938 27.480739 136.226189 26.1531178zM10.2516859 8.3530254L9.89140878 8.37884527C9.07898383 8.43769053 8.29538106 8.72531178 7.64027714 9.20267898 5.76383372 10.392194 5.57709007 12.3599076 5.41196305 14.095843 5.36993072 14.5383834 5.32969977 14.9605081 5.26424942 15.3610162 5.1621709 15.3760277 5.05889145 15.3892379 4.95501155 15.402448 4.14678984 15.5081293 3.23048499 15.6270208 2.62581986 16.4856813 1.66748268 17.6247575 1.58882217 19.7023557 1.89986143 20.7645727L2.08900693 21.4088684 2.44327945 20.8384296C2.56397229 20.6444804 2.95127021 20.0932564 3.29293303 19.878291 3.45025404 19.7792148 3.8243418 19.672933 4.27408776 19.672933 4.72143187 19.672933 5.0991224 19.7810162 5.33090069 19.9725635 5.31408776 20.8864665 5.32309469 21.8171824 5.33150115 22.7178753 5.34711316 24.3439261 5.36332564 26.0252194 5.22341801 27.5984296L5.18799076 27.9953349 5.57889145 27.9196767C7.38147806 27.5708083 9.45967667 26.0342263 9.82235566 24.0328868 9.97006928 21.7913626 9.95445727 19.4645727 9.93944573 17.214642 9.92083141 14.3834642 9.90101617 11.4568129 10.2096536 8.71090069L10.2516859 8.3530254z"/>
    <path fill="#000000" fill-rule="nonzero" d="M22.0279446 13.448545C22.0135335 12.9213395 22.029746 12.3779215 22.045358 11.8519169 22.1030023 9.92083141 22.1618476 7.92489607 20.8402309 5.96919169 19.0556582 2.96147806 15.7657275 2.61381062 13.4461432 2.61381062 12.3448961 2.61381062 11.2568591 2.69847575 10.2048499 2.77953811 8.80517321 2.88762125 7.55020785 2.97588915 6.58466513 2.85879908 4.24886836 2.81916859 2.5369515 2.20009238 1.35103926.968545035L.417921478 0 1.90466513 4.38517321 1.93288684 4.4452194C3.69584296 7.33704388 7.11127021 7.36466513 10.1249885 7.3886836 10.92 7.39528868 11.6759815 7.4012933 12.3911316 7.45413395L12.3941339 29.4586605 5.35672055 29.4586605 5.29667436 29.4646651C2.49371824 30.0363048 0 33.3880831 0 35.627806L0 36.565127.544618938 35.8025404C.800415704 35.4440647 1.59482679 34.4935335 2.23612009 34.3272055L13.1116859 34.4196767 13.2029561 34.3067898C15.1664665 31.8731178 17.8090993 30.5797229 20.3646651 29.3295612 21.0557968 28.9915012 21.7709469 28.6414319 22.4458661 28.2793533L22.8649885 28.0547806 22.0141339 27.4284988 22.0279446 13.448545zM13.9361201 7.67510393C15.1298383 7.81501155 16.5024942 8.25815242 16.9474365 9.5065127L16.9474365 29.2605081C16.513903 29.4214319 16.0395381 29.4454503 15.6240185 29.4454503 15.4006467 29.4454503 15.1742725 29.4370439 14.9478984 29.4298383 14.7119169 29.4214319 14.4753349 29.4136259 14.2405543 29.4136259 14.1390762 29.4136259 14.0375982 29.4148268 13.9367206 29.4184296L13.9367206 7.67510393 13.9361201 7.67510393zM34.2065127 30.5418938C34.0023557 30.6445727 33.792194 30.750254 33.4787529 30.8403233 32.4495612 31.1915935 31.8286836 31.1819861 31.4630023 30.8133025 31.168776 30.5166744 31.0234642 29.9612471 31.0306697 29.1626328L30.9862356 29.1620323C31.1069284 27.7875751 31.0474827 19.8440647 31.0222633 17.5028637 31.3230947 17.7586605 31.6101155 18.034873 31.8911316 18.3056813 32.4723788 18.8653118 33.0734411 19.444157 33.7771824 19.8128406L33.9843418 19.9221247 34.1404619 19.7473903C34.4533025 19.3979215 34.8213857 19.0688684 35.1774596 18.751224 35.8860046 18.1171363 36.6185681 17.4626328 36.9734411 16.5955658L37.0400924 16.4322402 36.9296074 16.2947344C36.7698845 16.0959815 36.6011547 15.8515935 36.4180139 15.5867898 35.8235566 14.7281293 35.0831871 13.6599076 34.0461894 13.1645266L33.863649 13.0768591 30.7886836 15.8870208C30.3947806 15.1028176 29.9414319 14.3852656 29.451455 13.7781986L29.3842032 13.7115473C28.7657275 13.0972748 28.3928406 12.7255889 27.4705312 12.5166282L27.3744573 12.4944111 27.2837875 12.5340416C27.1306697 12.6006928 26.8382448 12.8727021 25.8408776 13.8418476 25.2938568 14.3726559 24.6741801 14.9743187 24.2742725 15.3201848L23.6636028 15.8473903 24.4706236 15.8473903C25.054873 15.8473903 25.8690993 15.9242494 26.2822171 16.5745497L26.291224 29.8579677 25.2422171 30.7760739 25.5088222 31.0012471C27.2357506 32.4627714 28.67806 33.5303926 30.0483141 34.3626328L30.2188453 34.4665127 36.3327483 30.0194919 35.0777829 30.2290531C34.7115012 30.2884988 34.4545035 30.4175982 34.2065127 30.5418938zM99.343418 30.9189838C99.0804157 30.7724711 98.926097 30.4272055 98.83903 30.1377829L98.83903 16.8735797C99.1788915 16.5805543 100.2303 15.6612471 100.644619 15.1442494 100.743095 15.0211547 100.907021 14.8157968 100.804342 14.6020323L100.692656 14.4176905 100.504111 14.4176905C100.441663 14.4176905 100.277737 14.4176905 99.6568591 14.8530254 99.3560277 15.1634642 99.0473903 15.3141801 98.7141339 15.3141801 97.957552 15.3141801 97.1253118 14.544388 96.3909469 13.8652656 95.8409238 13.3560739 95.3203233 12.8757044 94.8327483 12.7129792L94.6928406 12.6667436 94.5703464 12.7490069C93.9662818 13.1561201 93.4757044 13.6707159 92.9569053 14.2153349 92.4927483 14.7023095 92.0141801 15.2036952 91.4227252 15.6594457 90.9549654 15.4120554 90.5862818 14.9268822 90.1977829 14.4164896 89.6333487 13.6749192 88.9938568 12.8336721 87.9184296 12.6601386L87.7713164 12.6361201 87.4482679 12.9447575C86.39806 13.9499307 85.484157 14.8242032 84.2502079 15.6282217L81.9066051 13.4029099C81.2587067 12.8066513 80.5789838 12.5772748 79.9178753 12.7291917L79.8085912 12.77903C79.1000462 13.2954273 78.3584758 14.2537644 77.7628176 15.0235566 77.4517783 15.4252656 77.1833718 15.7717321 76.9894226 15.9680831L76.9996305 15.9800924 76.5222633 16.7144573 77.3857275 16.451455 77.369515 16.426836 77.3707159 16.4286374C77.7892379 16.1476212 78.1519169 16.0053118 78.4491455 16.0053118 78.5938568 16.0053118 79.0273903 16.0053118 79.4062818 16.8075289 79.457321 18.2864665 79.4627252 28.9434642 79.4152887 30.2884988L78.465358 30.8997691 81.6610162 34.4142725 81.8735797 34.2833718C83.2930716 33.4066975 84.1847575 32.3907159 84.9371363 31.4221709L85.09806 31.2150115 84.193164 30.2927021 84.2171824 17.5893303C84.429746 17.2044342 85.0037875 16.3697921 85.6072517 16.2575058 86.3764434 16.1193995 87.1294226 16.837552 87.3557968 17.4986605 87.54194 18.0594919 87.5137182 25.1593533 87.4518707 29.5727483L86.1698845 31.3393072 89.1962125 34.4953349 92.622448 31.2450346 91.3404619 29.9486374 91.3404619 17.6025404C91.5650346 17.2722864 92.110254 16.5823557 92.5948268 16.4118245 93.3213857 16.1578291 93.8149654 16.9408314 94.2496998 17.6505774 94.3217552 17.7676674 94.3920092 17.8823557 94.4622633 17.9904388 94.4616628 18.3303002 94.45806 18.8635104 94.4538568 19.5426328 94.4364434 22.4530716 94.4046189 27.8698383 94.4490531 32.3721016L94.450254 32.4675751 95.4638337 33.8738568 95.5136721 33.9278984C95.9231871 34.2743649 96.3909469 34.4496998 96.9043418 34.4496998 99.0606005 34.4496998 101.357968 31.3206928 101.41321 30.6397691L101.455843 30.111963 100.980878 30.3461432C100.45127 30.6061432 99.6286374 30.8409238 99.343418 30.9189838zM247.123695 11.8284988L246.292656 12.0122402C245.995427 12.0770901 245.412379 12.0500693 245.208822 12.0278522 243.093395 10.4912702 240.989376 8.8069746 238.954411 7.17672055 237.324157 5.87071594 235.63806 4.5208776 233.943557 3.24429561 233.942956 3.24369515 233.941755 3.24309469 233.941155 3.24249423L233.265035 2.70147806 233.461986 3.51210162C233.461986 3.51750577 233.463187 3.52351039 233.463788 3.52831409 233.476397 3.75709007 233.487806 5.85210162 233.492009 7.23136259L233.49261 7.35325635 233.577875 7.44092379C234.521801 8.40286374 235.76836 9.33117783 236.974088 10.2300693 238.359954 11.2616628 239.674965 12.2416166 240.46097 13.1987529 239.232425 13.7235566 235.108453 15.4775058 232.876536 16.3145497L232.34873 16.5121016 232.950393 16.9396305C233.302263 17.1810162 233.470993 17.3119169 233.459584 17.6517783 233.464988 20.8186143 233.474596 29.0143187 233.460785 29.5625404 233.338891 30.0146882 232.913164 30.1359815 232.896952 30.1407852L232.181801 30.3233256 232.821894 30.6920092C233.66254 31.176582 234.482771 31.8268822 235.275381 32.4555658 236.189284 33.1809238 237.135012 33.9309007 238.13418 34.4454965L238.282494 34.5223557 238.426005 34.4358891C239.148961 34.0017552 239.861109 33.5057737 240.548637 33.0266051 242.236536 31.8503002 243.982079 30.6337644 245.980416 30.2872979L246.821062 30.1419861 246.074088 29.7288684C246.066882 29.7252656 245.428591 29.3571824 245.42679 28.8185681 245.425589 28.087806 245.4406 15.4841109 245.438799 15.4438799 245.301293 14.4194919 246.132333 13.0654503 246.591686 12.4926097L247.123695 11.8284988zM237.88739 15.7471132L237.970855 15.7056813C238.685404 15.3496074 240.549838 14.4188915 241.239169 14.3684527L241.239169 31.0510855 241.234365 31.0510855C240.514411 31.0510855 238.741247 29.8075289 237.867575 28.836582 237.866374 28.0277598 237.872379 26.1633256 237.878383 24.077321 237.88739 20.6240647 237.897598 16.7474827 237.88739 15.7471132zM111.978337 18.011455C111.308222 16.6345958 110.615289 15.2103002 109.948176 12.8775058L109.856305 12.5568591 102.072517 15.6966744 102.146975 15.9566744C102.220231 16.2142725 102.373349 16.7492841 102.781062 16.7492841 102.80448 16.7492841 102.826097 16.7468822 102.847714 16.7438799L102.868129 30.0284988 102.256259 31.1495612 102.503048 31.2978753C103.139538 31.68097 103.758614 32.0742725 104.370485 32.4633718 105.516166 33.1917321 106.598199 33.879261 107.742679 34.4737182L107.917413 34.564388 108.070531 34.4400924C108.21224 34.3254042 111.546005 31.6131178 112.005958 31.1243418L112.482125 30.6169515 112.188499 30.6169515 112.286374 30.3239261 111.717136 30.6247575C111.68351 30.6343649 111.640277 30.6571824 111.555012 30.7106236L111.43552 30.7736721 111.447529 30.7796767C111.404896 30.8072979 111.35806 30.8385219 111.299815 30.876351L110.420139 31.4509931C110.163741 31.5452656 109.926559 31.5746882 109.710393 31.5344573 109.547667 31.4437875 109.376536 31.3555196 109.2006 31.2660508 108.401986 30.8565358 107.575751 30.4338106 107.068961 29.4244342 107.020323 29.3121478 106.966282 28.852194 106.981293 27.2969977L106.981894 27.1715012C107.618984 26.141709 109.25224 24.99903 110.832656 23.8935797 111.716536 23.2751039 112.630439 22.635612 113.406836 21.9955196L113.562356 21.8670208 113.502309 21.674873C113.046559 20.2067436 112.52776 19.1409238 111.978337 18.011455zM106.97649 25.3160739C106.906836 22.2002771 106.841386 17.8937644 106.884018 16.1115935 107.516305 17.4248037 108.738845 20.3874827 109.798661 23.1093764L106.97649 25.3160739zM213.16037 18.011455C212.490855 16.6345958 211.797921 15.2103002 211.130208 12.8775058L211.038938 12.5568591 203.25515 15.6966744 203.329007 15.9566744C203.402864 16.2142725 203.555982 16.7492841 203.963695 16.7492841 203.987113 16.7492841 204.00873 16.7468822 204.030346 16.7438799L204.050162 30.0284988 203.438291 31.1495612 203.685081 31.2978753C204.32157 31.68097 204.940647 32.0742725 205.551917 32.4633718 206.697598 33.1917321 207.780231 33.879261 208.924111 34.4737182L209.101247 34.5655889 209.254965 34.4376905C211.354781 32.6879446 212.38037 31.8328868 212.871547 31.3855427 212.9406 31.3303002 213.001848 31.2798614 213.051686 31.2384296 213.092517 31.2036028 213.126143 31.176582 213.16157 31.1501617L213.144157 31.1231409C213.177182 31.0877136 213.196998 31.0618938 213.218014 31.0354734L213.263649 31.073903 213.638938 30.223649 212.902171 30.6127483 212.868545 30.6181524 212.811501 30.6607852 212.788083 30.6733949 212.791686 30.6763972 212.788083 30.6787991C212.758661 30.7016166 212.717829 30.7352425 212.66739 30.7772748 212.360554 31.0324711 211.576952 31.6581524 210.891824 31.5338568 210.7297 31.4431871 210.558568 31.3549192 210.382633 31.2654503 209.583418 30.8559353 208.757182 30.4332102 208.250393 29.4238337 208.202356 29.3115473 208.148314 28.8515935 208.162725 27.2963972L208.163926 27.1709007C208.801016 26.1411085 210.434273 24.9984296 212.014088 23.8929792 212.898568 23.2745035 213.811871 22.6350115 214.588268 21.9949192L214.743788 21.8664203 214.683741 21.6742725C214.228591 20.2067436 213.710393 19.1409238 213.16037 18.011455zM208.158522 25.3160739C208.089469 22.2002771 208.023418 17.8937644 208.066651 16.1115935 208.699538 17.4248037 209.921478 20.3874827 210.981293 23.1093764L208.158522 25.3160739zM253.40873 27.1715012C254.04582 26.141709 255.678476 24.99903 257.258891 23.8935797 258.142771 23.2751039 259.056674 22.635612 259.833072 21.9955196L259.987991 21.8670208 259.927945 21.674873C259.472794 20.2073441 258.953995 19.1409238 258.404573 18.011455 257.734457 16.6345958 257.041524 15.2103002 256.374411 12.8775058L256.283141 12.5568591 256.107206 12.6277136 256.08739 12.5568591 248.303603 15.6966744 248.37746 15.9566744C248.451316 16.2142725 248.604434 16.7492841 249.012148 16.7492841 249.035566 16.7492841 249.057182 16.7468822 249.078799 16.7438799L249.098614 30.0284988 248.486744 31.1495612 248.733533 31.2978753C249.370023 31.68097 249.989099 32.0742725 250.60037 32.4633718 251.746051 33.1917321 252.828684 33.879261 253.972564 34.4737182L254.1497 34.5655889 254.224758 34.5031409 254.34485 34.5655889 254.498568 34.4376905C256.598383 32.6879446 257.623972 31.8328868 258.11515 31.3855427 258.184804 31.3303002 258.24485 31.2798614 258.295289 31.2384296 258.33612 31.2036028 258.369746 31.176582 258.405173 31.1501617L258.38836 31.1231409C258.542679 30.9592148 258.552887 30.8961663 258.536074 30.8337182L258.6994 30.223649 257.967436 30.6109469 257.917598 30.6187529 257.837136 30.6793995C257.807714 30.7022171 257.766882 30.735843 257.716443 30.7778753 257.454642 30.9952425 256.845173 31.4786143 256.248314 31.5404619 256.210485 31.53806 256.173256 31.5410624 256.136628 31.5344573 255.973903 31.4437875 255.802771 31.3555196 255.626836 31.2660508 254.827621 30.8565358 254.001986 30.4338106 253.495196 29.4244342 253.447159 29.3121478 253.392517 28.852194 253.406928 27.2969977L253.40873 27.1715012zM253.399723 25.1659584C253.336674 22.2789376 253.277829 18.4473903 253.303649 16.5145035 253.970762 17.9670208 255.066605 20.6354734 256.029746 23.1093764L253.399723 25.1659584zM231.605958 30.2350577L231.487667 30.2308545 231.405404 30.2884988C230.605589 30.8487298 229.791363 30.6601848 229.377044 29.8015242L229.34582 15.8966282C230.744896 14.6878984 230.925635 14.4831409 230.896212 14.3090069L231.165219 13.7619861 230.339584 14.0874365 230.351594 14.0982448C229.858614 14.3240185 229.401062 14.6428637 229.212517 14.7833718 228.448129 14.7263279 227.791224 14.2399538 227.098291 13.7259584 226.664157 13.4041109 226.215012 13.071455 225.710624 12.819261L225.541894 12.7351963 221.515797 15.8371824 219.688591 13.5530254C219.083926 12.8805081 218.658199 12.4595843 217.626005 12.6751501L217.54194 12.6925635 217.480092 12.7520092C216.99552 13.2149654 216.565589 13.7872055 216.148868 14.3408314 215.65649 14.9947344 215.191732 15.6120092 214.748591 15.8888222L214.968961 16.4370439C214.972564 16.4364434 215.257182 16.3781986 215.633672 16.3781986 216.256351 16.3781986 217.054965 16.5325173 217.364804 17.2572748L217.408637 30.0230947 216.160277 31.2942725 216.331409 31.5026328C217.323972 32.7089607 218.369977 33.8918707 219.291686 34.3794457L219.468222 34.4731178 219.62254 34.3458199C220.559861 33.5748268 222.14448 32.0640647 222.674088 31.0636952L222.893256 30.5755196 222.341432 30.6259584C221.93612 30.6259584 221.464758 30.113164 221.285219 29.7943187L221.29903 17.8054965C221.586051 17.0230947 222.457921 16.4352425 223.175473 16.1476212 223.887621 15.8978291 224.570947 16.5637413 225.164203 17.2044342L225.164203 30.8115012 225.451224 31.9439723 225.476443 32.0088222C225.739446 32.5054042 226.709792 34.1374596 228.1497 34.288776L228.284203 34.3025866 228.38388 34.2119169C232.038891 30.868545 231.962633 30.6619861 231.88157 30.4440185L231.848545 30.3725635 232.002263 30.0248961 231.605958 30.2350577zM129.906928 30.3467436L129.878106 30.3455427 129.795843 30.4031871C129.783233 30.412194 129.770624 30.4169977 129.757413 30.4254042L129.525035 30.5484988 129.537044 30.5545035C128.826097 30.9111778 128.137968 30.6824018 127.768083 29.9150115L127.736859 16.0107159C129.362309 14.6074365 129.343695 14.5575982 129.262032 14.3372286L129.256628 14.3246189 129.425358 13.9121016 128.599723 14.237552 128.626143 14.2699769C128.1794 14.489746 127.777691 14.7683603 127.603557 14.8974596 126.838568 14.8404157 126.181062 14.3540416 125.487529 13.8394457 125.053995 13.5181986 124.60545 13.1861432 124.101663 12.9339492L123.933533 12.8498845 119.906236 15.9512702 118.07903 13.6683141C117.475566 12.9951963 117.050439 12.5724711 116.017044 12.7892379L115.932979 12.8066513 115.871132 12.866097C115.386559 13.3290531 114.956028 13.9012933 114.539908 14.4549192 114.048129 15.1088222 113.583372 15.7266975 113.140231 16.0035104L113.3606 16.5517321C113.363603 16.5511316 113.648822 16.4928868 114.025312 16.4928868 114.647991 16.4928868 115.447206 16.6472055 115.755843 17.371963L115.800277 30.1371824 114.551316 31.4095612 114.723048 31.6185219C115.716813 32.8242494 116.762818 34.0077598 117.682125 34.4947344L117.859261 34.5884065 118.01358 34.4611085C118.9503 33.6901155 120.53552 32.1787529 121.065127 31.1777829L121.284296 30.6902079 120.732471 30.7406467C120.326559 30.7406467 119.855797 30.2278522 119.676859 29.9084065L119.690069 17.9207852C119.977691 17.1371824 120.848961 16.5505312 121.566513 16.2629099 122.27806 16.0083141 122.961986 16.6778291 123.555242 17.3191224L123.555242 30.9267898 123.843464 32.0586605 123.868684 32.1223095C124.131686 32.6194919 125.101432 34.2521478 126.54194 34.4034642L126.676443 34.4178753 126.77612 34.3272055C130.431132 30.9838337 130.354873 30.7772748 130.274411 30.5593072L130.244388 30.4950577 130.375889 30.0999538 129.906928 30.3467436z"/>
  </g>
</svg>
