<svg xmlns="http://www.w3.org/2000/svg" width="31" height="19" viewBox="0 0 31 19">
  <g fill="none">
    <polygon fill="#F1AD2B" points="0 18.814 30.21 18.814 30.21 16.105 0 16.105"/>
    <polygon fill="#FFFFFF" points="0 16.105 30.21 16.105 30.21 2.105 0 2.105"/>
    <polygon fill="#172E66" points="0 2.709 30.21 2.709 30.21 0 0 0"/>
    <path fill="#172E66" d="M14.8442553,5.69255319 L13.2519149,13.1370213 L11.3259574,13.1370213 L12.9185106,5.69255319 L14.8442553,5.69255319 Z M22.9470213,10.4995745 L23.9608511,7.70382979 L24.5440426,10.4995745 L22.9470213,10.4995745 Z M25.0968085,13.1370213 L26.8776596,13.1370213 L25.3217021,5.69255319 L23.6789362,5.69255319 C23.3087234,5.69255319 22.9968085,5.90723404 22.8585106,6.23829787 L19.9685106,13.1370213 L21.9912766,13.1370213 L22.392766,12.0253191 L24.8634043,12.0253191 L25.0968085,13.1370213 Z M20.0689362,10.7065957 C20.0774468,8.74191489 17.3529787,8.63297872 17.3710638,7.75510638 C17.3770213,7.48851064 17.6312766,7.20425532 18.1878723,7.13170213 C18.463617,7.09617021 19.2244681,7.06744681 20.087234,7.46489362 L20.4246809,5.88553191 C19.9612766,5.71787234 19.3651064,5.55659574 18.6231915,5.55659574 C16.7191489,5.55659574 15.3797872,6.56787234 15.3689362,8.01723404 C15.3568085,9.08914894 16.3257447,9.68659574 17.0542553,10.043617 C17.8055319,10.4082979 18.057234,10.6425532 18.053617,10.9685106 C18.0482979,11.4678723 17.4544681,11.6889362 16.9017021,11.697234 C15.932766,11.7125532 15.3712766,11.4355319 14.923617,11.2268085 L14.5740426,12.8589362 C15.0248936,13.0651064 15.8553191,13.2446809 16.7153191,13.2538298 C18.7393617,13.2538298 20.0629787,12.2544681 20.0689362,10.7065957 L20.0689362,10.7065957 Z M12.0923404,5.69255319 L8.97170213,13.1370213 L6.93595745,13.1370213 L5.40021277,7.19574468 C5.30723404,6.83042553 5.22595745,6.69617021 4.94297872,6.54170213 C4.47978723,6.29021277 3.71510638,6.05489362 3.04297872,5.90851064 L3.08829787,5.69255319 L6.36574468,5.69255319 C6.78319149,5.69255319 7.1587234,5.97021277 7.25425532,6.45106383 L8.06531915,10.7593617 L10.0689362,5.69255319 L12.0923404,5.69255319 L12.0923404,5.69255319 Z"/>
  </g>
</svg>
