<?xml version="1.0" encoding="UTF-8" standalone="no"?>
<svg width="52px" height="52px" viewBox="0 0 52 52" version="1.1" xmlns="http://www.w3.org/2000/svg" xmlns:xlink="http://www.w3.org/1999/xlink" xmlns:sketch="http://www.bohemiancoding.com/sketch/ns">
    <!-- Generator: Sketch 3.2.2 (9983) - http://www.bohemiancoding.com/sketch -->
    <title>48</title>
    <desc>Created with Sketch.</desc>
    <defs></defs>
    <g id="Page-1" stroke="none" stroke-width="1" fill="none" fill-rule="evenodd" sketch:type="MSPage">
        <g id="48" sketch:type="MSArtboardGroup" fill="#D20000">
            <path d="M26,51 C39.8071187,51 51,39.8071187 51,26 C51,12.1928813 39.8071187,1 26,1 C12.1928813,1 1,12.1928813 1,26 C1,39.8071187 12.1928813,51 26,51 Z M26,49 C38.7025492,49 49,38.7025492 49,26 C49,13.2974508 38.7025492,3 26,3 C13.2974508,3 3,13.2974508 3,26 C3,38.7025492 13.2974508,49 26,49 Z" id="Oval-1" sketch:type="MSShapeGroup"></path>
            <path d="M29.1391667,16.2358343 C26.9566667,17.030001 25.5775,19.0783343 25.7341667,21.320001 L25.7866667,22.185001 L24.9133334,22.0791676 C21.7358334,21.6733343 18.9591667,20.2966676 16.6016667,17.9833343 L15.4491667,16.8358343 L15.1525,17.6833343 C14.5241667,19.572501 14.9258334,21.567501 16.235,22.9091676 C16.9333334,23.6508343 16.7758334,23.7566676 15.5716667,23.315001 C15.1525,23.1741676 14.7858334,23.0683343 14.7508334,23.1208343 C14.6291667,23.245001 15.0475,24.8508343 15.3791667,25.4866676 C15.8333334,26.370001 16.7583334,27.2341676 17.7716667,27.7466676 L18.6275,28.152501 L17.615,28.170001 C16.6375,28.170001 16.6025,28.187501 16.7075,28.5591676 C17.0566667,29.7066676 18.4358334,30.925001 19.9725,31.455001 L21.055,31.825001 L20.1125,32.390001 C18.7158334,33.2033343 17.0741667,33.6616676 15.4325,33.6958343 C14.6458334,33.7133343 14,33.7841676 14,33.837501 C14,34.0133343 16.1308334,35.0016676 17.37,35.3908343 C21.0891667,36.5383343 25.5075,36.0433343 28.825,34.0841676 C31.1825,32.6891676 33.5391667,29.917501 34.64,27.2333343 C35.2341667,25.8041676 35.8275,23.1908343 35.8275,21.9383343 C35.8275,21.1258343 35.88,21.020001 36.8575,20.0491676 C37.4341667,19.4841676 37.975,18.8666676 38.08,18.690001 C38.255,18.3541676 38.2366667,18.3541676 37.3466667,18.6541676 C35.8625,19.1841676 35.6525,19.1133343 36.3866667,18.3191676 C36.9275,17.7541676 37.5741667,16.730001 37.5741667,16.430001 C37.5741667,16.377501 37.3125,16.465001 37.015,16.6241676 C36.7008334,16.8008343 36.0025,17.0658343 35.4783334,17.2241676 L34.5358334,17.525001 L33.68,16.9416676 C33.2083334,16.6241676 32.5458334,16.2708343 32.1958334,16.165001 C31.305,15.9183343 29.9425,15.9533343 29.1391667,16.2358343 L29.1391667,16.2358343 L29.1391667,16.2358343 Z" id="Path" sketch:type="MSShapeGroup"></path>
        </g>
    </g>
</svg>