<?xml version="1.0" encoding="UTF-8" standalone="no"?>
<svg width="52px" height="52px" viewBox="0 0 52 52" version="1.1" xmlns="http://www.w3.org/2000/svg" xmlns:xlink="http://www.w3.org/1999/xlink" xmlns:sketch="http://www.bohemiancoding.com/sketch/ns">
    <!-- Generator: Sketch 3.2.2 (9983) - http://www.bohemiancoding.com/sketch -->
    <title>48</title>
    <desc>Created with Sketch.</desc>
    <defs></defs>
    <g id="Page-1" stroke="none" stroke-width="1" fill="none" fill-rule="evenodd" sketch:type="MSPage">
        <g id="48" sketch:type="MSArtboardGroup" fill="#D20000">
            <path d="M26,51 C39.8071187,51 51,39.8071187 51,26 C51,12.1928813 39.8071187,1 26,1 C12.1928813,1 1,12.1928813 1,26 C1,39.8071187 12.1928813,51 26,51 L26,51 Z M26,49 C38.7025492,49 49,38.7025492 49,26 C49,13.2974507 38.7025492,3 26,3 C13.2974507,3 3,13.2974507 3,26 C3,38.7025492 13.2974507,49 26,49 L26,49 Z" id="Oval-1" sketch:type="MSShapeGroup"></path>
            <path d="M22.4708333,39.6 L28.0908333,39.6 L28.0908333,25.9983333 L31.84,25.9983333 L32.3366667,21.3116667 L28.0908333,21.3116667 L28.0966667,18.965 C28.0966667,17.7433333 28.2133333,17.0875 29.9666667,17.0875 L32.31,17.0875 L32.31,12.4 L28.56,12.4 C24.0558333,12.4 22.4708333,14.6741667 22.4708333,18.4975 L22.4708333,21.3116667 L19.6633333,21.3116667 L19.6633333,25.9991667 L22.4708333,25.9991667 L22.4708333,39.6 L22.4708333,39.6 Z" id="Path" sketch:type="MSShapeGroup"></path>
        </g>
    </g>
</svg>