<?xml version="1.0" encoding="UTF-8" standalone="no"?>
<svg width="100px" height="100px" viewBox="0 0 100 100" version="1.1" xmlns="http://www.w3.org/2000/svg" xmlns:xlink="http://www.w3.org/1999/xlink" xmlns:sketch="http://www.bohemiancoding.com/sketch/ns">
    <!-- Generator: Sketch 3.2.2 (9983) - http://www.bohemiancoding.com/sketch -->
    <title>Artboard 1</title>
    <desc>Created with Sketch.</desc>
    <defs></defs>
    <g id="Page-1" stroke="none" stroke-width="1" fill="none" fill-rule="evenodd" sketch:type="MSPage">
        <g id="Artboard-1" sketch:type="MSArtboardGroup">
            <g id="Oval-1-+-“" sketch:type="MSLayerGroup" transform="translate(1.000000, 1.000000)">
                <circle id="Oval-1" fill="#D20000" sketch:type="MSShapeGroup" cx="49" cy="49" r="49"></circle>
                <path d="M45.8173707,59.9003932 C45.8173707,62.3329086 44.84387,64.4613277 42.8968394,66.2857143 C40.9498088,68.1101009 38.6531033,69.0222805 36.0066539,69.0222805 C31.8479478,69.0222805 28.6533532,67.6350073 26.4227745,64.8604194 C24.1921957,62.0858315 23.0769231,58.2470756 23.0769231,53.3440367 C23.0769231,48.7830702 24.9955701,44.1841647 28.8329217,39.5471822 C32.6702732,34.9101996 37.2920387,31.3945074 42.6983567,29 L45.1935679,33.0478375 C40.9214425,35.1382804 37.5756246,37.5707594 35.1560137,40.3453473 C32.7364029,43.1199352 31.3375863,46.4835975 30.9595221,50.4364351 L34.1352455,50.4364351 C36.4792435,50.4364351 38.388439,50.7024875 39.8628894,51.2346003 C41.3373398,51.766713 42.5282241,52.5078589 43.4355782,53.4580603 C44.3051258,54.3702536 44.9194709,55.3774519 45.2786319,56.4796855 C45.6377929,57.581919 45.8173707,58.7221435 45.8173707,59.9003932 L45.8173707,59.9003932 Z M73.7750781,59.9003932 C73.7750781,62.3329086 72.8015774,64.4613277 70.8545468,66.2857143 C68.9075162,68.1101009 66.6108107,69.0222805 63.9643613,69.0222805 C59.8056552,69.0222805 56.6110607,67.6350073 54.3804819,64.8604194 C52.1499032,62.0858315 51.0346305,58.2470756 51.0346305,53.3440367 C51.0346305,48.7830702 52.9532775,44.1841647 56.7906291,39.5471822 C60.6279807,34.9101996 65.2497461,31.3945074 70.6560641,29 L73.1512753,33.0478375 C68.8791499,35.1382804 65.533332,37.5707594 63.1137211,40.3453473 C60.6941103,43.1199352 59.2952938,46.4835975 58.9172296,50.4364351 L62.0929529,50.4364351 C64.4369509,50.4364351 66.3461465,50.7024875 67.8205968,51.2346003 C69.2950472,51.766713 70.4859315,52.5078589 71.3932856,53.4580603 C72.2628333,54.3702536 72.8771784,55.3774519 73.2363393,56.4796855 C73.5955003,57.581919 73.7750781,58.7221435 73.7750781,59.9003932 L73.7750781,59.9003932 Z" id="“" fill="#FFFFFF" sketch:type="MSShapeGroup"></path>
            </g>
        </g>
    </g>
</svg>