<?xml version="1.0" encoding="UTF-8" standalone="no"?>
<svg width="748px" height="200px" viewBox="0 0 748 200" version="1.1" xmlns="http://www.w3.org/2000/svg" xmlns:xlink="http://www.w3.org/1999/xlink" xmlns:sketch="http://www.bohemiancoding.com/sketch/ns">
    <!-- Generator: Sketch 3.2.2 (9983) - http://www.bohemiancoding.com/sketch -->
    <title>Artboard</title>
    <desc>Created with Sketch.</desc>
    <defs></defs>
    <g id="Page-1" stroke="none" stroke-width="1" fill="none" fill-rule="evenodd" sketch:type="MSPage">
        <path d="M80.6074,6.06480645 C81.0902452,12.0733065 79.8520581,17.9562984 77.6832387,23.003629 C100.824748,18.1119919 112.183561,-2.8256129 132.668626,5.34670968 C137.967174,9.42651613 136.140968,15.6765 134.837445,21.6834113 C119.136213,69.2255484 102.968071,113.72054 96.7070194,163.702935 L64.5332774,163.702935 L82.7794065,99.5365403 L103.261284,33.4573387 C103.984755,30.8121371 100.855026,29.8525565 99.4080839,29.132871 C90.4905871,28.4100081 82.4208581,31.2871613 74.9503032,35.1334274 L72.1488452,39.0178226 L57.0882194,87.8452258 L36.080471,163.86975 L3,163.928532 L12.8831871,137.740242 L38.0628452,65.3506855 L48.5515806,32.4945806 C42.043529,34.1754355 34.5761613,36.3376694 27.3430452,37.3004274 L27.3430452,20.9621371 C48.1850645,18.1119919 61.9899742,1.73557258 71.4524645,1.50044355 C71.3504774,1.48455645 80.0305355,0.596467742 80.6074,6.06480645" id="Fill-1" fill="#FFFFFF" sketch:type="MSShapeGroup"></path>
        <path d="M371.559058,23.6963065 C348.18489,66.7058548 334.19991,113.561669 328.174703,163.780782 L304.760697,163.780782 C305.724794,156.817468 308.134239,150.086105 307.898394,143.118024 C295.604168,155.131847 282.833471,167.866944 264.992103,163.780782 C257.519955,161.620137 253.663568,154.408984 252.223,147.442492 C250.380858,116.673952 270.776684,91.6978468 296.085419,76.0792419 C304.526445,71.5117016 313.477406,68.1706452 322.893684,66.4882016 L317.05811,87.6116855 C301.626187,90.9781613 284.999103,104.67125 282.588065,121.015895 C281.863,125.337185 282.105219,130.144621 285.236542,133.02654 C287.166329,135.431847 290.543058,135.910048 293.194723,135.188774 C304.045194,131.10579 312.291806,116.386395 317.117071,106.773113 L346.199329,23.6963065 L371.559058,23.6963065" id="Fill-4" fill="#FFFFFF" sketch:type="MSShapeGroup"></path>
        <path d="M415.260529,23.5342581 C384.650058,63.6618871 368.255632,110.431911 368.987071,163.534532 L345.125277,163.534532 C347.767381,111.871282 363.438335,65.0980806 390.192419,23.5342581 L415.260529,23.5342581" id="Fill-5" fill="#FFFFFF" sketch:type="MSShapeGroup"></path>
        <path d="M529.487671,83.6510323 C519.3782,83.9020484 504.650626,81.9352258 501.799768,91.2117016 C499.693097,102.748911 516.213413,105.832597 523.032206,113.890532 C527.583381,119.690911 531.377619,125.731185 530.365716,133.798653 C528.34191,148.411605 514.946542,161.766298 500.791052,165.294823 C487.395684,169.07754 471.982884,166.554669 460.357948,160.255435 C464.149,153.454169 468.6938,146.648137 473.493568,140.348903 C477.794555,143.121202 481.837387,146.146105 487.150277,146.146105 C492.198639,146.146105 496.153826,144.384226 499.527368,140.348903 C501.299394,137.072984 502.563077,133.042427 501.299394,129.266065 C494.477413,118.933097 479.5618,113.639516 478.556271,100.284823 C477.034432,87.4321613 484.47949,76.99275 495.487723,70.2995161 C506.854503,63.9971048 521.016368,63.4934839 535.420452,63.9971048 L529.487671,83.6510323" id="Fill-6" fill="#FFFFFF" sketch:type="MSShapeGroup"></path>
        <path d="M434.453226,65.8002903 C422.163781,87.6736452 401.167187,118.7075 412.760252,139.039806 C414.460568,141.445113 417.827735,141.923315 420.233994,140.240871 C428.917239,131.593524 429.757039,122.514048 434.936071,109.488218 C440.444968,95.6299032 445.506077,79.7443952 451.528097,65.8002903 L479.007245,65.8002903 C456.112735,105.934274 444.236019,151.05204 438.456219,197.996823 L408.430581,198 C411.558716,185.894032 415.9346,168.183097 419.797361,156.169274 C413.609613,162.33029 403.976613,165.617331 396.464626,163.000726 C381.998394,153.627339 384.385529,134.686742 388.906426,117.900435 C393.483097,99.6334516 401.434903,81.4236613 411.796155,65.8002903 L434.453226,65.8002903" id="Fill-7" fill="#FFFFFF" sketch:type="MSShapeGroup"></path>
        <path d="M197.624845,64.0876613 C197.424058,65.0980806 194.785142,74.245871 194.785142,74.245871 C182.242323,73.7597258 168.888387,78.875371 161.720606,88.2010968 C149.746684,101.376266 139.017323,124.522177 149.746684,137.922944 C153.239742,141.897895 158.477735,143.141855 163.463948,141.897895 C172.191813,139.912008 179.423335,131.212234 180.671084,122.504516 C183.663768,108.836847 179.673523,95.9095161 175.182903,84.2197903 L196.381877,79.2503065 C203.8604,100.3865 202.861245,129.223169 186.903452,146.374879 C173.441155,160.792419 155.983832,168.502427 136.284387,165.514065 C127.556523,163.0325 117.834284,155.821347 116.086161,146.374879 C109.711968,124.131355 124.814026,91.1831048 149.746684,75.5247823 C163.463948,66.3245645 179.673523,62.8452903 197.624845,64.0876613" id="Fill-8" fill="#FFFFFF" sketch:type="MSShapeGroup"></path>
        <path d="M740.111742,64.0876613 C739.909361,65.0980806 737.270445,74.245871 737.270445,74.245871 C724.729219,73.7597258 711.375284,78.875371 704.20591,88.2010968 C692.231987,101.376266 681.502626,124.522177 692.231987,137.922944 C695.726639,141.897895 700.964632,143.141855 705.950845,141.897895 C714.677116,139.912008 721.910232,131.212234 723.154794,122.504516 C726.149071,108.836847 722.158826,95.9095161 717.668206,84.2197903 L738.867181,79.2503065 C746.345703,100.3865 745.346548,129.223169 729.390348,146.374879 C715.926458,160.792419 698.470729,168.502427 678.76969,165.514065 C670.041826,163.0325 660.319587,155.821347 658.573058,146.374879 C652.198865,124.131355 667.300923,91.1831048 692.231987,75.5247823 C705.950845,66.3245645 722.158826,62.8452903 740.111742,64.0876613" id="Fill-10" fill="#FFFFFF" sketch:type="MSShapeGroup"></path>
        <path d="M247.710071,66.0608387 C247.06309,70.1565323 246.505348,72.1757823 246.081465,75.0592903 C250.776058,73.2910565 253.212594,68.3755887 257.065794,67.1745242 C259.2378,65.7319758 264.980948,65.8400081 267.146581,67.279379 C270.526497,70.3980161 271.243594,74.4889435 271.489,78.8134113 L256.783735,93.4740242 L249.593645,85.6782258 C238.410123,95.6013065 234.099574,117.781282 231.323613,131.18046 L225.331871,163.702935 L200.270135,163.702935 L204.325716,145.115032 L218.544948,90.0884839 C222.157523,79.0803145 223.013258,74.2268065 226.667265,65.9766371 L247.710071,66.0608387" id="Fill-12" fill="#FFFFFF" sketch:type="MSShapeGroup"></path>
        <path d="M561.777742,153.763968 C561.777742,161.149879 555.770065,167.137726 548.363252,167.137726 C540.954845,167.137726 534.948761,161.149879 534.948761,153.763968 C534.948761,146.378056 540.954845,140.391798 548.363252,140.391798 C555.770065,140.391798 561.777742,146.378056 561.777742,153.763968" id="Fill-13" fill="#FFFFFF" sketch:type="MSShapeGroup"></path>
        <path d="M661.199226,71.9327097 C661.191258,70.2661532 658.949135,66.688379 656.625742,65.3967581 C653.42749,63.8461774 647.958432,64.2830726 643.74031,65.8892581 C641.651168,66.9759355 640.899013,67.2984435 638.793935,68.7123952 C635.042723,71.1335887 630.751297,74.2442823 617.496161,77.0467661 C617.496161,77.0467661 619.127955,71.6991694 619.23791,68.7997742 C619.005252,65.2077016 617.26191,64.1114919 615.591871,63.2853629 C612.906742,61.884121 607.840852,63.2424677 605.520645,64.7851048 C602.523181,66.0163548 597.693135,70.3297016 597.693135,70.3297016 C590.847252,75.0704113 587.025923,76.6400565 576.436794,79.5950565 L576.436794,92.8862016 C582.250058,92.5716371 590.029761,91.3022581 596.984006,89.5070161 L570.392465,163.733121 L594.593684,163.669573 C594.593684,163.669573 612.084471,96.9405887 613.945735,93.5725242 C614.79191,91.5373871 614.737729,89.7532661 617.225258,87.9548468 C619.883297,86.0340968 625.832013,83.5032823 631.173587,83.5652419 C634.418052,83.6113145 638.840148,82.6231371 636.419548,90.8034032 C633.439613,99.439629 616.073123,163.491637 616.073123,163.491637 L640.020968,163.491637 C646.095574,118.469194 649.502581,113.915952 658.091806,87.1604919 C660.282935,81.337871 661.256594,75.159379 661.199226,71.9327097" id="Fill-14" fill="#FFFFFF" sketch:type="MSShapeGroup"></path>
        <g id="Artboard" sketch:type="MSArtboardGroup"></g>
    </g>
</svg>