<?xml version="1.0" encoding="UTF-8" standalone="no"?>
<svg width="52px" height="52px" viewBox="0 0 52 52" version="1.1" xmlns="http://www.w3.org/2000/svg" xmlns:xlink="http://www.w3.org/1999/xlink" xmlns:sketch="http://www.bohemiancoding.com/sketch/ns">
    <!-- Generator: Sketch 3.2.2 (9983) - http://www.bohemiancoding.com/sketch -->
    <title>share-twitter</title>
    <desc>Created with Sketch.</desc>
    <defs></defs>
    <g id="Page-1" stroke="none" stroke-width="1" fill="none" fill-rule="evenodd" sketch:type="MSPage">
        <g id="share-twitter" sketch:type="MSArtboardGroup">
            <path d="M26,51 C12.1933333,51 1,39.8066667 1,26 C1,12.1925 12.1933333,1 26,1 C39.8066667,1 51,12.1925 51,26 C51,39.8066667 39.8066667,51 26,51 L26,51 Z" id="Shape" stroke="#D20000" sketch:type="MSShapeGroup"></path>
            <path d="M29.4725,16.2358343 C27.29,17.030001 25.9108333,19.0783343 26.0675,21.320001 L26.12,22.185001 L25.2466667,22.0791676 C22.0691667,21.6733343 19.2925,20.2966676 16.935,17.9833343 L15.7825,16.8358343 L15.4858333,17.6833343 C14.8575,19.572501 15.2591667,21.567501 16.5683333,22.9091676 C17.2666667,23.6508343 17.1091667,23.7566676 15.905,23.315001 C15.4858333,23.1741676 15.1191667,23.0683343 15.0841667,23.1208343 C14.9625,23.245001 15.3808333,24.8508343 15.7125,25.4866676 C16.1666667,26.370001 17.0916667,27.2341676 18.105,27.7466676 L18.9608333,28.152501 L17.9483333,28.170001 C16.9708333,28.170001 16.9358333,28.187501 17.0408333,28.5591676 C17.39,29.7066676 18.7691667,30.925001 20.3058333,31.455001 L21.3883333,31.825001 L20.4458333,32.390001 C19.0491667,33.2033343 17.4075,33.6616676 15.7658333,33.6958343 C14.9791667,33.7133343 14.3333333,33.7841676 14.3333333,33.837501 C14.3333333,34.0133343 16.4641667,35.0016676 17.7033333,35.3908343 C21.4225,36.5383343 25.8408333,36.0433343 29.1583333,34.0841676 C31.5158333,32.6891676 33.8725,29.917501 34.9733333,27.2333343 C35.5675,25.8041676 36.1608333,23.1908343 36.1608333,21.9383343 C36.1608333,21.1258343 36.2133333,21.020001 37.1908333,20.0491676 C37.7675,19.4841676 38.3083333,18.8666676 38.4133333,18.690001 C38.5883333,18.3541676 38.57,18.3541676 37.68,18.6541676 C36.1958333,19.1841676 35.9858333,19.1133343 36.72,18.3191676 C37.2608333,17.7541676 37.9075,16.730001 37.9075,16.430001 C37.9075,16.377501 37.6458333,16.465001 37.3483333,16.6241676 C37.0341667,16.8008343 36.3358333,17.0658343 35.8116667,17.2241676 L34.8691667,17.525001 L34.0133333,16.9416676 C33.5416667,16.6241676 32.8791667,16.2708343 32.5291667,16.165001 C31.6383333,15.9183343 30.2758333,15.9533343 29.4725,16.2358343 L29.4725,16.2358343 Z" id="Path" fill="#D20000" sketch:type="MSShapeGroup"></path>
        </g>
    </g>
</svg>