<?xml version="1.0" encoding="UTF-8" standalone="no"?>
<svg width="52px" height="52px" viewBox="0 0 52 52" version="1.1" xmlns="http://www.w3.org/2000/svg" xmlns:xlink="http://www.w3.org/1999/xlink" xmlns:sketch="http://www.bohemiancoding.com/sketch/ns">
    <!-- Generator: Sketch 3.2.2 (9983) - http://www.bohemiancoding.com/sketch -->
    <title>share-mail</title>
    <desc>Created with Sketch.</desc>
    <defs></defs>
    <g id="Page-1" stroke="none" stroke-width="1" fill="none" fill-rule="evenodd" sketch:type="MSPage">
        <g id="share-mail" sketch:type="MSArtboardGroup">
            <path d="M26,51 C39.8071194,51 51,39.8071194 51,26 C51,12.1928806 39.8071194,1 26,1 C12.1928806,1 1,12.1928806 1,26 C1,39.8071194 12.1928806,51 26,51 L26,51 Z" id="Shape" stroke="#D20000" sketch:type="MSShapeGroup"></path>
            <path d="M22.5371678,27.3875326 L26,30.2298928 L29.4085787,27.3875326 L38.8205128,35.4551282 L13.1794872,35.4551282 L22.5371678,27.3875326 L22.5371678,27.3875326 Z" id="Path" fill="#D20000" sketch:type="MSShapeGroup"></path>
            <path d="M12.3247863,34.6004273 L12.3247863,18.3611111 L21.7264957,26.4807692 L12.3247863,34.6004273 L12.3247863,34.6004273 Z" id="Path" fill="#D20000" sketch:type="MSShapeGroup"></path>
            <path d="M39.6752137,34.6004273 L39.6752137,18.3611111 L30.2735043,26.4807692 L39.6752137,34.6004273 L39.6752137,34.6004273 Z" id="Path" fill="#D20000" sketch:type="MSShapeGroup"></path>
            <path d="M26,28.6175214 L38.8205128,17.5064103 L13.1794872,17.5064103 L26,28.6175214 L26,28.6175214 Z" id="Path" fill="#D20000" sketch:type="MSShapeGroup"></path>
        </g>
    </g>
</svg>