<?xml version="1.0" encoding="UTF-8" standalone="no"?>
<svg width="52px" height="52px" viewBox="0 0 52 52" version="1.1" xmlns="http://www.w3.org/2000/svg" xmlns:xlink="http://www.w3.org/1999/xlink" xmlns:sketch="http://www.bohemiancoding.com/sketch/ns">
    <!-- Generator: Sketch 3.2.2 (9983) - http://www.bohemiancoding.com/sketch -->
    <title>48</title>
    <desc>Created with Sketch.</desc>
    <defs></defs>
    <g id="Page-1" stroke="none" stroke-width="1" fill="none" fill-rule="evenodd" sketch:type="MSPage">
        <g id="48" sketch:type="MSArtboardGroup" fill="#D20000">
            <path d="M26,51 C39.8071187,51 51,39.8071187 51,26 C51,12.1928813 39.8071187,1 26,1 C12.1928813,1 1,12.1928813 1,26 C1,39.8071187 12.1928813,51 26,51 L26,51 Z M26,49 C38.7025492,49 49,38.7025492 49,26 C49,13.2974507 38.7025492,3 26,3 C13.2974507,3 3,13.2974507 3,26 C3,38.7025492 13.2974507,49 26,49 L26,49 Z" id="Oval-1" sketch:type="MSShapeGroup"></path>
            <g id="Group" sketch:type="MSLayerGroup" transform="translate(26.000000, 25.500000) rotate(-30.000000) translate(-26.000000, -25.500000) translate(12.000000, 16.000000)">
                <path d="M10.5371678,10.3875326 L14,13.2298928 L17.4085787,10.3875326 L26.8205128,18.4551282 L1.1794872,18.4551282 L10.5371678,10.3875326 L10.5371678,10.3875326 Z" id="Path" sketch:type="MSShapeGroup"></path>
                <path d="M0.3247863,17.6004273 L0.3247863,1.3611111 L9.7264957,9.4807692 L0.3247863,17.6004273 L0.3247863,17.6004273 Z" id="Path" sketch:type="MSShapeGroup"></path>
                <path d="M27.6752137,17.6004273 L27.6752137,1.3611111 L18.2735043,9.4807692 L27.6752137,17.6004273 L27.6752137,17.6004273 Z" id="Path" sketch:type="MSShapeGroup"></path>
                <path d="M14,11.6175214 L26.8205128,0.5064103 L1.1794872,0.5064103 L14,11.6175214 L14,11.6175214 Z" id="Path" sketch:type="MSShapeGroup"></path>
            </g>
        </g>
    </g>
</svg>