<svg xmlns="http://www.w3.org/2000/svg" viewBox="0 0 1024 1024" enable-background="new 0 0 1024 1024"><path fill="#D20000" d="M0 0h1024v1024H0z"/><path fill="#fff" d="M558.4 184.4c3.9 27-3.9 50.1-11.6 73.3 96.4-19.3 146.6-111.9 235.3-77.1 23.1 19.3 15.4 42.4 7.7 69.4-65.6 204.4-135 393.4-162 605.6H489l77.1-273.9L651 300.1c3.9-11.6-11.6-15.4-15.4-19.3-38.6 0-69.4 11.6-104.1 27l-11.6 19.3-61.7 204.4-92.6 327.9H226.7l42.4-111.9 108-308.6 42.4-142.7c-27 7.7-57.9 19.3-88.7 23.1V250c88.7-15.4 146.6-84.9 185.1-84.9.1 0 38.7-3.9 42.5 19.3z"/></svg>